<svg width="65" height="63" viewBox="0 0 65 63" fill="none" xmlns="http://www.w3.org/2000/svg">
<mask id="mask0_5130_741" style="mask-type:alpha" maskUnits="userSpaceOnUse" x="0" y="0" width="65" height="63">
<rect width="65" height="62.6364" fill="#6490AF"/>
</mask>
<g mask="url(#mask0_5130_741)">
<path d="M33.2098 49.3999C33.328 49.2817 33.2098 49.1635 33.0916 49.1635C29.7826 50.4635 22.5735 51.7635 18.0826 52.4726C14.1826 53.0635 10.8735 53.1817 8.98255 53.2999L8.15528 53.418C8.0371 53.418 8.0371 53.5362 8.0371 53.5362C8.0371 53.6544 8.0371 53.6544 8.15528 53.6544C8.50983 54.009 9.57346 55.0726 11.8189 55.4271C14.3007 55.7817 18.0826 55.0726 22.6916 53.7726C26.5916 52.5908 31.0826 50.6999 33.2098 49.3999Z" fill="#2D6DF6"/>
<path d="M33.5644 51.2908C31.4371 52.709 28.6007 54.1271 25.2916 55.309C21.8644 56.4908 18.0826 57.5544 14.0644 58.1453C13.9462 58.1453 13.9462 58.2635 13.9462 58.2635V58.3817C14.6553 58.8544 15.4826 59.209 16.5462 59.3271C17.8462 59.4453 19.3826 59.3271 21.1553 58.8544C22.8098 58.3817 24.228 57.6726 26.0007 56.8453C27.6553 56.018 29.1916 55.0726 30.6098 54.1271C32.028 53.1817 32.9735 52.2362 33.6826 51.409C33.6826 51.409 33.6825 51.2908 33.5644 51.2908Z" fill="#2D6DF6"/>
<path d="M16.6644 14.418C17.4916 15.3635 18.5553 15.9544 19.8553 16.4271H19.9735C20.328 16.5453 42.3098 22.3362 48.1007 23.8726C50.7007 24.5817 52.7098 25.0544 53.6553 25.409C53.7735 25.409 53.7735 25.4089 53.7735 25.2908C53.7735 25.2908 53.7735 25.1726 53.6553 25.1726C49.9916 23.6362 27.3007 15.0089 18.7916 11.6999L15.2462 10.2817C15.128 10.2817 15.0098 10.2817 15.0098 10.2817V10.3999C15.0098 10.7544 15.2462 12.2908 15.9553 13.4726C16.1916 13.8271 16.428 14.0635 16.6644 14.418Z" fill="#2D6DF6"/>
<path d="M17.6098 5.67259C18.0826 6.26349 18.4371 6.61804 19.2644 7.09077C19.5007 7.20895 19.8553 7.44531 20.0916 7.56349L22.1007 8.62713C23.2826 9.21804 40.1826 17.1362 42.6644 18.318C45.6189 19.7362 48.5735 21.1544 49.8735 21.7453C49.9916 21.7453 50.1098 21.7453 49.9916 21.6271C46.8007 19.618 34.628 12.0544 26.0007 6.61804L19.7371 2.83622L18.5553 2.12713L16.5462 0.945312C16.428 0.945312 16.428 0.945312 16.3098 0.945312C16.1916 0.945312 16.1916 1.06349 16.1916 1.06349C16.1916 1.29986 16.1916 2.9544 16.6644 4.13622C16.9007 4.72713 17.2553 5.19986 17.6098 5.67259Z" fill="#2D6DF6"/>
<path d="M32.8553 55.0726C29.9007 57.909 25.7644 59.4453 24.4644 59.7999C24.3462 59.7999 24.3462 59.918 24.3462 59.918C24.3462 60.0362 24.3462 60.0362 24.4644 60.0362C24.7007 60.1544 26.3553 60.9817 29.5462 59.4453C31.3189 58.4999 32.2644 57.0817 33.0916 55.0726C32.9735 55.1908 32.9735 55.0726 32.8553 55.0726Z" fill="#2D6DF6"/>
<path d="M53.0644 31.7908C51.6462 32.1453 46.2098 33.5635 41.4826 34.7453C37.3462 35.809 32.7371 37.109 32.7371 37.109C32.2644 37.2271 32.3826 37.4635 32.5007 37.4635C32.6189 37.6999 32.8553 38.0544 33.2098 38.6453C33.9189 39.8271 34.9826 39.709 35.8098 39.3544C35.928 39.3544 52.3553 32.4999 53.1826 31.909C53.3007 31.7908 53.1826 31.7908 53.1826 31.7908C53.3007 31.7908 53.1825 31.7908 53.0644 31.7908Z" fill="#2D6DF6"/>
<path d="M45.8553 43.2544C43.6098 45.1453 40.3007 47.9817 36.8735 50.9362C36.5189 51.1726 36.4007 51.6453 36.2825 52.2362C36.0462 53.1817 35.5735 54.4817 35.5735 54.4817C35.4553 54.718 35.5735 54.8362 35.928 54.5999C38.528 51.7635 44.4371 45.2635 45.9735 43.4908C45.9735 43.2544 45.9735 43.2544 45.8553 43.2544Z" fill="#2D6DF6"/>
<path d="M56.2553 27.418C53.3007 26.8271 17.8462 20.5635 17.8462 20.5635C17.728 20.5635 17.728 20.5635 17.6098 20.6817C17.6098 20.7999 17.6098 20.7999 17.6098 20.918C18.2007 22.809 19.6189 24.5817 21.9826 25.2908C22.2189 25.409 22.4553 25.409 22.8098 25.409C22.8098 25.409 52.9462 27.418 56.2553 27.6544C56.3735 27.6544 56.3735 27.6544 56.3735 27.5362C56.3735 27.5362 56.3735 27.418 56.2553 27.418Z" fill="#2D6DF6"/>
<path d="M54.8371 29.4271C53.7735 29.4271 51.6462 29.4271 48.928 29.4271C45.8553 29.4271 41.9553 29.4271 38.2916 29.4271C33.4462 29.4271 25.7644 29.5453 25.7644 29.5453C25.7644 29.5453 25.6462 29.5453 25.6462 29.6635V29.7817C25.7644 30.1362 26.2371 30.9635 26.7098 31.4362C27.6553 32.3817 28.7189 32.9726 29.7826 33.0908C29.9007 33.0908 30.0189 33.0908 30.1371 33.0908C30.2553 33.0908 30.3735 33.0908 30.4916 33.0908C30.6098 33.0908 53.5371 29.8999 54.7189 29.6635C54.7189 29.6635 54.8371 29.6635 54.8371 29.5453C54.9553 29.5453 54.8371 29.4271 54.8371 29.4271Z" fill="#2D6DF6"/>
<path d="M51.2916 34.9817C49.7553 35.9271 45.6189 38.409 42.0735 40.5362C40.0644 41.718 37.5826 43.1362 36.4007 43.9635C36.2826 44.0817 36.1644 44.0817 36.1644 44.4362C36.1644 44.4362 36.1644 44.7908 36.2825 45.2635C36.4007 47.1544 37.228 46.918 38.2916 46.0908L38.4098 45.9726C42.3098 42.6635 49.7553 36.518 51.2916 35.218C51.4098 35.0999 51.4098 35.0999 51.2916 34.9817Z" fill="#2D6DF6"/>
<path d="M-14.8902 14.418C-22.8084 14.418 -30.1356 20.209 -30.4902 31.5544C-30.7265 41.8362 -25.4084 49.0453 -16.4265 49.0453C-8.98108 49.0453 -6.38108 43.8453 -6.38108 43.8453C-5.90836 47.2726 -4.13563 48.3362 -0.353812 48.3362V14.418H-14.8902ZM-6.73562 34.3908C-6.73562 39.118 -9.45381 43.4908 -15.2447 43.4908C-20.4447 43.4908 -24.2265 39.9453 -23.9902 31.5544C-23.7538 23.3999 -19.8538 19.8544 -14.6538 19.8544C-14.2993 19.8544 -13.8265 19.8544 -13.472 19.8544H-6.61744V34.3908H-6.73562Z" fill="#2D6DF6"/>
<path d="M-64.9993 14.418V37.9362C-64.9993 41.3635 -67.8356 43.1362 -71.6174 43.1362C-75.5174 43.1362 -78.1174 41.3635 -78.1174 37.9362V20.3271C-78.1174 15.3635 -81.3083 14.418 -84.0265 14.418V39.3544C-84.0265 45.618 -78.3538 48.6908 -71.7356 48.6908C-65.3538 48.6908 -59.0902 45.618 -59.0902 39.3544V21.1544C-59.0902 16.1908 -60.9811 14.418 -64.9993 14.418Z" fill="#2D6DF6"/>
<path d="M-98.0902 29.5453L-105.299 27.5362C-107.308 26.9453 -109.081 26.118 -109.081 23.6362C-109.081 21.1544 -107.545 19.8544 -104.354 19.8544H-97.972C-95.1356 19.8544 -91.7083 18.909 -91.7083 14.2999H-103.763C-111.208 14.2999 -115.463 18.0817 -115.463 23.518C-115.463 28.5999 -112.272 31.318 -106.599 32.8544L-100.336 34.509C-97.7356 35.218 -96.7902 36.8726 -96.7902 38.5271C-96.7902 41.1271 -98.4447 42.6635 -102.345 42.6635L-114.399 42.7817V48.218H-102.108C-94.6629 48.218 -90.4083 44.1999 -90.4083 38.9999C-90.4083 33.6817 -92.4174 31.0817 -98.0902 29.5453Z" fill="#2D6DF6"/>
<path d="M-38.7629 14.418C-46.0902 14.418 -51.172 18.6726 -51.172 27.418V48.3362H-45.2629V27.1817C-45.2629 22.6908 -42.8993 19.9726 -38.2902 19.9726H-36.5174C-31.3174 19.9726 -30.4902 17.2544 -30.4902 14.418H-38.7629Z" fill="#2D6DF6"/>
</g>
</svg>
