<svg width="3341" height="2605" viewBox="0 0 3341 2605" fill="none" xmlns="http://www.w3.org/2000/svg">
<g clip-path="url(#clip0_5104_263)">
<path opacity="0.154" fill-rule="evenodd" clip-rule="evenodd" d="M-474.814 910.282C-261.779 727.067 48.4232 835.541 316.817 796.466C586.835 757.162 893.859 501.699 1112.97 679.164C1351.71 872.555 1216.78 1306.91 1322.5 1611.04C1391.71 1810.08 1532.43 1957.37 1622.92 2145.85C1757.3 2425.66 2016.57 2675.58 1984.63 2989.85C1953.26 3298.33 1744.68 3662.3 1464.38 3705.64C1135.01 3756.6 924.438 3143.53 596.51 3204.51C244.545 3269.97 195.868 4044.63 -159.508 4007.69C-457.878 3976.65 -416.811 3420.72 -456.833 3095.02C-485.046 2865.71 -304.006 2646.65 -354.515 2421.97C-415.813 2149.26 -742.257 2006.14 -764.53 1726.33C-788.08 1430.49 -687.942 1093.52 -474.814 910.256V910.282Z" fill="url(#paint0_linear_5104_263)"/>
<path opacity="0.154" fill-rule="evenodd" clip-rule="evenodd" d="M2560.11 293.648C2899.83 244.168 3198.91 -102.801 3519.49 30.1204C3955.88 211.071 4468.42 571.065 4463.92 1083.01C4459.42 1594.98 3862.36 1791.75 3501.16 2115.75C3199.54 2386.3 2943.77 2864.66 2560.11 2790.66C2180.3 2717.39 2184.41 2093.31 1900.4 1807.02C1587.3 1491.41 888.822 1548.91 866.038 1083.01C843.579 624.132 1440.06 456.435 1825.51 276.832C2059.87 167.621 2307.7 330.408 2560.11 293.648Z" fill="url(#paint1_linear_5104_263)"/>
</g>
<defs>
<linearGradient id="paint0_linear_5104_263" x1="279.115" y1="4770.97" x2="2857.93" y2="2548.31" gradientUnits="userSpaceOnUse">
<stop stop-color="#FFDD60"/>
<stop offset="1" stop-color="#BC52EE"/>
</linearGradient>
<linearGradient id="paint1_linear_5104_263" x1="865.412" y1="2798.34" x2="4807.48" y2="622.335" gradientUnits="userSpaceOnUse">
<stop stop-color="#4A59FB"/>
<stop offset="1" stop-color="#E6F7FF"/>
</linearGradient>
<clipPath id="clip0_5104_263">
<rect width="3341" height="2605" fill="white"/>
</clipPath>
</defs>
</svg>
