<svg width="5984" height="6054" viewBox="0 0 5984 6054" fill="none" xmlns="http://www.w3.org/2000/svg">
<path d="M3493.58 110.243C3479.05 112.695 3465.5 119.178 3454.47 128.954C3443.45 138.73 3435.39 151.405 3431.21 165.538C3413.36 234.632 3502.85 293.018 3565.06 247.667C3637.79 194.348 3578.45 95.9335 3493.58 110.243V110.243ZM3553.02 220.29C3516.05 254.614 3451.03 221.31 3458.4 176.596C3460.36 167.435 3464.94 159.038 3471.56 152.412C3478.19 145.786 3486.59 141.214 3495.75 139.245C3543.97 126.816 3595.28 180.995 3552.95 220.29H3553.02Z" fill="#1D1D1B"/>
<path d="M3510.77 166.846C3507.37 166.846 3504.04 167.856 3501.21 169.747C3498.38 171.638 3496.18 174.325 3494.87 177.47C3493.57 180.615 3493.23 184.075 3493.89 187.413C3494.56 190.752 3496.2 193.818 3498.6 196.225C3501.01 198.632 3504.08 200.271 3507.41 200.935C3510.75 201.599 3514.21 201.258 3517.36 199.956C3520.5 198.653 3523.19 196.447 3525.08 193.617C3526.97 190.787 3527.98 187.46 3527.98 184.056C3527.99 181.795 3527.54 179.555 3526.68 177.465C3525.82 175.375 3524.55 173.476 3522.95 171.877C3521.35 170.279 3519.45 169.011 3517.36 168.148C3515.27 167.284 3513.03 166.842 3510.77 166.846V166.846Z" fill="#1D1D1B"/>
<path d="M3248.48 1540.47C3229.78 1538 3210.77 1541.3 3194.01 1549.95C3177.24 1558.59 3163.52 1572.16 3154.69 1588.82C3145.86 1605.49 3142.33 1624.46 3144.6 1643.19C3146.86 1661.92 3154.8 1679.5 3167.35 1693.58C3179.9 1707.67 3196.46 1717.57 3214.8 1721.97C3233.14 1726.37 3252.39 1725.05 3269.96 1718.19C3287.53 1711.33 3302.59 1699.26 3313.1 1683.6C3323.61 1667.94 3329.07 1649.43 3328.76 1630.57C3329.8 1608.04 3321.98 1586.01 3306.98 1569.17C3291.98 1552.33 3270.98 1542.03 3248.48 1540.47V1540.47Z" fill="#86F2AA"/>
<path d="M4968.2 1637.51C4972.95 1658.67 4962.24 1659.5 4936.84 1674.13C4878.9 1707.4 4877.88 1710.27 4871.06 1705.68C4864.24 1701.09 4857.26 1696.43 4850.38 1691.88V1725.98C4850.38 1728.86 4849.23 1731.62 4847.2 1733.66C4845.16 1735.7 4842.39 1736.85 4839.51 1736.85C4836.63 1736.85 4833.87 1735.7 4831.83 1733.66C4829.79 1731.62 4828.64 1728.86 4828.64 1725.98V1671.8C4828.66 1669.9 4829.16 1668.03 4830.12 1666.38C4831.07 1664.73 4832.43 1663.36 4834.07 1662.39C4835.71 1661.43 4837.58 1660.91 4839.48 1660.88C4841.38 1660.86 4843.26 1661.32 4844.93 1662.24C4855.64 1669.31 4866.12 1676.39 4876.8 1683.46C4899.97 1670.05 4923.01 1656.82 4946.21 1643.4C4944.11 1633.22 4939.06 1623.89 4931.68 1616.57C4926.96 1611.65 4921.88 1607.11 4916.48 1602.96C4914.06 1601.36 4912.37 1598.87 4911.77 1596.03C4911.17 1593.19 4911.72 1590.23 4913.29 1587.79C4899.09 1603.15 4881.79 1615.33 4862.54 1623.53C4843.29 1631.72 4822.51 1635.73 4801.6 1635.31C4780.68 1634.88 4760.09 1630.03 4741.18 1621.06C4722.28 1612.1 4705.49 1599.22 4691.92 1583.3C4690.58 1584.32 4689.28 1585.38 4688 1586.48C4688.29 1588.48 4688 1590.51 4687.17 1592.34C4686.33 1594.17 4684.98 1595.72 4683.29 1596.81C4668.71 1606.05 4658.12 1620.41 4653.58 1637.06L4723.03 1677.12L4754.9 1655.9C4756.56 1654.93 4758.45 1654.43 4760.38 1654.44C4762.3 1654.44 4764.19 1654.95 4765.85 1655.93C4767.51 1656.9 4768.88 1658.29 4769.83 1659.96C4770.78 1661.64 4771.27 1663.53 4771.25 1665.46V1719.64C4771.1 1722.42 4769.88 1725.04 4767.86 1726.96C4765.83 1728.88 4763.15 1729.95 4760.36 1729.95C4757.57 1729.95 4754.89 1728.88 4752.87 1726.96C4750.84 1725.04 4749.63 1722.42 4749.48 1719.64V1685.53C4729.69 1698.57 4725.93 1703.89 4717.61 1699.33C4638.13 1653.92 4634.94 1654.05 4632.04 1647.1C4622.55 1660.99 4613.94 1675.46 4606.29 1690.44C4630.95 1718.3 4661.25 1740.61 4695.17 1755.9C4729.09 1771.19 4765.86 1779.11 4803.07 1779.14C4840.28 1779.18 4877.07 1771.32 4911.01 1756.09C4944.96 1740.86 4975.29 1718.61 5000.01 1690.79C4992.08 1671.56 4981.37 1653.61 4968.2 1637.51V1637.51Z" fill="#FEE253"/>
<path d="M3509.1 3241.26L4489.81 3253.85C4499.37 3253.94 4508.84 3251.9 4517.53 3247.89C4526.21 3243.88 4533.9 3237.99 4540.03 3230.65L4824.79 2887.31C4832.28 2878.17 4837.1 2867.13 4838.73 2855.42C4840.35 2843.71 4838.7 2831.78 4833.98 2820.95C4829.25 2810.11 4821.63 2800.79 4811.94 2794.01C4802.26 2787.23 4790.89 2783.26 4779.09 2782.52L3761.93 2718.78L3509.1 3241.26ZM2394.64 2666.23C2501.26 2786.1 2594.78 2917 2673.63 3056.7C2689.71 3080.94 2702.33 3107.29 2711.14 3135.01C2713.29 3133.98 2715.72 3133.67 2718.06 3134.11C2886.65 2997.07 3122.39 2778.86 3344.53 2775.39C3343.13 2773.32 3342.39 2770.87 3342.43 2768.38C3342.46 2765.88 3343.26 2763.45 3344.72 2761.43C3360.27 2737.5 3378.78 2715.63 3399.82 2696.35L2452.13 2636.97C2440.83 2636.4 2429.57 2638.8 2419.49 2643.93C2409.4 2649.07 2400.83 2656.75 2394.64 2666.23V2666.23Z" fill="#FDE992"/>
<path d="M3629.86 1640.46C3630.97 1617.91 3623.17 1595.83 3608.14 1578.97C3593.12 1562.12 3572.07 1551.85 3549.54 1550.37C3530.84 1547.9 3511.84 1551.21 3495.07 1559.86C3478.31 1568.5 3464.59 1582.07 3455.77 1598.74C3446.94 1615.41 3443.42 1634.38 3445.69 1653.11C3447.96 1671.83 3455.9 1689.41 3468.45 1703.49C3481 1717.57 3497.56 1727.48 3515.91 1731.87C3534.25 1736.27 3553.5 1734.95 3571.07 1728.09C3588.64 1721.22 3603.68 1709.15 3614.19 1693.49C3624.7 1677.83 3630.17 1659.32 3629.86 1640.46V1640.46ZM1746.34 2216.35C1620.45 2080.46 1283.46 1994.41 960.52 2109.59C971.535 2143.08 983.448 2176.27 996.246 2209.12C1179.75 2091.97 1537.81 2143.53 1746.34 2216.35V2216.35Z" fill="#6C458F"/>
<path d="M3441.38 2819.49C3220.01 2737.27 2925.88 3000.68 2756.18 3140.55C2773.77 3146.58 2789.87 3156.3 2803.41 3169.05C2816.94 3181.8 2827.6 3197.29 2834.67 3214.49C2836.42 3217.8 2836.82 3221.65 2835.79 3225.25C2834.76 3228.85 2832.38 3231.9 2829.14 3233.78C2825.9 3235.66 2822.07 3236.21 2818.43 3235.31C2814.8 3234.42 2811.65 3232.15 2809.65 3228.99C2804.36 3222.01 2802.52 3220.71 2802.93 3214.14C2801.56 3211.23 2799.92 3208.44 2798.05 3205.82C2790.66 3195.02 2781.2 3185.8 2770.21 3178.69C2759.23 3171.57 2746.94 3166.71 2734.06 3164.39C2769.12 3197.54 2778.39 3252.96 2781 3300.92C2782.09 3319.57 2753.08 3319.38 2752 3300.92C2754.07 3256.05 2738.31 3212.18 2708.15 3178.89C2705.75 3180.64 2702.88 3181.61 2699.92 3181.67C2696.96 3181.74 2694.05 3180.9 2691.58 3179.26C2689.11 3177.62 2687.21 3175.26 2686.12 3172.51C2685.03 3169.76 2684.81 3166.73 2685.49 3163.85C2685.49 3163.85 2686.03 3159.01 2686.03 3155.53C2684.85 3153.84 2684.1 3151.88 2683.85 3149.83C2683.59 3147.78 2683.84 3145.7 2684.56 3143.77C2678.99 3125.32 2670.74 3107.79 2660.09 3091.73C2448.85 2711.93 2134.23 2376.57 1710.04 2235.22C1524.34 2174.96 1223.83 2129.03 1042.43 2216.35C976.858 2247.31 923.741 2299.62 891.781 2364.71C1134.68 2405.71 1364.08 2504.77 1560.48 2653.45C1981.93 2967.43 2015.49 3513.4 2110.11 3985.08C2164.29 4255.33 2208.2 4771.4 2425.14 4981.36C2482.53 4968.78 2533.78 4936.68 2570.15 4890.53C2559.83 4888.18 2552.21 4875.49 2562.57 4866.98C2607.5 4828.8 2640.25 4778.27 2656.75 4721.65C2673.24 4665.03 2672.77 4604.82 2655.37 4548.47C2649.57 4530.72 2677.68 4522.98 2683.29 4540.67C2692.59 4570.12 2697.48 4600.8 2697.79 4631.69C2708.74 4580.08 2710.52 4526.95 2703.05 4474.73C2625.8 4303.07 2742.85 4169.95 2913.14 4091.84C2898.29 4026.84 2863.72 3968.03 2814.15 3923.44C2648.08 3975.8 2468.93 3968.5 2307.67 3902.79C2276.69 3891.4 2246.74 3877.39 2218.15 3860.91C2214.9 3858.93 2212.57 3855.76 2211.64 3852.07C2210.72 3848.38 2211.27 3844.48 2213.19 3841.2C2215.12 3837.93 2218.25 3835.53 2221.91 3834.54C2225.58 3833.55 2229.49 3834.03 2232.81 3835.89C2246.7 3843.91 2260.98 3851.23 2275.61 3857.82C2436.26 3934.32 2619.32 3949.54 2790.4 3900.62C3058.65 3815.66 3524.94 3511.04 3600.89 3226.28C3653.06 3015.27 3564.85 2865.32 3441.38 2819.49V2819.49Z" fill="#6C458F"/>
<path d="M4951.67 1420.3C4951.62 1418.08 4951.07 1415.9 4950.04 1413.92C4936.38 1387.56 4915.82 1365.4 4890.56 1349.79C4865.31 1334.17 4836.29 1325.69 4806.6 1325.25C4776.91 1324.8 4747.66 1332.41 4721.94 1347.26C4696.23 1362.11 4675.02 1383.65 4660.57 1409.59C4630.29 1425.21 4620.99 1517.37 4648.59 1522.15C4670.74 1526.36 4692.63 1465.3 4683.29 1427.09C4700.37 1397.73 4726.8 1374.94 4758.35 1362.36C4789.47 1351.69 4823.38 1352.49 4853.96 1364.63C4884.54 1376.76 4909.78 1399.42 4925.12 1428.52C4925.61 1429.28 4926.15 1430.01 4926.75 1430.69C4922.02 1447.22 4921.44 1464.66 4925.06 1481.46C4928.69 1498.27 4936.4 1513.92 4947.53 1527.03C4981.47 1552.34 4985.9 1448.69 4951.67 1420.3V1420.3Z" fill="#AC47F5"/>
<path d="M4366.76 641.854C4365.32 642.657 4363.71 643.125 4362.06 643.222C4360.41 643.32 4358.75 643.044 4357.22 642.417C4355.69 641.79 4354.32 640.826 4353.22 639.598C4352.11 638.369 4351.29 636.907 4350.83 635.321C4344.79 599.581 4326.36 567.11 4298.76 543.613C4271.16 520.115 4236.17 507.093 4199.92 506.835C4163.68 506.576 4128.5 519.097 4100.57 542.198C4072.64 565.299 4053.75 597.503 4047.2 633.153C4046.4 635.921 4044.55 638.266 4042.04 639.688C4039.53 641.111 4036.57 641.499 4033.78 640.77C4030.31 639.699 4026.63 639.423 4023.03 639.962C4019.44 640.501 4016 641.842 4012.99 643.886C4009.98 645.93 4007.47 648.624 4005.64 651.77C4003.81 654.915 4002.71 658.432 4002.42 662.06C4002.18 665.906 4002.87 669.756 4004.45 673.274C4006.02 676.792 4008.43 679.872 4011.47 682.246C4014.51 684.621 4018.08 686.218 4021.87 686.898C4025.67 687.579 4029.57 687.324 4033.24 686.153C4036.03 685.433 4038.99 685.825 4041.49 687.246C4044 688.668 4045.85 691.007 4046.66 693.77C4082.48 858.124 4316.54 848.531 4350.67 691.794C4351.05 690.412 4351.7 689.119 4352.58 687.988C4353.46 686.857 4354.55 685.911 4355.8 685.203C4357.04 684.496 4358.42 684.041 4359.84 683.865C4361.26 683.689 4362.7 683.795 4364.09 684.177C4367.09 685.777 4370.38 686.77 4373.77 687.097C4377.16 687.425 4380.58 687.082 4383.83 686.087C4387.09 685.093 4390.12 683.467 4392.74 681.302C4395.37 679.136 4397.54 676.475 4399.14 673.469C4401.04 668.969 4401.53 664.002 4400.57 659.216C4399.6 654.43 4397.21 650.046 4393.72 646.635C4390.22 643.224 4385.79 640.943 4380.98 640.091C4376.17 639.238 4371.22 639.852 4366.76 641.854V641.854Z" fill="#9B6868"/>
<path d="M3911.1 1640.46C3912.21 1617.91 3904.41 1595.83 3889.38 1578.97C3874.36 1562.12 3853.31 1551.85 3830.78 1550.37C3812.08 1547.9 3793.08 1551.21 3776.31 1559.86C3759.55 1568.5 3745.83 1582.07 3737.01 1598.74C3728.18 1615.41 3724.66 1634.38 3726.93 1653.11C3729.2 1671.83 3737.14 1689.41 3749.69 1703.49C3762.24 1717.57 3778.8 1727.48 3797.14 1731.87C3815.49 1736.27 3834.74 1734.95 3852.31 1728.09C3869.87 1721.22 3884.92 1709.15 3895.43 1693.49C3905.94 1677.83 3911.41 1659.32 3911.1 1640.46V1640.46Z" fill="#F76559"/>
<path d="M1020.28 1910.24C1014.86 1929.52 1013.91 1900.01 1022.8 2060.03C1050.36 2052.62 1078.24 2046.45 1106.36 2041.55C1062.32 2010.02 1031.62 1963.2 1020.28 1910.24ZM1847.59 939.895C1830.14 918.908 1811.57 898.886 1791.95 879.916C1736.11 975.334 1629.95 1004.88 1620.46 1104.5C1621.48 1107.69 1641.94 1173.76 1645.66 1191.16C1835.48 1261.08 1872.26 1543.51 1718.71 1660.83C1676.32 1692.55 1625.04 1710.17 1572.11 1711.21C1603.31 1734.32 1602.74 1772.91 1591.87 1810.36C1584.64 1839.73 1571.36 1867.26 1552.88 1891.2C1534.41 1915.15 1511.14 1934.97 1484.56 1949.41C1457.57 1963.05 1426.78 1967.23 1397.12 1961.28C1367.47 1955.32 1340.67 1939.58 1321.04 1916.58C1326.1 1936.21 1325.74 1956.85 1319.99 1976.29C1314.25 1995.73 1303.35 2013.25 1288.43 2026.98C1435.84 2026.59 1580.42 2067.34 1705.93 2144.64C1701.02 2096.23 1696.37 2048.01 1691.43 1999.6C1694.33 2029.18 1939.41 1884.87 1959.14 1864.92C2026.52 1794.11 2070.55 1704.33 2085.28 1607.7C2125.31 1366.54 1998.34 1120.73 1847.59 939.895V939.895ZM3638.97 3183.51C3707.75 3131.66 3756.12 3057.31 3775.66 2973.42C3776.37 2971 3777.69 2968.8 3779.5 2967.04C3781.31 2965.28 3783.55 2964.02 3785.99 2963.38C3788.43 2962.74 3791 2962.74 3793.44 2963.38C3795.88 2964.02 3798.11 2965.29 3799.92 2967.05C3813.44 2982.01 3831.66 2991.92 3851.58 2995.13C3858.94 2994.74 3865.99 2992.08 3871.77 2987.51C3877.55 2982.94 3881.78 2976.7 3883.86 2969.63C3898.17 2932.66 3869.55 2896.74 3847.98 2869.56C3820.14 2851.48 3786.86 2843.72 3753.9 2847.63C3750.25 2848.5 3746.4 2847.92 3743.17 2846.02C3739.94 2844.11 3737.58 2841.03 3736.57 2837.42C3735.56 2833.8 3736 2829.94 3737.78 2826.64C3739.56 2823.34 3742.55 2820.86 3746.12 2819.72C3788 2813.21 3830.78 2822.93 3865.73 2846.9C3890.01 2856.46 3925.04 2867.2 3936.96 2835.84C3939.84 2821.89 3938.97 2807.41 3934.41 2793.91C3929.86 2780.41 3921.8 2768.36 3911.05 2759C3899.64 2745.61 3887.22 2733.13 3873.89 2721.65C3851.71 2712.09 3827.83 2707.13 3803.68 2707.07C3779.53 2707.01 3755.63 2711.85 3733.4 2721.3C3730.08 2723.1 3726.2 2723.58 3722.54 2722.63C3718.88 2721.69 3715.71 2719.39 3713.68 2716.2C3711.71 2712.89 3711.14 2708.94 3712.08 2705.2C3713.03 2701.47 3715.41 2698.26 3718.71 2696.28C3748.71 2683.11 3781.38 2677.15 3814.1 2678.88C3741.76 2634.81 3655.22 2620.31 3572.46 2638.4C3489.71 2656.49 3417.11 2705.78 3369.77 2776.02C3544.06 2786.89 3674.73 2950.25 3638.97 3183.51V3183.51Z" fill="#FFCEB6"/>
<path d="M3624.22 5187.31C3559.53 5187.31 3539.03 5269.06 3527.98 5318.91C3518.73 5361.4 3511.12 5404.18 3505.13 5447.25C3591.21 5399.96 3672.92 5345.13 3749.31 5283.4C3721.59 5241.05 3674.93 5187.31 3624.22 5187.31V5187.31ZM2290.53 5435.74C2280.19 5419.03 2265.87 5405.14 2248.84 5395.33C2239.51 5390.96 2229.32 5388.76 2219.02 5388.89C2208.73 5389.01 2198.59 5391.47 2189.37 5396.06C2152.37 5416.73 2122.57 5448.22 2103.99 5486.32C2058.22 5578.7 2032 5679.54 2026.96 5782.52C2151.08 5791.79 2275.71 5791.88 2399.84 5782.81C2393.8 5742.29 2385.69 5702.11 2375.52 5662.43C2355.86 5584.83 2337.25 5502.32 2290.53 5435.74V5435.74Z" fill="#FF8684"/>
<path d="M3964.86 4825.46C3923.17 4762.14 3847.57 4756.43 3772.52 4769.27C3462.71 4822.05 3189.55 5021.78 2873.05 5076.53C2735.82 5100.28 2582.84 5103.02 2470.44 5020.73C2212.87 4833.11 2170.16 4284.98 2110.09 3985.46C2015.62 3513.79 1981.9 2967.79 1560.46 2653.84C1285.99 2449.49 921.111 2312.22 577.074 2362.71C440.734 2382.85 304.809 2436.01 210.729 2536.75C-107.971 2877.76 5.5176 3598.02 103.932 4007.58C212.513 4459.11 417.533 4908.32 747.292 5241.84C783.273 5173.83 844.049 5154.55 886.309 5169.53C927.294 5184.03 943.42 5225.52 958.112 5262.69C984.895 5330.97 1007.25 5400.91 1025.04 5472.07C1138.72 5547.89 1261.71 5608.73 1390.97 5653.06C1587.59 5719.89 1791.59 5762.59 1998.51 5780.22C2026.49 5428.73 2203.62 5255.8 2318.45 5425.48C2366.86 5497.28 2385.89 5585.37 2407.27 5668.01C2416.51 5705.13 2423.61 5742.74 2428.56 5780.67C2641.86 5762.69 2851.94 5717.23 3053.6 5645.44C3197.99 5595.53 3338.5 5535.01 3473.96 5464.36C3477.6 5435.39 3481.77 5406.55 3486.71 5377.9C3498.47 5312.66 3512.21 5221.41 3563.74 5180.3C3577.01 5169.74 3592.78 5162.78 3609.53 5160.09C3626.27 5157.39 3643.43 5159.05 3659.35 5164.91C3706.13 5185.8 3745.28 5220.7 3771.37 5264.79C3839.35 5203.15 3945.77 5076.09 3976.93 4962.02C3977.12 4916.23 3973.07 4870.51 3964.86 4825.46V4825.46Z" fill="#FF8684"/>
<path d="M858.748 5193.59C838.714 5195.39 819.619 5202.91 803.74 5215.26C787.861 5227.6 775.869 5244.26 769.193 5263.23C837.046 5330.4 910.413 5391.77 988.523 5446.67C972.349 5386.79 952.868 5327.84 930.169 5270.11C917.261 5237.1 901.326 5194.1 858.748 5193.59Z" fill="#FF8684"/>
<path d="M4926.79 1430.54C4920.31 1419.27 4912.59 1408.75 4903.78 1399.18C4885.98 1379.24 4862.64 1365.06 4836.73 1358.48C4810.83 1351.89 4783.55 1353.19 4758.39 1362.22C4726.63 1374.44 4700.1 1397.32 4683.33 1426.94C4686.81 1442.94 4686.52 1459.52 4682.46 1475.38C4678.41 1491.23 4670.71 1505.93 4659.97 1518.28C4666.87 1550.7 4684.45 1579.86 4709.91 1601.08C4735.36 1622.3 4767.21 1634.35 4800.33 1635.3C4833.46 1636.26 4865.95 1626.05 4892.58 1606.33C4919.21 1586.6 4938.44 1558.5 4947.18 1526.54C4936.2 1513.42 4928.59 1497.81 4925.04 1481.08C4921.48 1464.34 4922.08 1446.99 4926.79 1430.54V1430.54Z" fill="#FFCEB6"/>
<path d="M2844.67 840.503C2831.61 845.103 2817.3 844.579 2804.61 839.037C2733.22 948.001 2737.3 934.807 2744.41 947.618C2768.4 989.725 2793.8 1031.02 2820.55 1071.43C2844.51 1021.17 2893.05 945.069 2893.05 938.567C2892.92 935.348 2896.4 945.579 2844.67 840.503ZM2825.9 814.402C2831.54 814.412 2837.12 813.144 2842.2 810.693C2847.28 808.242 2851.74 804.673 2855.25 800.251C2837.41 802.398 2819.37 802.087 2801.61 799.327C2804.25 803.523 2807.8 807.061 2812.01 809.674C2816.22 812.286 2820.97 813.903 2825.9 814.402V814.402Z" fill="#F76559"/>
<path d="M2667.67 645.936C2671.37 644.965 2675.3 645.482 2678.62 647.377C2681.94 649.272 2684.38 652.394 2685.42 656.071C2720.13 814.911 2948.86 809.047 2982.52 654.158C2983.56 650.474 2986.01 647.347 2989.33 645.452C2992.66 643.556 2996.6 643.043 3000.3 644.024C3005.52 646.901 3011.67 647.601 3017.4 645.971C3023.14 644.342 3028 640.516 3030.93 635.323C3032.53 631.521 3032.97 627.325 3032.18 623.274C3031.38 619.222 3029.4 615.499 3026.48 612.58C3023.56 609.661 3019.84 607.679 3015.79 606.888C3011.74 606.097 3007.54 606.532 3003.74 608.138C3001.82 609.226 2999.67 609.863 2997.47 610.002C2995.27 610.141 2993.06 609.778 2991.02 608.94C2988.97 608.103 2987.15 606.812 2985.67 605.166C2984.2 603.52 2983.12 601.561 2982.52 599.438C2939.9 428.933 2723.48 434.988 2686.32 595.996C2686.32 596.346 2686.32 596.697 2685.96 597.239C2684.93 600.922 2682.49 604.05 2679.17 605.952C2675.85 607.853 2671.91 608.375 2668.21 607.405C2665.22 606.466 2662.05 606.221 2658.94 606.689C2655.83 607.157 2652.88 608.326 2650.29 610.108C2647.7 611.889 2645.56 614.236 2644.01 616.97C2642.47 619.705 2641.57 622.755 2641.38 625.89C2641.22 629.139 2641.86 632.377 2643.23 635.326C2644.6 638.275 2646.67 640.846 2649.26 642.818C2651.85 644.79 2654.87 646.105 2658.08 646.648C2661.29 647.191 2664.58 646.947 2667.67 645.936V645.936Z" fill="#FFCEB6"/>
<path d="M1925.36 1255.68C1946.48 1255.68 1963.61 1238.56 1963.61 1217.43C1963.61 1196.31 1946.48 1179.19 1925.36 1179.19C1904.24 1179.19 1887.12 1196.31 1887.12 1217.43C1887.12 1238.56 1904.24 1255.68 1925.36 1255.68Z" fill="#1D1D1B"/>
<path d="M1821.31 1029.48C1823.93 1026.71 1825.39 1023.05 1825.39 1019.24C1825.39 1015.43 1823.93 1011.76 1821.31 1008.99C1818.58 1006.3 1814.9 1004.79 1811.06 1004.79C1807.23 1004.79 1803.55 1006.3 1800.82 1008.99C1771.35 1042.63 1754.67 1085.58 1753.71 1130.29C1752.68 1137.76 1753.61 1145.37 1756.42 1152.37C1757.48 1154.16 1758.88 1155.72 1760.54 1156.96C1762.21 1158.2 1764.1 1159.09 1766.12 1159.58C1768.13 1160.08 1770.23 1160.16 1772.28 1159.83C1774.33 1159.5 1776.29 1158.76 1778.05 1157.66C1779.8 1156.56 1781.32 1155.11 1782.51 1153.42C1783.71 1151.72 1784.54 1149.79 1784.98 1147.77C1785.41 1145.74 1785.44 1143.64 1785.05 1141.6C1784.66 1139.56 1783.87 1137.62 1782.72 1135.9C1782.05 1096.89 1795.79 1059 1821.31 1029.48V1029.48ZM1783.07 1141.03C1783.07 1143 1782.88 1142.65 1782.88 1140.65L1783.07 1141.03ZM1920.84 1515.66C1938.79 1533.6 1961.95 1545.42 1987.01 1549.42C2012.07 1553.43 2037.75 1549.42 2060.4 1537.97C2062.12 1537.06 2063.64 1535.81 2064.87 1534.3C2066.09 1532.79 2067 1531.04 2067.54 1529.17C2068.07 1527.3 2068.23 1525.34 2067.99 1523.41C2067.75 1521.47 2067.12 1519.61 2066.15 1517.93C2065.17 1516.24 2063.87 1514.77 2062.31 1513.6C2060.75 1512.44 2058.97 1511.6 2057.08 1511.13C2055.19 1510.67 2053.23 1510.59 2051.3 1510.9C2049.38 1511.21 2047.54 1511.91 2045.9 1512.95C2028.82 1521.31 2009.54 1524.08 1990.8 1520.86C1972.05 1517.64 1954.8 1508.59 1941.49 1495.01C1938.75 1492.27 1935.04 1490.73 1931.17 1490.73C1927.29 1490.73 1923.58 1492.27 1920.84 1495.01C1918.1 1497.75 1916.56 1501.46 1916.56 1505.33C1916.56 1509.21 1918.1 1512.92 1920.84 1515.66V1515.66Z" fill="#1D1D1B"/>
<path d="M5519.3 3753.28C5498.11 3752.39 3347.71 3651.59 3300.92 3649.39C3353.55 3608.67 3403.27 3564.34 3449.72 3516.71C3464.86 3517.35 5481.66 3611.68 5511.87 3612.32C5515.72 3612.32 5519.41 3610.79 5522.13 3608.07C5524.85 3605.36 5526.37 3601.67 5526.37 3597.82C5526.37 3593.98 5524.85 3590.29 5522.13 3587.57C5519.41 3584.85 5515.72 3583.32 5511.87 3583.32C5493.23 3582.43 3489.63 3489.43 3476.21 3488.7C3553.05 3403.7 3607.07 3328.04 3631.58 3221.88C3648.24 3221.88 3757.72 3138.26 3797.62 3002.52C3812.31 3014.94 3830.47 3022.54 3849.63 3024.29C3860.8 3023.61 3871.67 3020.35 3881.36 3014.76C3891.06 3009.17 3899.33 3001.4 3905.51 2992.06C3911.69 2982.73 3915.62 2972.09 3916.98 2960.98C3918.34 2949.87 3917.11 2938.59 3913.37 2928.04C3960.33 2934.2 4007.4 2939.63 4054.59 2944.33C4003.85 2993.19 3952.68 3041.72 3901.07 3089.91C3858.97 3087.36 3816.74 3084.11 3774.7 3080.35C3756.22 3078.72 3756.22 3107.72 3774.7 3109.35C3807.15 3112.25 3839.78 3114.61 3872.42 3116.81C3858.11 3130.03 3843.93 3143.61 3829.62 3156.87C3815.85 3169.62 3836.31 3190.01 3850.11 3177.33C3870.95 3158.21 3891.25 3138.73 3911.74 3119.52C3986.77 3124.04 4061.85 3126.21 4136.87 3126.75C4127.09 3137.27 4116.96 3147.59 4107.33 3158.11C4094.58 3171.91 4115.11 3192.37 4127.82 3178.6C4143.76 3161.2 4160.08 3144.15 4176.39 3127.13C4218.46 3127.13 4260.58 3126.53 4302.76 3125.32C4306.6 3125.32 4310.29 3123.79 4313.01 3121.07C4315.73 3118.35 4317.26 3114.66 4317.26 3110.82C4317.26 3106.97 4315.73 3103.28 4313.01 3100.56C4310.29 3097.84 4306.6 3096.31 4302.76 3096.31C4269.93 3097.21 4237.14 3097.59 4204.15 3097.75C4248.11 3052.06 4292.94 3007.22 4338.61 2963.26C4363.31 2964.15 4478.23 2965.97 4478.23 2965.97C4478.72 2969.07 4480.38 2971.87 4482.89 2973.76C4485.39 2975.66 4488.53 2976.51 4491.65 2976.13C4495.16 2976.06 4498.56 2974.94 4501.41 2972.9C4504.27 2970.87 4506.45 2968.02 4507.66 2964.73C4508.87 2961.44 4509.06 2957.86 4508.21 2954.46C4507.35 2951.06 4505.49 2947.99 4502.87 2945.67C4490.38 2932.09 4467.53 2936.81 4451.02 2936.61C4423.48 2936.23 4395.91 2935.34 4368.38 2934.61C4406.28 2898.49 4444.71 2863.03 4483.65 2828.22C4497.61 2815.7 4477.28 2795.4 4463.19 2807.73C4417.15 2848.89 4371.95 2890.88 4327.58 2933.71C4323.79 2933.52 4265.53 2932.89 4120.01 2920.97C4143.6 2897.96 4167.53 2875.1 4190.89 2851.9C4193.44 2849.15 4194.83 2845.52 4194.76 2841.77C4194.68 2838.02 4193.16 2834.45 4190.51 2831.79C4187.86 2829.14 4184.28 2827.62 4180.53 2827.55C4176.78 2827.48 4173.15 2828.86 4170.4 2831.41C4141.24 2860.41 4111.31 2888.78 4081.77 2917.72C4078.58 2917.36 4012.87 2912.81 3901.07 2897.57C3898.78 2893.33 3896.34 2889.16 3893.77 2885.08C3904.88 2887 3916.31 2886 3926.91 2882.17C3937.52 2878.34 3946.95 2871.82 3954.27 2863.24C3961.59 2854.66 3966.55 2844.32 3968.66 2833.24C3970.77 2822.16 3969.96 2810.72 3966.31 2800.05C3952.25 2738.38 3842.01 2631.87 3701.79 2608.29V2569.44C3806.38 2574.28 5399.21 2649.11 5400.84 2649.11C5404.68 2649.11 5408.37 2647.59 5411.09 2644.87C5413.81 2642.15 5415.34 2638.46 5415.34 2634.61C5415.34 2630.77 5413.81 2627.08 5411.09 2624.36C5408.37 2621.64 5404.68 2620.11 5400.84 2620.11C5372.73 2618.84 3795.36 2544.96 3701.79 2540.6C3701.79 2428.03 3701.78 2225.66 3701.59 2176.16C3844.24 2181.61 5263.22 2213.32 5282.09 2212.97C5285.9 2212.86 5289.52 2211.3 5292.22 2208.6C5294.92 2205.91 5296.48 2202.28 5296.59 2198.47C5327.66 1819.22 5425.57 508.375 5400.46 125.457C5400.39 121.632 5398.84 117.981 5396.14 115.276C5393.43 112.57 5389.78 111.022 5385.96 110.956C5358.39 109.873 1831.05 -0.588889 1817.63 0.0166406C1813.81 0.0979522 1810.17 1.65183 1807.47 4.35384C1804.76 7.05585 1803.21 10.6971 1803.13 14.5175C1803.13 44.2841 1802.01 325.824 1800.87 642.898C1749.68 564.626 1627.84 533.871 1558.65 597.292C1553.24 564.67 1537.96 534.489 1514.87 510.81C1491.79 487.131 1462 471.088 1429.53 464.841C1397.06 458.593 1363.45 462.44 1333.23 475.863C1303 489.287 1277.62 511.643 1260.48 539.926C1224.22 518.397 1182.49 507.857 1140.36 509.586C1128.87 510.343 1117.8 514.221 1108.35 520.803C1098.9 527.385 1091.42 536.421 1086.72 546.938C834.95 566.41 603.287 805.818 630.982 1225.99C648.256 1490.51 749.826 1540.68 793.519 1688.58C806.596 1734.01 810.465 1781.59 804.899 1828.53C799.333 1875.47 784.445 1920.83 761.108 1961.93C748.742 1983.51 733.381 2008.34 742.241 2031.54C767.737 2097.73 974.637 2067.36 1020.5 1910.27C1031.81 1963.27 1062.49 2010.14 1106.55 2041.7C1049.42 2051.87 993.257 2066.85 938.655 2086.48C935.01 2087.57 931.924 2090.03 930.038 2093.33C928.151 2096.64 927.608 2100.54 928.521 2104.23C941.208 2145.09 956.157 2185.22 973.298 2224.42C924.867 2259.28 886.41 2306.22 861.753 2360.56C866.852 2361.3 887.249 2364.01 892.412 2364.74C991.623 2163.73 1236.99 2151.66 1459.25 2179.48C1994.41 2246.09 2397.66 2618.65 2660.75 3091.82C2667.13 3103.52 2691.95 3146.67 2686.25 3163.94C2685.57 3166.83 2685.79 3169.85 2686.88 3172.6C2687.97 3175.36 2689.87 3177.71 2692.34 3179.35C2694.81 3180.99 2697.72 3181.83 2700.68 3181.77C2703.64 3181.7 2706.51 3180.73 2708.91 3178.99C2739.18 3212.24 2755.03 3256.15 2752.98 3301.08C2754.07 3319.6 2783.07 3319.76 2781.98 3301.08C2779.15 3254.23 2770.73 3197.88 2735.01 3164.58C2797.47 3176.44 2802.99 3246.36 2828.77 3235.11C2832.01 3233.78 2834.65 3231.31 2836.18 3228.17C2837.71 3225.02 2838.04 3221.43 2837.09 3218.06C2830.22 3200.11 2819.5 3183.88 2805.69 3170.52C2791.89 3157.15 2775.32 3146.96 2757.16 3140.68C2929.26 2998.31 3220.1 2737.49 3442.36 2819.62C3621.28 2886.55 3694.14 3163.59 3511.11 3404.24C3373.75 3584.34 3125.48 3754.11 2926.48 3847.46C2833.89 3896.32 2731.78 3924.46 2627.22 3929.94C2490 3934.78 2354 3902.59 2233.5 3836.75C2230.2 3835.02 2226.36 3834.63 2222.77 3835.65C2219.19 3836.68 2216.13 3839.04 2214.24 3842.26C2212.35 3845.47 2211.77 3849.29 2212.61 3852.92C2213.45 3856.55 2215.66 3859.72 2218.78 3861.77C2316.62 3914.69 2424.29 3946.96 2535.12 3956.58C2629.6 3966.03 2725 3955.01 2814.84 3924.3C2976.27 3863.77 3128.21 3780.45 3266.03 3676.86C3306.6 3678.68 5519.04 3782.35 5520.29 3782.38C5538.1 3782.64 5538.1 3754.02 5519.3 3753.28ZM4092.83 2947.51C4160.65 2953.73 4215.75 2957.81 4298.9 2961.47C4253.16 3006.13 4208.26 3051.64 4164.22 3097.97C4090.09 3097.78 4015.77 3095.42 3941.61 3091.6C3992.41 3044.13 4042.82 2996.1 4092.83 2947.51ZM1378.62 2142.67C1242.5 2132.92 1107.73 2141.78 996.181 2209.12C983.433 2176.29 971.705 2143.11 960.455 2109.59C1022.45 2087.78 1086.53 2072.42 1151.67 2063.73C1428.53 2026.41 1659.65 2122.43 1746.43 2216.35C1627.57 2175.85 1503.91 2151.07 1378.62 2142.67ZM3344.71 2761.46C3343.26 2763.49 3342.47 2765.91 3342.43 2768.41C3342.4 2770.9 3343.13 2773.35 3344.52 2775.42C3133.99 2778.6 2906.47 2978.08 2744.16 3112.76C2707.41 3143.35 2724.17 3130.77 2711.14 3135.07C2702.22 3107.39 2689.61 3081.05 2673.63 3056.76C2469.98 2699.31 2175.4 2385.9 1796.28 2235.16C1795.9 2233.37 1795.23 2231.66 1794.3 2230.09C1699.3 2090.15 1459.67 2029.66 1288.91 2027.04C1303.82 2013.31 1314.72 1995.79 1320.47 1976.35C1326.22 1956.91 1326.59 1936.28 1321.54 1916.65C1341.17 1939.65 1367.96 1955.39 1397.61 1961.35C1427.26 1967.3 1458.05 1963.12 1485.03 1949.47C1511.58 1935.02 1534.82 1915.19 1553.26 1891.25C1571.71 1867.31 1584.95 1839.78 1592.15 1810.42C1603.18 1772.18 1603.56 1735.24 1572.42 1711.28C1792.07 1705.22 1875.19 1460.27 1770.37 1294.16C1741.89 1246.68 1698.03 1210.36 1646.07 1191.22C1631.67 1140.74 1636.23 1154.16 1620.9 1104.57C1630.46 1005.01 1735.06 977.438 1792.36 879.979C1805.36 893.333 1813.61 901.205 1829.42 918.861L1832.8 29.0821C2149.62 21.3695 5266.32 143.814 5372.28 140.627C5393.6 487.213 5317.15 1553.62 5290.7 1902.4C5265.52 1901.64 2729.78 1820.88 2012.74 1798.35C2006.36 1808.03 1999.65 1817.49 1992.6 1826.71C2678.57 1848.64 5250.13 1930.73 5288.72 1931.05C5265.93 2219.83 5268.29 2178.04 5268.23 2184.1C4838.33 2191.46 2178.08 2073.89 1825.18 2066.18C1825.18 2038.55 1825.44 1992.43 1825.6 1947.5C1818.4 1951.48 1811.19 1955.37 1804.09 1959.13C1799.05 1997.94 1796.35 2037.02 1795.99 2076.16C1796.76 2079.34 1794.27 2093.21 1810.49 2094.29C1834.97 2095.56 3049.66 2150.29 3185.43 2155.93L3219.27 2517.2C3093.74 2511.4 2263.97 2472.81 2262.41 2472.78C2258.83 2473.09 2255.51 2474.72 2253.07 2477.36C2250.64 2480 2249.28 2483.45 2249.26 2487.03C2249.23 2490.62 2250.55 2494.09 2252.95 2496.75C2255.34 2499.42 2258.65 2501.1 2262.22 2501.46C2289.47 2502.61 3079.94 2539.71 3222.01 2546.24L3229.31 2624C3229.35 2627.17 3230.41 2630.24 3232.33 2632.75C3234.26 2635.27 3236.94 2637.1 3239.99 2637.96C3307.06 2648.58 3374.48 2656.91 3442.24 2662.95C3403.5 2688.97 3370.34 2722.46 3344.71 2761.46ZM3214.75 2156.95C3367.53 2163.11 3520.4 2169.15 3673.36 2175.08C3673.96 2272.67 3673.36 2528.84 3673.36 2604.62C3609.22 2598.69 3544.67 2610.12 3486.47 2637.71C3409.77 2632.13 3333.33 2623.34 3257.36 2611.38C3255.35 2590.38 3225.97 2277.54 3214.75 2156.95ZM3370.27 2775.99C3417.62 2705.76 3490.21 2656.47 3572.95 2638.38C3655.7 2620.28 3742.23 2634.76 3814.57 2678.82C3781.87 2677.1 3749.21 2683.06 3719.22 2696.22C3715.97 2698.2 3713.64 2701.37 3712.71 2705.06C3711.79 2708.75 3712.34 2712.65 3714.27 2715.93C3716.19 2719.2 3719.32 2721.6 3722.99 2722.59C3726.65 2723.58 3730.56 2723.1 3733.88 2721.24C3756.1 2711.79 3780.01 2706.95 3804.16 2707.01C3828.3 2707.07 3852.19 2712.03 3874.36 2721.59C3906.49 2750.27 3952.73 2795.72 3937.46 2835.81C3925.51 2867.17 3890.52 2856.46 3866.23 2846.87C3831.27 2822.91 3788.48 2813.17 3746.59 2819.65C3743.02 2820.79 3740.03 2823.28 3738.25 2826.58C3736.47 2829.88 3736.04 2833.74 3737.04 2837.35C3738.05 2840.97 3740.42 2844.05 3743.65 2845.95C3746.88 2847.86 3750.72 2848.44 3754.37 2847.57C3786.92 2844.01 3819.74 2851.28 3847.75 2868.25C3870.06 2890.56 3897.56 2935.4 3884.37 2969.57C3882.3 2976.65 3878.09 2982.9 3872.3 2987.47C3866.51 2992.04 3859.45 2994.7 3852.08 2995.06C3832.13 2991.95 3813.87 2982.02 3800.42 2966.95C3798.6 2965.22 3796.36 2963.98 3793.92 2963.36C3791.48 2962.73 3788.93 2962.73 3786.49 2963.37C3784.05 2964.01 3781.82 2965.26 3780.01 2967C3778.19 2968.74 3776.85 2970.92 3776.11 2973.33C3756.45 3057.15 3708.11 3131.47 3639.45 3183.42C3671.16 2976.01 3565.03 2787.97 3370.27 2775.86V2775.99Z" fill="#1D1D1B"/>
<path d="M3245.71 1752.91C3276.08 1749.79 3304.25 1735.62 3324.87 1713.11C3345.49 1690.59 3357.13 1661.28 3357.57 1630.75C3358.56 1604.36 3350.43 1578.44 3334.55 1557.34C3318.67 1536.24 3296.01 1521.26 3270.38 1514.9C3247.48 1508.45 3223.2 1508.81 3200.51 1515.95C3177.82 1523.08 3157.7 1536.68 3142.62 1555.07C3127.54 1573.46 3118.14 1595.85 3115.59 1619.5C3113.03 1643.14 3117.43 1667.02 3128.23 1688.21C3139.68 1709.01 3156.8 1726.13 3177.6 1737.58C3198.39 1749.04 3222.01 1754.35 3245.71 1752.91V1752.91ZM3248.45 1540.46C3270.97 1541.95 3292.01 1552.23 3307.03 1569.08C3322.05 1585.93 3329.84 1608.01 3328.73 1630.56C3329.04 1649.42 3323.57 1667.92 3313.06 1683.59C3302.55 1699.25 3287.5 1711.32 3269.93 1718.18C3252.36 1725.04 3233.11 1726.36 3214.76 1721.96C3196.42 1717.56 3179.86 1707.66 3167.31 1693.57C3154.77 1679.49 3146.83 1661.9 3144.56 1643.18C3142.3 1624.45 3145.82 1605.48 3154.65 1588.81C3163.49 1572.14 3177.21 1558.58 3193.97 1549.94C3210.74 1541.29 3229.75 1537.99 3248.45 1540.46V1540.46ZM3546.82 1762.69C3577.19 1759.57 3605.35 1745.41 3625.97 1722.89C3646.58 1700.37 3658.21 1671.06 3658.65 1640.54C3659.67 1614.14 3651.55 1588.2 3635.67 1567.09C3619.78 1545.99 3597.1 1531.01 3571.45 1524.69C3548.56 1518.26 3524.29 1518.64 3501.62 1525.78C3478.94 1532.92 3458.84 1546.52 3443.76 1564.9C3428.69 1583.29 3419.29 1605.67 3416.73 1629.3C3414.17 1652.94 3418.55 1676.81 3429.34 1698C3440.79 1718.8 3457.91 1735.92 3478.7 1747.37C3499.5 1758.82 3523.12 1764.14 3546.82 1762.69V1762.69ZM3549.52 1550.34C3572.05 1551.82 3593.1 1562.09 3608.13 1578.95C3623.15 1595.8 3630.95 1617.89 3629.84 1640.44C3630.15 1659.3 3624.68 1677.8 3614.18 1693.46C3603.67 1709.13 3588.62 1721.2 3571.05 1728.06C3553.48 1734.92 3534.23 1736.24 3515.89 1731.85C3497.54 1727.45 3480.99 1717.55 3468.43 1703.47C3455.88 1689.39 3447.94 1671.81 3445.67 1653.08C3443.41 1634.36 3446.92 1615.39 3455.75 1598.72C3464.58 1582.05 3478.29 1568.48 3495.05 1559.83C3511.82 1551.19 3530.82 1547.87 3549.52 1550.34V1550.34ZM3828.13 1762.69C3858.51 1759.58 3886.68 1745.42 3907.31 1722.9C3927.93 1700.38 3939.56 1671.07 3940 1640.54C3940.98 1614.15 3932.85 1588.22 3916.97 1567.12C3901.09 1546.03 3878.43 1531.04 3852.8 1524.69C3829.91 1518.23 3805.62 1518.59 3782.93 1525.72C3760.24 1532.85 3740.12 1546.45 3725.04 1564.84C3709.95 1583.24 3700.56 1605.63 3698.01 1629.28C3695.47 1652.93 3699.87 1676.81 3710.69 1698C3722.12 1718.8 3739.23 1735.93 3760.03 1747.38C3780.82 1758.84 3804.44 1764.15 3828.13 1762.69V1762.69ZM3830.75 1550.34C3853.28 1551.82 3874.32 1562.09 3889.35 1578.95C3904.37 1595.8 3912.17 1617.89 3911.06 1640.44C3911.37 1659.3 3905.9 1677.8 3895.4 1693.46C3884.89 1709.13 3869.84 1721.2 3852.27 1728.06C3834.7 1734.92 3815.45 1736.24 3797.11 1731.85C3778.76 1727.45 3762.21 1717.55 3749.66 1703.47C3737.1 1689.39 3729.16 1671.81 3726.89 1653.08C3724.63 1634.36 3728.14 1615.39 3736.97 1598.72C3745.8 1582.05 3759.51 1568.48 3776.28 1559.83C3793.04 1551.19 3812.05 1547.87 3830.75 1550.34V1550.34ZM3041.77 2817.88C3045.95 2820.52 3048.15 2820.14 3062.81 2818.96C3066.65 2818.96 3070.34 2817.43 3073.06 2814.71C3075.78 2811.99 3077.31 2808.31 3077.31 2804.46C3077.31 2800.61 3075.78 2796.93 3073.06 2794.21C3070.34 2791.49 3066.65 2789.96 3062.81 2789.96C3012.07 2787.44 2961.3 2784.7 2910.53 2782.18C2920.51 2772.4 2930.13 2762.23 2940.27 2752.64C2942.81 2749.89 2944.2 2746.26 2944.13 2742.51C2944.06 2738.76 2942.53 2735.18 2939.88 2732.53C2937.23 2729.88 2933.65 2728.36 2929.9 2728.28C2926.16 2728.21 2922.52 2729.6 2919.77 2732.15C2915.25 2736.67 2910.53 2741.2 2906.01 2745.75L2905.81 2746.11C2894.21 2757.36 2883 2768.96 2871.55 2780.37C2774.56 2775.46 2677.65 2770.51 2580.8 2765.51C2562.13 2764.59 2562.13 2793.59 2580.8 2794.52C2668.53 2799.04 2756.27 2803.51 2844.02 2807.93C2810.02 2842.35 2776.55 2877.27 2743.6 2912.69C2718.93 2911.25 2694.34 2909.74 2669.82 2908.16C2651.14 2907.08 2651.33 2936.08 2669.82 2937.17C2685.75 2938.06 2701.69 2939.17 2717.84 2940.07C2716.76 2941.34 2715.49 2942.42 2714.4 2943.7C2701.91 2957.47 2722.21 2977.96 2734.9 2964.16C2741.59 2956.73 2748.66 2949.66 2755.55 2942.23L2882.26 2949.85C2900.94 2950.93 2900.75 2921.93 2882.26 2920.85L2781.65 2914.86C2815.11 2879.29 2849.11 2844.23 2883.63 2809.69C2935.74 2812.46 2988.8 2815.17 3041.77 2817.88V2817.88ZM4544.89 4953.07C4534.34 4331.61 4261.25 3912.04 3645.23 3941.23C3463.57 3949.58 3184.71 3991.71 3002.64 4056.5C2896.35 4094.33 2785.03 4147.43 2721.13 4239.79C2692.32 4282.49 2677.93 4333.28 2680.04 4384.74C2682.16 4436.2 2700.68 4485.63 2732.89 4525.82C2744.49 4540.32 2764.28 4520.37 2753.38 4505.33C2666.09 4384.83 2690.02 4228.51 2926.5 4118.52C3089.03 4042.55 3316.97 4004.01 3495.86 3983.65C3669.16 3964.08 3845.34 3958.44 4011.96 4018.71C4364.54 4145.68 4493.61 4507.91 4512.79 4885.57C4519.97 5030.36 4512.56 5175.51 4490.68 5318.81C4487.49 5337.1 4515.34 5344.91 4518.6 5326.59C4538.07 5203.07 4546.87 5078.1 4544.89 4953.07V4953.07Z" fill="#1D1D1B"/>
<path d="M3975.25 4755.99C3978.19 4734.65 3985.5 4714.15 3996.73 4695.77C4007.97 4677.39 4022.87 4661.54 4040.52 4649.19C4042.16 4648.24 4043.6 4646.98 4044.76 4645.47C4045.91 4643.96 4046.76 4642.24 4047.25 4640.41C4047.74 4638.58 4047.86 4636.67 4047.61 4634.78C4047.36 4632.9 4046.75 4631.09 4045.8 4629.45C4044.85 4627.8 4043.58 4626.36 4042.08 4625.21C4040.57 4624.06 4038.85 4623.21 4037.02 4622.72C4035.18 4622.23 4033.27 4622.11 4031.39 4622.36C4029.51 4622.6 4027.7 4623.22 4026.05 4624.17C3985.95 4651.62 3958.26 4693.75 3948.99 4741.45L3948.45 4741.8C3946.99 4726.07 3947.79 4710.21 3950.81 4694.7C3956.21 4662.87 3968.4 4632.56 3986.53 4605.85C3997.05 4590.29 3971.84 4575.76 3961.52 4591.19C3938.52 4625.44 3924.38 4664.86 3920.37 4705.92C3917.18 4735.62 3917.18 4786.9 3956.61 4791.08C4000.81 4940.19 3945.74 5122.04 4034.21 5481.73C4035.35 5485.3 4037.84 5488.29 4041.14 5490.07C4044.44 5491.85 4048.3 5492.29 4051.91 5491.28C4055.53 5490.27 4058.61 5487.91 4060.51 5484.68C4062.42 5481.45 4063 5477.6 4062.13 5473.95C3969.42 5097.28 4037.78 4922.48 3975.25 4755.99V4755.99ZM2655.32 4548.89C2672.79 4605.23 2673.31 4665.46 2656.81 4722.09C2640.3 4778.71 2607.51 4829.24 2562.52 4867.37C2548.18 4879.42 2568.89 4899.43 2583.01 4887.86C2631.56 4846.01 2666.89 4790.96 2684.72 4729.39C2702.55 4667.82 2702.1 4602.4 2683.43 4541.09C2677.63 4523.49 2649.56 4531.27 2655.32 4548.89V4548.89ZM3771.57 5264.28C3745.49 5220.17 3706.34 5185.27 3659.55 5164.4C3643.63 5158.55 3626.47 5156.89 3609.72 5159.59C3592.98 5162.3 3577.21 5169.26 3563.94 5179.83C3540.06 5201.25 3522.66 5228.94 3513.71 5259.76C3485.31 5342.3 3446.34 5586.36 3465.49 5823.69C3465.62 5827.13 3466.96 5830.41 3469.27 5832.95C3471.58 5835.49 3474.72 5837.14 3478.12 5837.59C3481.53 5838.05 3484.99 5837.28 3487.88 5835.43C3490.78 5833.58 3492.93 5830.77 3493.95 5827.49C3498.76 5815.28 3503.96 5805.62 3493.09 5799.41C3482.05 5638.25 3493.85 5476.34 3528.15 5318.49C3539.05 5268.65 3559.54 5186.9 3624.43 5186.9C3674.91 5186.9 3721.69 5240.54 3749.48 5282.96C3798.89 5363.79 3825.45 5456.51 3826.36 5551.24C3827.09 5569.91 3856.09 5569.91 3855.36 5551.24C3854.37 5449.7 3825.37 5350.4 3771.57 5264.28V5264.28ZM2407.25 5667.95C2385.9 5585.47 2367 5497.22 2318.43 5425.42C2253.54 5329.33 2172.4 5344.82 2105.98 5430.67C1990.64 5579.35 1988.76 5855.18 1998.04 6040.03C1998.93 6058.51 2027.93 6058.7 2027.04 6040.03C2018.18 5865.44 2016.71 5640.67 2103.97 5486.32C2122.55 5448.22 2152.35 5416.73 2189.35 5396.06C2232.86 5376.21 2263.67 5397.47 2290.51 5435.74C2337.29 5502.29 2356.03 5584.83 2375.98 5662.24C2410.88 5796.96 2407.09 5881.06 2430.74 6000.06C2434.34 6018.36 2462.26 6010.55 2458.65 5992.26C2437.11 5884.22 2435.39 5776.62 2407.25 5667.95V5667.95ZM958.087 5262.72C943.363 5225.56 927.269 5184.06 886.284 5169.56C867.146 5164.21 846.909 5164.21 827.767 5169.54C808.626 5174.88 791.311 5185.36 777.703 5199.84C748.911 5233.39 728.418 5273.25 717.883 5316.2C668.867 5469.17 661.441 5637.8 654.812 5796.38C654.079 5815.06 683.081 5815.06 683.814 5796.38C690.188 5643.41 706.282 5192.13 858.557 5194.2C900.785 5194.74 916.752 5237.54 929.978 5270.88C1002.54 5455.46 1042.45 5651.25 1047.93 5849.51C1047.93 5853.36 1049.46 5857.04 1052.18 5859.76C1054.9 5862.48 1058.58 5864.01 1062.43 5864.01C1066.28 5864.01 1069.96 5862.48 1072.68 5859.76C1075.4 5857.04 1076.93 5853.36 1076.93 5849.51C1071.41 5648.53 1031.21 5450.01 958.087 5262.72V5262.72ZM4863.47 1336.56C4899.18 1351.38 4929 1377.57 4948.31 1411.07C4954.18 1404.13 4958.13 1395.76 4959.77 1386.82C4961.41 1377.87 4960.68 1368.65 4957.64 1360.08C4953.12 1349.35 4944.79 1340.67 4934.25 1335.72C4923.71 1330.76 4911.71 1329.88 4900.57 1333.24C4901 1324.57 4898.77 1315.98 4894.19 1308.61C4885.87 1297.74 4866.82 1292.93 4841.45 1312.94C4842.74 1308.08 4842.91 1302.99 4841.93 1298.06C4840.95 1293.12 4838.86 1288.48 4835.81 1284.48C4820.29 1270.36 4780.73 1287.67 4763.88 1304.43C4764.42 1303.05 4764.67 1301.56 4764.59 1300.07C4764.51 1298.58 4764.11 1297.12 4763.42 1295.8C4762.74 1294.47 4761.77 1293.31 4760.6 1292.39C4759.42 1291.48 4758.06 1290.82 4756.61 1290.47C4734.08 1284.1 4665.17 1335.86 4664.63 1402.85C4685.06 1370.58 4716.01 1346.36 4752.24 1334.28C4788.47 1322.2 4827.76 1323 4863.47 1336.56V1336.56ZM4712.56 1464.55C4712.56 1467.31 4713.38 1470.01 4714.92 1472.3C4716.45 1474.6 4718.63 1476.39 4721.18 1477.44C4723.73 1478.5 4726.54 1478.78 4729.25 1478.24C4731.95 1477.7 4734.44 1476.37 4736.39 1474.42C4738.35 1472.47 4739.68 1469.98 4740.21 1467.27C4740.75 1464.56 4740.48 1461.76 4739.42 1459.21C4738.36 1456.66 4736.57 1454.48 4734.28 1452.94C4731.98 1451.41 4729.28 1450.59 4726.52 1450.59C4722.82 1450.59 4719.27 1452.06 4716.65 1454.68C4714.03 1457.3 4712.56 1460.85 4712.56 1464.55V1464.55ZM4881.16 1472.9C4881.16 1469.2 4879.69 1465.65 4877.07 1463.03C4874.45 1460.41 4870.9 1458.94 4867.2 1458.94C4864.44 1458.94 4861.74 1459.76 4859.44 1461.29C4857.15 1462.83 4855.36 1465.01 4854.3 1467.56C4853.24 1470.11 4852.97 1472.91 4853.51 1475.62C4854.05 1478.33 4855.37 1480.82 4857.33 1482.77C4859.28 1484.72 4861.77 1486.05 4864.47 1486.59C4867.18 1487.13 4869.99 1486.85 4872.54 1485.79C4875.09 1484.74 4877.27 1482.95 4878.8 1480.65C4880.34 1478.36 4881.16 1475.66 4881.16 1472.9V1472.9ZM4826.95 1516.75C4823.7 1514.94 4819.88 1514.44 4816.28 1515.36C4812.68 1516.27 4809.56 1518.52 4807.57 1521.66C4807.7 1521.49 4807.82 1521.31 4807.92 1521.12C4806.32 1523.11 4804.06 1524.46 4801.55 1524.91L4800.81 1525.1C4796.4 1525.42 4791.97 1525.3 4787.59 1524.72C4783.35 1524.23 4779.2 1523.16 4775.25 1521.53C4774.71 1521.34 4774.36 1520.99 4773.79 1520.8C4772.14 1519.85 4770.33 1519.23 4768.45 1518.98C4766.57 1518.73 4764.66 1518.86 4762.82 1519.35C4760.99 1519.84 4759.27 1520.68 4757.76 1521.84C4756.26 1522.99 4754.99 1524.43 4754.04 1526.07C4753.09 1527.72 4752.48 1529.53 4752.23 1531.41C4751.98 1533.29 4752.1 1535.2 4752.59 1537.04C4753.08 1538.87 4753.93 1540.59 4755.08 1542.1C4756.24 1543.6 4757.67 1544.87 4759.32 1545.82C4764.98 1548.74 4771.02 1550.88 4777.26 1552.19C4828.32 1562.52 4845.59 1526.57 4826.95 1516.75V1516.75ZM4636.97 1652.52C4653.73 1663.7 4659.63 1665.84 4718.17 1699.3C4726.3 1703.8 4729.84 1698.73 4750.04 1685.5V1719.6C4750.04 1722.49 4751.19 1725.25 4753.23 1727.29C4755.26 1729.33 4758.03 1730.47 4760.91 1730.47C4763.79 1730.47 4766.56 1729.33 4768.6 1727.29C4770.63 1725.25 4771.78 1722.49 4771.78 1719.6V1665.42C4771.77 1663.52 4771.26 1661.65 4770.31 1660.01C4769.36 1658.36 4767.99 1656.98 4766.35 1656.02C4764.71 1655.06 4762.85 1654.54 4760.94 1654.51C4759.04 1654.48 4757.16 1654.95 4755.49 1655.86C4744.78 1662.94 4734.27 1670.01 4723.62 1677.09L4654.21 1637.03C4658.78 1620.38 4669.38 1606.03 4683.95 1596.78C4695.13 1589.16 4684.84 1570.13 4672.89 1577.91C4654.86 1589.62 4641.12 1606.87 4633.72 1627.05C4630.85 1635.98 4629.38 1648.09 4636.97 1652.52V1652.52ZM4927.75 1584.38C4916.12 1576.57 4905.28 1595.63 4916.85 1603.21C4931.34 1612.64 4941.91 1627.02 4946.59 1643.66L4877.17 1683.72C4866.46 1676.64 4855.95 1669.57 4845.3 1662.49C4843.64 1661.53 4841.75 1661.02 4839.83 1661.03C4837.9 1661.03 4836.02 1661.55 4834.36 1662.52C4832.7 1663.49 4831.33 1664.88 4830.38 1666.56C4829.44 1668.24 4828.96 1670.13 4828.99 1672.05V1726.23C4828.99 1729.11 4830.13 1731.88 4832.17 1733.92C4834.21 1735.96 4836.97 1737.1 4839.85 1737.1C4842.74 1737.1 4845.5 1735.96 4847.54 1733.92C4849.58 1731.88 4850.72 1729.11 4850.72 1726.23V1692.13C4870.64 1705.23 4874.27 1710.46 4882.59 1705.93C4900.88 1695.41 4954.55 1664.76 4962.87 1659.69C4966.12 1657.19 4968.46 1653.68 4969.51 1649.71C4970.55 1645.75 4970.26 1641.54 4968.67 1637.76C4961.76 1615.69 4947.27 1596.78 4927.75 1584.38V1584.38Z" fill="#1D1D1B"/>
<path d="M4710.95 1214.33C4723.44 1041.37 4728.38 514.779 4728.38 342.84C4728.86 321.424 4767.36 323.432 3613.73 301.409C3609.91 301.491 3606.27 303.045 3603.56 305.747C3600.86 308.449 3599.31 312.09 3599.23 315.91L3566.62 1248.36C3566.66 1252.2 3568.19 1255.87 3570.91 1258.58C3573.62 1261.29 3577.29 1262.83 3581.12 1262.86C3611.59 1264.2 4418.22 1298.56 4572.63 1305.12C4400.76 1507.98 4567.25 1831.3 4830.78 1807.04C4905.83 1797.78 4975.08 1761.97 5026.01 1706.08C5076.94 1650.19 5106.19 1577.92 5108.46 1502.33C5111.94 1307.32 4906.47 1156.99 4710.95 1214.33V1214.33ZM4441.84 1270.32L3924.52 1247.85C3918.37 1114.25 3940.46 936.929 4039.73 847.311C4036.67 853.537 4035.06 860.379 4035.03 867.319C4034.99 874.259 4036.54 881.116 4039.54 887.371C4053.31 912.867 4082.69 903.306 4105.35 889.889C4117.4 942.602 4155.71 944.546 4175.15 919.464C4183.04 907.197 4187.13 892.872 4186.91 878.288C4187 876.329 4186.69 874.371 4186.01 872.534C4185.32 870.696 4184.27 869.017 4182.91 867.598C4181.56 866.179 4179.93 865.049 4178.13 864.278C4176.33 863.506 4174.39 863.108 4172.42 863.108C4170.46 863.108 4168.52 863.506 4166.72 864.278C4164.91 865.049 4163.29 866.179 4161.93 867.598C4160.58 869.017 4159.53 870.696 4158.84 872.534C4158.15 874.371 4157.85 876.329 4157.94 878.288C4158.1 885.991 4156.47 893.627 4153.19 900.597C4152.4 902.112 4151.24 903.405 4149.82 904.357C4148.4 905.309 4146.77 905.89 4145.06 906.047C4140.26 901.98 4136.84 896.524 4135.28 890.431C4132.4 882.116 4131.31 873.285 4132.09 864.52C4132.07 861.982 4131.39 859.493 4130.11 857.301C4128.83 855.109 4127 853.291 4124.79 852.027C4122.59 850.763 4120.1 850.098 4117.56 850.098C4115.02 850.099 4112.53 850.764 4110.33 852.027C4097.37 862.795 4082.1 870.43 4065.71 874.336C4059.87 874.113 4065.71 858.752 4070.42 852.027C4076.45 842.849 4088.53 826.531 4087.25 815.026C4091.97 812.668 4096.81 810.501 4101.94 808.652C4130.38 825.895 4162.96 835.116 4196.22 835.334C4229.48 835.553 4262.17 826.763 4290.84 809.895C4298.73 813.535 4306.35 817.72 4313.66 822.42C4310.77 822.303 4307.92 823.046 4305.46 824.554C4303 826.062 4301.04 828.268 4299.83 830.89C4298.63 833.513 4298.23 836.434 4298.69 839.284C4299.14 842.134 4300.44 844.784 4302.41 846.896C4306.85 853.002 4309.6 860.176 4310.37 867.688C4311.14 875.2 4309.91 882.783 4306.8 889.666C4295.68 884.592 4286.06 876.719 4278.89 866.815C4276.82 864.851 4274.22 863.53 4271.42 863.013C4268.61 862.496 4265.72 862.804 4263.08 863.901C4260.45 864.998 4258.19 866.837 4256.59 869.193C4254.98 871.549 4254.09 874.321 4254.03 877.173C4254.66 885.204 4256.1 902.669 4248.04 903.816C4242.36 904.517 4230.73 882.017 4228.47 876.631C4227.39 873.008 4224.94 869.949 4221.64 868.109C4218.34 866.269 4214.45 865.794 4210.8 866.785C4207.16 867.776 4204.04 870.154 4202.12 873.412C4200.21 876.669 4199.64 880.547 4200.55 884.216C4208.71 903.975 4223.94 934.443 4249.66 932.435C4255.65 931.859 4261.4 929.781 4266.37 926.394C4271.35 923.007 4275.39 918.42 4278.12 913.058C4282.23 904.868 4276.65 906.238 4290.65 913.6C4336.09 936.802 4354.19 867.357 4327.61 832.013C4407.03 893.554 4432.79 1004.68 4441.84 1104.28C4445.42 1159.57 4445.42 1215.03 4441.84 1270.32ZM4002.32 662.401C4002.59 658.761 4003.68 655.228 4005.49 652.061C4007.31 648.895 4009.81 646.174 4012.81 644.1C4015.82 642.025 4019.25 640.648 4022.85 640.071C4026.46 639.493 4030.14 639.729 4033.65 640.761C4036.43 641.49 4039.4 641.102 4041.9 639.679C4044.41 638.256 4046.26 635.912 4047.06 633.144C4053.64 597.525 4072.56 565.36 4100.48 542.29C4128.41 519.22 4163.56 506.718 4199.78 506.977C4236.01 507.235 4270.98 520.238 4298.57 543.704C4326.17 567.17 4344.62 599.602 4350.69 635.311C4351.15 636.902 4351.96 638.368 4353.07 639.6C4354.18 640.831 4355.55 641.797 4357.08 642.426C4358.61 643.054 4360.26 643.328 4361.92 643.227C4363.57 643.127 4365.18 642.654 4366.62 641.845C4371.1 639.91 4376.05 639.357 4380.84 640.257C4385.63 641.157 4390.04 643.468 4393.51 646.894C4396.97 650.32 4399.34 654.704 4400.29 659.483C4401.25 664.262 4400.76 669.218 4398.88 673.715C4397.28 676.718 4395.1 679.376 4392.47 681.538C4389.84 683.7 4386.81 685.323 4383.56 686.315C4380.3 687.306 4376.88 687.647 4373.5 687.316C4370.11 686.986 4366.82 685.992 4363.82 684.391C4361.03 683.618 4358.04 683.987 4355.52 685.415C4353 686.843 4351.14 689.215 4350.37 692.008C4315.79 851.358 4081.77 855.852 4046.39 694.016C4045.6 691.246 4043.76 688.897 4041.26 687.472C4038.75 686.048 4035.79 685.663 4033.01 686.399C4029.35 687.54 4025.47 687.777 4021.7 687.088C4017.93 686.4 4014.39 684.808 4011.37 682.448C4008.35 680.088 4005.95 677.031 4004.38 673.539C4002.8 670.048 4002.09 666.225 4002.32 662.401V662.401ZM4472.15 1125.57C4459.11 923.958 4394.64 871.404 4402.03 871.404C4415.96 868.504 4439.29 813.305 4411.27 769.42C4416.01 773.34 4421.58 776.107 4427.57 777.501C4433.55 778.896 4439.78 778.88 4445.76 777.455C4451.74 776.03 4457.3 773.235 4462.01 769.291C4466.72 765.347 4470.46 760.362 4472.91 754.728C4476.91 749.501 4479.64 743.414 4480.87 736.949C4482.11 730.484 4481.82 723.82 4480.03 717.487C4478.23 711.154 4474.99 705.326 4470.55 700.465C4466.11 695.605 4460.6 691.848 4454.46 689.49C4463.32 675.703 4468.83 660.028 4470.53 643.725C4472.24 627.423 4470.09 610.947 4464.27 595.625C4458.45 580.302 4449.12 566.559 4437.02 555.501C4424.92 544.443 4410.39 536.379 4394.61 531.957C4396.58 511.862 4392.44 491.639 4382.72 473.94C4373 456.241 4358.16 441.893 4340.14 432.778C4316.35 420.306 4290.38 412.547 4263.65 409.927C4233.95 410.071 4204.28 408.197 4174.83 404.318C4149.33 397.243 4122.18 399.1 4097.87 409.581C4073.57 420.061 4053.59 438.536 4041.23 461.939C4033.26 476.822 4033.42 511.273 4016.75 516.341C3989.26 522.384 3964.24 536.605 3944.98 557.134C3935.77 567.659 3930.87 581.278 3931.27 595.262C3931.67 609.246 3937.34 622.561 3947.15 632.539C3929.98 646.439 3917.34 665.143 3910.85 686.261C3904.36 707.378 3904.32 729.951 3910.72 751.095C3928.1 792.418 3957.05 827.835 3994.1 853.079C3909.67 953.756 3889.85 1115.46 3895.3 1246.74L3595.91 1233.77C3629.44 276.615 3628.2 332.26 3628.26 330.794C3653.76 331.144 4699.38 356.29 4699.38 356.29C4698.8 476.089 4694.06 1050.55 4681.18 1224.87C4651.13 1237.44 4623.49 1255.14 4599.5 1277.17L4470.97 1271.63C4475.28 1223.05 4475.7 1174.21 4472.24 1125.57H4472.15ZM5079.59 1502.24C5077.16 1563.21 5055.69 1621.89 5018.21 1670.04C4980.72 1718.19 4929.1 1753.4 4870.58 1770.71C4657.66 1827.15 4472.21 1603.94 4549.17 1400.38C4569.38 1348.51 4605.36 1304.29 4652.03 1273.94C4698.7 1243.6 4753.72 1228.67 4809.33 1231.25C4947.96 1237.43 5082.71 1348.47 5079.68 1502.24H5079.59Z" fill="#1D1D1B"/>
<path d="M4126.09 648.232C4128.85 648.232 4131.55 647.413 4133.85 645.879C4136.14 644.345 4137.93 642.165 4138.99 639.615C4140.05 637.064 4140.32 634.257 4139.78 631.549C4139.25 628.842 4137.92 626.354 4135.96 624.402C4134.01 622.45 4131.52 621.121 4128.82 620.582C4126.11 620.043 4123.3 620.32 4120.75 621.376C4118.2 622.433 4116.02 624.222 4114.49 626.518C4112.95 628.813 4112.13 631.512 4112.13 634.273C4112.13 637.975 4113.61 641.525 4116.22 644.143C4118.84 646.761 4122.39 648.232 4126.09 648.232ZM4269.22 635.452C4269.22 639.154 4270.69 642.705 4273.31 645.323C4275.93 647.94 4279.48 649.411 4283.18 649.411C4286.88 649.411 4290.43 647.94 4293.05 645.323C4295.67 642.705 4297.14 639.154 4297.14 635.452C4296.74 632.031 4295.1 628.877 4292.52 626.588C4289.95 624.298 4286.62 623.034 4283.18 623.034C4279.74 623.034 4276.41 624.298 4273.84 626.588C4271.27 628.877 4269.62 632.031 4269.22 635.452ZM2316.2 269.266C2312.39 269.393 2308.78 270.961 2306.08 273.654C2303.39 276.346 2301.82 279.961 2301.7 283.766C2301.15 314.617 2269.06 1216.25 2269.06 1216.25C2269.11 1220.08 2270.65 1223.74 2273.36 1226.45C2276.07 1229.16 2279.73 1230.7 2283.56 1230.75C2461.68 1237.95 3384.48 1277.92 3387.7 1277.7C3417.11 1275.69 3419.57 1245.64 3430.82 311.143C3431.3 288.961 3468.68 291.383 2316.2 269.266V269.266ZM2733.31 773.035C2742.25 778.965 2751.71 784.064 2761.58 788.269C2766.45 800.217 2773.32 811.251 2781.88 820.904C2765.95 844.997 2750.33 869.282 2734.55 893.408C2710.87 929.548 2702.43 931.652 2719.51 962.279C2747.98 1012.31 2778.26 1061.18 2810.34 1108.88C2811.83 1111.27 2813.97 1113.17 2816.51 1114.38C2819.05 1115.58 2821.89 1116.03 2824.67 1115.66C2827.46 1115.3 2830.09 1114.14 2832.23 1112.33C2834.38 1110.52 2835.97 1108.13 2836.79 1105.44C2859.15 1057.89 2884.09 1011.6 2911.5 966.772C2928.83 934.329 2923.03 933.723 2905.31 897.71C2893.55 873.776 2881.76 849.905 2869.97 826.098C2880.42 817.617 2887.6 805.764 2890.27 792.571C2904.18 788.214 2917.52 782.189 2929.98 774.628C3033.21 825.174 3066.73 952.24 3077.16 1067.19C3080.69 1122.92 3080.6 1178.83 3076.9 1234.54L2559.97 1212.24C2552.38 1052.53 2585.66 835.404 2733.31 773.035V773.035ZM2804.64 839.101C2817.32 844.643 2831.64 845.167 2844.7 840.567C2855.21 861.41 2882.3 916.609 2885.39 922.951C2887.37 927.126 2893.01 934.074 2893.07 938.631C2893.07 945.005 2844.66 1020.95 2820.57 1071.5C2793.83 1031.08 2768.43 989.786 2744.43 947.682C2737.49 935.54 2732.07 949.85 2804.64 839.101V839.101ZM2801.64 799.328C2819.38 802.262 2837.45 802.574 2855.28 800.252C2851.9 804.81 2847.46 808.48 2842.35 810.944C2837.23 813.409 2831.6 814.596 2825.93 814.402C2820.98 813.953 2816.21 812.357 2812 809.74C2807.78 807.123 2804.23 803.557 2801.64 799.328ZM2685.44 655.912C2684.39 652.24 2681.95 649.124 2678.63 647.23C2675.31 645.336 2671.39 644.815 2667.69 645.778C2664.62 646.785 2661.35 647.032 2658.16 646.499C2654.97 645.966 2651.96 644.668 2649.38 642.716C2646.8 640.765 2644.73 638.218 2643.35 635.293C2641.98 632.368 2641.33 629.153 2641.46 625.923C2641.69 622.803 2642.61 619.773 2644.17 617.058C2645.72 614.343 2647.86 612.012 2650.44 610.237C2653.02 608.462 2655.96 607.289 2659.05 606.805C2662.14 606.321 2665.3 606.537 2668.3 607.438C2672 608.408 2675.93 607.886 2679.25 605.985C2682.57 604.084 2685.01 600.955 2686.05 597.272C2686.2 596.87 2686.32 596.453 2686.4 596.029C2692.98 561.312 2711.57 530.02 2738.91 507.64C2766.26 485.259 2800.61 473.219 2835.94 473.629C2871.27 474.04 2905.33 486.875 2932.15 509.885C2958.97 532.895 2976.83 564.611 2982.6 599.471C2983.21 601.587 2984.3 603.538 2985.77 605.177C2987.25 606.816 2989.07 608.101 2991.11 608.937C2993.15 609.774 2995.36 610.139 2997.56 610.006C2999.76 609.874 3001.9 609.246 3003.82 608.171C3007.63 606.565 3011.82 606.13 3015.87 606.921C3019.92 607.712 3023.65 609.694 3026.57 612.613C3029.49 615.532 3031.47 619.255 3032.26 623.307C3033.05 627.358 3032.61 631.554 3031.01 635.356C3028.08 640.549 3023.22 644.375 3017.48 646.005C3011.75 647.634 3005.6 646.934 3000.38 644.057C2996.68 643.05 2992.73 643.551 2989.4 645.451C2986.06 647.35 2983.62 650.493 2982.6 654.191C2948.98 808.888 2719.42 816.601 2685.44 656.104V655.912ZM3377.66 1247.61L3106.13 1235.95C3110.46 1186.98 3110.96 1137.75 3107.62 1088.71C3099.4 962.725 3066.19 819.406 2956.08 755.729C2980.28 734.129 2997.94 706.187 3007.07 675.066C3018.66 676.304 3030.31 673.447 3040.01 666.991C3049.71 660.535 3056.84 650.888 3060.17 639.722C3061.98 631.959 3061.92 623.878 3060.01 616.139C3058.1 608.401 3054.38 601.224 3049.17 595.195C3043.95 589.166 3037.39 584.456 3030.01 581.45C3022.62 578.443 3014.63 577.225 3006.69 577.895C3005.99 575.345 3005.45 572.636 3004.52 570.118C3023.1 502.012 2996.33 427.5 2908.47 384.125C2899.66 378.784 2889.32 376.541 2879.08 377.751C2869.11 379.918 2860.79 391.519 2865.51 400.57C2800.08 377.337 2724.55 357.131 2666.29 401.303C2661.91 404.127 2658.45 408.156 2656.31 412.904C2655.22 417.063 2655.42 421.455 2656.87 425.5C2658.33 429.546 2660.98 433.055 2664.47 435.563C2671.57 440.397 2679.59 443.726 2688.02 445.347C2667 444.551 2646.26 450.394 2628.75 462.047C2605.36 471.245 2583.58 484.088 2564.21 500.1C2558.07 505.715 2553.62 512.933 2551.37 520.941C2549.12 528.949 2549.15 537.428 2551.46 545.419C2561.63 572.254 2599.87 584.205 2629.41 590.037C2621.76 596.368 2616.26 604.916 2613.67 614.504C2611.08 624.091 2611.52 634.246 2614.94 643.571C2618.36 652.896 2624.58 660.932 2632.76 666.573C2640.93 672.213 2650.65 675.181 2660.58 675.066C2669.05 704.84 2685.33 731.809 2707.72 753.18C2557.93 828.552 2523.03 1043.87 2530.62 1211.09C2397.31 1205.35 2301.6 1201.21 2298.6 1201.11C2299.5 1175.2 2330.47 331.38 2330.7 298.012C2356.19 298.363 3402.01 323.508 3402.01 323.508C3395.16 866.701 3391.43 1179.12 3377.66 1247.61Z" fill="#1D1D1B"/>
<path d="M2742.53 618.523C2745.44 618.557 2748.29 617.666 2750.67 615.977C2753.04 614.288 2754.82 611.889 2755.75 609.125C2756.67 606.361 2756.7 603.375 2755.82 600.597C2754.94 597.818 2753.2 595.391 2750.85 593.665C2748.22 591.511 2744.87 590.429 2741.48 590.636C2738.09 590.842 2734.9 592.323 2732.55 594.78C2730.64 596.749 2729.35 599.237 2728.84 601.935C2728.33 604.632 2728.62 607.42 2729.69 609.952C2730.75 612.483 2732.54 614.645 2734.82 616.169C2737.1 617.693 2739.78 618.512 2742.53 618.523V618.523ZM2906.21 609.536C2906.21 613.238 2907.69 616.789 2910.3 619.406C2912.92 622.024 2916.47 623.495 2920.17 623.495C2923.88 623.495 2927.43 622.024 2930.04 619.406C2932.66 616.789 2934.13 613.238 2934.13 609.536C2933.67 606.158 2932.01 603.061 2929.44 600.819C2926.87 598.576 2923.58 597.34 2920.17 597.34C2916.77 597.34 2913.47 598.576 2910.91 600.819C2908.34 603.061 2906.67 606.158 2906.21 609.536ZM4185.44 952.234C4181.34 1017.11 4180.28 1082.14 4182.26 1147.12C4182.26 1150.96 4183.79 1154.65 4186.5 1157.37C4189.22 1160.09 4192.91 1161.62 4196.76 1161.62C4200.6 1161.62 4204.29 1160.09 4207.01 1157.37C4209.73 1154.65 4211.26 1150.96 4211.26 1147.12C4209.29 1082.14 4210.36 1017.11 4214.45 952.234C4215.82 933.558 4186.66 933.558 4185.44 952.234ZM4246.19 1014.06C4260.56 1025.09 4279.81 1003.39 4266.27 991.211C4250.87 977.475 4225.76 998.414 4246.19 1014.06ZM4235.29 1055.01C4228.63 1069.13 4249.09 1082.23 4261.39 1070.79C4277.9 1055.46 4246.06 1032.16 4235.29 1055.01ZM4263.37 576.646C4269.56 576.063 4275.76 577.688 4280.87 581.234C4285.97 584.78 4289.67 590.018 4291.28 596.023C4291.53 596.942 4291.96 597.802 4292.54 598.556C4293.12 599.309 4293.85 599.941 4294.67 600.414C4295.5 600.888 4296.41 601.194 4297.35 601.315C4298.3 601.437 4299.26 601.371 4300.18 601.122C4301.09 600.873 4301.96 600.446 4302.71 599.864C4303.46 599.282 4304.09 598.558 4304.57 597.732C4305.04 596.907 4305.35 595.996 4305.47 595.052C4305.59 594.108 4305.52 593.149 4305.28 592.23C4302.03 583.739 4296.39 576.374 4289.03 571.032C4281.67 565.691 4272.92 562.603 4263.84 562.145C4261.99 562.191 4260.22 562.944 4258.91 564.25C4257.59 565.556 4256.82 567.316 4256.76 569.17C4256.7 571.024 4257.35 572.831 4258.58 574.221C4259.81 575.611 4261.52 576.479 4263.37 576.646ZM4092.54 597.298C4094.21 598.224 4096.18 598.479 4098.03 598.011C4099.88 597.544 4101.49 596.388 4102.52 594.78C4106.67 589.391 4112.1 585.115 4118.31 582.334C4124.53 579.554 4131.33 578.355 4138.12 578.845C4142.58 578.526 4143.22 566.543 4136.3 565.619C4104.46 561.476 4079.76 590.414 4092.54 597.298ZM4136.97 686.948C4135.85 686.167 4134.79 685.315 4133.78 684.398C4120.02 671.905 4099.33 692.398 4113.29 704.891C4131.25 721.975 4153.88 733.35 4178.31 737.576C4202.73 741.802 4227.86 738.691 4250.52 728.634C4243.53 737.277 4234.03 743.545 4223.34 746.577C4204.22 752.25 4215.85 782.144 4231.85 774.144C4249.33 768.383 4264.57 757.294 4275.43 742.434C4286.28 727.574 4292.22 709.687 4292.4 691.282C4292.31 688.446 4291.41 685.695 4289.8 683.359C4288.19 681.022 4285.94 679.2 4283.32 678.11C4280.7 677.021 4277.82 676.71 4275.03 677.214C4272.23 677.719 4269.65 679.018 4267.57 680.957C4259.56 689.948 4249.84 697.267 4238.99 702.492C4228.14 707.717 4216.36 710.745 4204.33 711.403C4192.3 712.06 4180.27 710.334 4168.91 706.323C4157.55 702.312 4147.1 696.096 4138.15 688.032C4137.85 687.576 4137.45 687.203 4136.97 686.948V686.948ZM2735.65 558.225C2738.15 559.626 2741.11 559.993 2743.88 559.249C2746.65 558.505 2749.03 556.708 2750.5 554.241C2757.09 541.047 2769.62 549.397 2776.79 545.382C2778.61 544.28 2780.08 542.672 2781.01 540.754C2781.93 538.836 2782.28 536.689 2782.01 534.576C2781.74 532.463 2780.86 530.473 2779.48 528.85C2778.1 527.226 2776.28 526.038 2774.24 525.431C2743.74 518.802 2719.01 549.493 2735.65 558.225ZM2898.06 542.928C2902.71 542.518 2907.38 543.285 2911.66 545.156C2915.94 547.027 2919.68 549.943 2922.53 553.636C2930.44 563.197 2948.19 550.736 2937.73 538.402C2932.88 532.653 2926.74 528.131 2919.82 525.201C2912.89 522.272 2905.37 521.018 2897.86 521.543C2896.41 521.477 2894.96 521.709 2893.6 522.223C2892.24 522.737 2891 523.524 2889.95 524.534C2888.9 525.544 2888.07 526.756 2887.51 528.098C2886.95 529.439 2886.66 530.881 2886.68 532.336C2886.69 533.791 2887 535.228 2887.59 536.559C2888.17 537.89 2889.02 539.088 2890.09 540.079C2891.15 541.07 2892.41 541.834 2893.78 542.323C2895.15 542.813 2896.6 543.019 2898.06 542.928V542.928ZM2768.44 660.847C2768.53 664.157 2769.72 667.343 2771.82 669.904C2773.92 672.465 2776.81 674.257 2780.04 674.997C2781.08 682.312 2783.57 689.344 2787.37 695.68C2791.17 702.015 2796.2 707.525 2802.17 711.883C2808.13 716.241 2814.91 719.36 2822.1 721.054C2829.29 722.749 2836.75 722.986 2844.04 721.75C2880.43 715.376 2877.28 656.64 2857.26 648.449C2851.27 645.772 2852.13 646.633 2782.94 645.995C2779.08 646.126 2775.41 647.744 2772.71 650.511C2770.01 653.277 2768.48 656.98 2768.44 660.847V660.847ZM5171.73 2935.73C5019.04 2857.55 4859.59 2999.47 4780.01 3120.96C4749.73 3167.2 4716.27 3225.17 4719.11 3282.31C4723.35 3368.36 4819.28 3444.25 4977.25 3404.47C5124.18 3367.88 5246.14 3236.42 5255.51 3088.35C5259.62 3057.31 5253.71 3025.76 5238.64 2998.3C5223.57 2970.85 5200.13 2948.93 5171.73 2935.73V2935.73ZM4913.07 3016.39C4956.16 2981.33 5040.55 2923.78 5092.91 2942.61C5091.8 2957.11 5071.69 2969.99 5062.98 2981.4C5057.65 2991.88 5051.52 3001.93 5044.66 3011.48C5029.11 3026.72 4993.29 3027.58 4984.65 3057.88C4950.77 3053.9 4916.89 3046.28 4882.44 3043.58C4887.51 3043.77 4908.35 3020.21 4913.07 3016.39V3016.39ZM4851.62 3382C4827.7 3378.9 4805.24 3368.79 4787.04 3352.95C4768.85 3337.12 4755.75 3316.25 4749.38 3292.99C4736.64 3223.77 4810.42 3120.51 4856.34 3069.9C4898.9 3072.14 4941.21 3077.78 4982.86 3086.76C4985.34 3096.7 4990.41 3105.82 4997.55 3113.17C5004.68 3120.53 5013.64 3125.87 5023.5 3128.65C5033.37 3131.43 5043.8 3131.55 5053.72 3129C5063.65 3126.45 5072.73 3121.32 5080.04 3114.14C5181.16 3149.99 5194.54 3171.5 5208.34 3169.05C5150.98 3315.84 4984.68 3408.68 4851.62 3382V3382ZM5227.02 3076.05C5226.75 3099.7 5223.16 3123.2 5216.34 3145.85C5215.44 3144.81 5214.36 3143.95 5213.16 3143.3C5174.83 3121.98 5134.82 3103.86 5093.52 3089.12C5095.96 3080.97 5096.49 3072.37 5095.07 3063.98C5093.66 3055.59 5090.34 3047.64 5085.36 3040.74C5075.19 3027.13 5067.22 3030.57 5075.41 3014.25C5090.27 2989.61 5109.34 2967.77 5131.76 2949.72C5203.44 2976.52 5227.47 3018.33 5227.02 3076.02V3076.05Z" fill="#1D1D1B"/>
<path d="M5645.43 2393.21C5682.02 2381 5732.15 2392.95 5818.01 2343.52C5845.74 2327.39 5888.32 2302.09 5882.71 2264.32C5876.56 2223.53 5830.5 2213.55 5796.66 2221.71C5739.69 2238.04 5687.52 2267.89 5644.57 2308.72C5644.21 2301.66 5643.67 2294.6 5642.95 2287.52C5667.68 2224.55 5750.92 2184.49 5790.32 2088.11C5805.74 2050.25 5823.49 1979.76 5768.96 1963.22C5711.6 1945.81 5679.06 2010 5658.18 2051.14C5642.4 2082.23 5628.3 2114.15 5615.96 2146.75C5611.4 2131.9 5606.39 2117.21 5600.91 2102.71C5567.83 2016.31 5499.6 1961.81 5468.75 1982.88C5442.96 2000.69 5457.34 2066.63 5471.11 2098.92C5500.16 2156.85 5540.82 2208.18 5590.55 2249.73C5593.01 2251.97 5596.13 2253.35 5599.44 2253.64C5602.75 2253.94 5606.07 2253.13 5608.88 2251.35C5614.87 2293.39 5613.34 2282.39 5609.96 2297.21C5560.8 2265.21 5507.81 2239.51 5452.24 2220.72C5443.12 2215.79 5433 2212.99 5422.64 2212.51C5412.28 2212.04 5401.95 2213.91 5392.42 2217.98C5385.25 2222.9 5379.5 2229.6 5375.72 2237.43C5371.94 2245.26 5370.27 2253.93 5370.87 2262.6C5375.81 2338.26 5525.99 2414.53 5617.04 2369.18C5617.04 2371.53 5617.04 2373.89 5616.85 2376.25C5607.61 2382.71 5600.54 2391.81 5596.55 2402.35C5592.02 2413.76 5602.54 2420.84 5612.13 2419.56C5613.44 2424.96 5613.87 2430.53 5613.41 2436.07C5622.97 2435.72 5632.53 2435.15 5642.09 2434.8C5643.81 2420.58 5644.89 2406.97 5645.43 2393.21V2393.21Z" fill="#86F2AA"/>
<path d="M5978.74 2498.53C5977.34 2475.95 5974.45 2453.48 5970.07 2431.28C5969.22 2428.22 5967.4 2425.52 5964.87 2423.59C5962.35 2421.65 5959.26 2420.6 5956.08 2420.57C5878.86 2424.05 5303 2449.03 5275.08 2450.31C5267.47 2450.31 5262.34 2453.18 5261.09 2460.83C5227.69 2651.5 5249.14 2853.18 5419.2 2948.82C5534.81 3005.78 5667.85 3016.28 5790.96 2978.17C5966.15 2908.5 5996.33 2686.98 5978.74 2498.53V2498.53Z" fill="#C17E48"/>
<path d="M1505.2 1192.65C1539.9 1180.27 1577.17 1176.84 1613.55 1182.67C1581.95 1065.03 1539.55 950.566 1486.87 840.736C1414.69 694.134 1339.34 591.577 1201 546.003C1188.77 540.525 1175.53 537.677 1162.14 537.644C1148.74 537.611 1135.49 540.394 1123.23 545.811C1205.88 586.033 1278.86 643.654 1337.15 714.722C1442.03 852.392 1500.84 1019.63 1505.2 1192.65V1192.65Z" fill="#AC47F5"/>
<path d="M1352.15 1408.03C1340.05 1457.56 1345.2 1509.74 1366.76 1555.94C1388.31 1602.15 1424.98 1639.63 1470.7 1662.19C1513.12 1681.61 1560.5 1687.48 1606.38 1678.98C1652.25 1670.48 1694.39 1648.03 1727.03 1614.7C1802.06 1533.47 1802.44 1399.17 1745.33 1308.75C1624.76 1123.27 1398.14 1218.5 1352.15 1408.03V1408.03Z" fill="#AC47F5"/>
</svg>
