<svg width="3243" height="2931" viewBox="0 0 3243 2931" fill="none" xmlns="http://www.w3.org/2000/svg">
<path d="M2153.93 1402.87C2136.49 1413.25 2118.34 1422.38 2099.61 1430.18C1932.82 1501.19 1704.71 1488.39 1535.51 1446.07C1481.99 1707.57 1640.25 2791.2 1640.25 2791.2C1785.94 2828.19 1882.18 2788.74 1882.18 2788.74L1852.66 1736.89C1867.53 1966.51 1961.31 2651.16 1961.31 2651.16C2067.53 2725.27 2178.55 2643.79 2178.55 2643.79C2216.95 2218.02 2156.98 1442.04 2153.93 1402.87V1402.87Z" fill="#59679C"/>
<path d="M556.296 2611.3C552.145 2614.27 547.027 2615.57 541.961 2614.93C543.446 2657.59 553.361 2715.24 575.665 2750.07C583.139 2761.74 599.556 2782.97 584.078 2795.17L583.651 2795.48C583.283 2783.94 579.74 2772.72 573.412 2763.06C572.926 2762.23 572.282 2761.51 571.518 2760.94C570.754 2760.37 569.885 2759.95 568.959 2759.71C568.034 2759.47 567.071 2759.42 566.125 2759.56C565.179 2759.69 564.269 2760.01 563.446 2760.5C562.624 2760.98 561.905 2761.63 561.331 2762.39C560.758 2763.15 560.34 2764.02 560.102 2764.95C559.865 2765.87 559.811 2766.84 559.946 2767.78C560.081 2768.73 560.4 2769.64 560.886 2770.46C567.154 2779.28 570.137 2790.02 569.316 2800.8C566.069 2801.09 562.803 2801.09 559.555 2800.8C559.377 2787.51 557.385 2774.31 553.634 2761.55C553.063 2759.76 551.82 2758.27 550.166 2757.38C548.513 2756.48 546.578 2756.27 544.769 2756.78C542.961 2757.28 541.419 2758.47 540.468 2760.09C539.518 2761.71 539.234 2763.64 539.675 2765.46C542.817 2775.82 544.646 2786.54 545.118 2797.36C490.783 2777.51 479.486 2705.21 469.247 2646.96C461.651 2602.97 456.597 2558.57 454.111 2513.99C449.451 2515.88 444.694 2517.52 439.861 2518.91C443.428 2578.48 457.814 2714.93 488.94 2766.59C533.873 2840.75 612.61 2820.31 604.146 2775C598.293 2743.09 559.112 2728.28 556.296 2611.3V2611.3ZM357.455 2905.92L362.062 2873.02C362.578 2871.17 362.338 2869.2 361.396 2867.52C360.453 2865.85 358.885 2864.62 357.036 2864.11C355.188 2863.59 353.21 2863.83 351.537 2864.77C349.865 2865.71 348.636 2867.28 348.12 2869.13L342.591 2908.19C331.746 2909.6 320.8 2910.04 309.877 2909.52C305.867 2876.09 326.703 2867.31 315.116 2860.33C313.45 2859.38 311.481 2859.12 309.624 2859.59C307.768 2860.07 306.17 2861.25 305.167 2862.89C297.533 2876.51 294.174 2892.12 295.526 2907.68C285.249 2905.99 275.259 2902.86 265.85 2898.4C266.054 2897.6 266.089 2898.13 266.31 2897.48C275.85 2866.93 299.229 2835.77 334.57 2837C367.745 2838.19 393.172 2865.65 413.701 2891.32C395.228 2897.19 376.452 2902.07 357.455 2905.92V2905.92Z" fill="#9B6868"/>
<path d="M531.197 1944.98C562.784 1881.31 632.273 1737.2 651.13 1665.44C654.668 1645.35 654.133 1624.75 649.557 1604.87C644.981 1584.99 636.457 1566.23 624.491 1549.71C560.924 1572.88 522.75 1558.63 502.545 1543.97C379.096 1659.45 354.437 1609.26 289.539 1664.16C290.875 1663.53 292.242 1662.96 293.635 1662.46C302.56 1659.37 306.348 1673.43 297.543 1676.4C280.967 1682.99 266.104 1693.26 254.078 1706.43C242.504 1725.04 233.773 1745.27 228.173 1766.45C220.923 1793.27 217.51 1820.98 218.037 1848.75C218.139 1851.96 221.228 1868.99 224.044 1884.81C266.826 1872.08 289.744 1820.75 304.608 1778.91C311.127 1762.44 314.267 1744.84 313.84 1727.13C313.225 1717.8 327.765 1717.92 328.294 1727.13C330.495 1764.42 295.119 1881.66 226.433 1899.35L230.443 1922.05C197.047 1952.4 170.672 1989.67 153.156 2031.26C76.3632 1961.55 31.3628 1767.68 118.906 1605.24C119.709 1603.72 119.951 1601.96 119.59 1600.29C119.228 1598.61 118.285 1597.11 116.928 1596.05C115.571 1595 113.886 1594.46 112.169 1594.52C110.452 1594.59 108.813 1595.26 107.541 1596.41C43.8715 1645.9 14.861 1726.11 4.80968 1803.6C-12.4601 1935.82 18.3593 2075.31 129.162 2144.42C127.354 2198.74 132.695 2253.07 145.05 2305.99C138.685 2449.34 217.952 2594.12 208.395 2734.48C207.781 2745.93 207.764 2746.2 197.627 2751.08C184.862 2757.32 174.079 2766.97 166.48 2778.97C158.881 2790.97 154.764 2804.85 154.589 2819.05C158.002 2842.67 211.876 2847.04 234.334 2839.05C294.659 2817.55 300.887 2738.56 305.529 2674.7C301.978 2659.64 298.092 2644.67 293.874 2629.79C292.896 2647.82 291.759 2665.84 290.461 2683.85C286.382 2736.39 280.768 2806.44 230.733 2824.68C230.733 2798.56 246.621 2792.06 235.955 2786.25C234.283 2785.34 232.326 2785.09 230.48 2785.57C228.633 2786.04 227.034 2787.19 226.006 2788.8C218.086 2800.24 214.827 2814.28 216.894 2828.05C209.432 2829.11 201.845 2828.9 194.453 2827.43C193.98 2826.94 193.46 2826.49 192.9 2826.1C193.28 2812.78 197.597 2799.86 205.306 2788.98C206.284 2787.33 206.563 2785.35 206.081 2783.48C205.599 2781.62 204.397 2780.02 202.738 2779.04C201.079 2778.07 199.1 2777.79 197.236 2778.27C195.372 2778.75 193.775 2779.95 192.798 2781.61C184.218 2793.88 179.214 2808.29 178.344 2823.23C168.685 2820.01 168.565 2817.65 169.726 2811.14C171.357 2801.85 174.979 2793.03 180.343 2785.28C185.708 2777.53 192.687 2771.03 200.801 2766.24C215.443 2757.7 221.569 2757.91 223.242 2736.71C232.491 2612.14 171.074 2482.74 161.142 2356.71C177.932 2404.36 207.496 2446.48 246.604 2478.47C239.778 2458.81 233.088 2440.59 227.832 2428.88C224.027 2420.48 236.535 2413.09 240.341 2421.61C254.744 2452.21 285.768 2551.3 295.393 2584.07C325.819 2688.9 342.407 2742.55 322.031 2823.85C361.912 2818.99 390.974 2843.9 416.861 2873.87C427.649 2722.95 428.538 2571.5 419.523 2420.47C418.926 2411.2 433.448 2411.25 434.08 2420.47C435.513 2443.23 437.766 2499.51 437.971 2504.84C448.878 2501.68 459.296 2497.03 468.926 2491.01C469.451 2490.7 470.03 2490.48 470.633 2490.38C452.851 2425.14 446.025 2303.54 509.388 2279.83C518.559 2276 528.687 2275.07 538.402 2277.18C548.116 2279.29 556.949 2284.33 563.706 2291.63C569.559 2298.79 559.32 2309.17 553.467 2301.86C546.863 2295.09 537.92 2291.09 528.467 2290.69C519.014 2290.29 509.765 2293.52 502.613 2299.71C486.009 2316.09 476.296 2338.2 475.462 2361.51C467.117 2428.37 480.139 2496.15 512.664 2555.16C520.996 2570.26 530.598 2584.62 541.367 2598.1C547.221 2604.1 552.801 2597.89 559.712 2589.31C544.349 2577.96 532.946 2562.07 527.118 2543.88C526.6 2542.03 526.837 2540.05 527.778 2538.38C528.719 2536.7 530.286 2535.47 532.135 2534.96C533.984 2534.44 535.963 2534.67 537.637 2535.62C539.311 2536.56 540.542 2538.12 541.06 2539.97C541.777 2542.02 542.494 2544.19 543.313 2546.24C548.712 2558.64 557.224 2569.45 568.023 2577.6C572.329 2571.08 576.232 2564.31 579.713 2557.31C566.625 2547.26 556.099 2534.27 548.996 2519.38C544.49 2509.75 557.801 2504.15 561.504 2512C566.999 2523.59 581.436 2543.18 585.805 2543.18C594.879 2521.59 595.391 2497.35 587.238 2475.4C579.098 2454.92 546.538 2411.27 560.89 2339.07C562.596 2329.95 576.675 2333.84 574.832 2342.96C572.936 2352.66 571.959 2362.51 571.914 2372.39C580.885 2351.74 586.839 2329.9 589.593 2307.55C594.013 2241.93 578.927 2077.51 534.251 2001.35L534.029 2001.76C534.029 2001.76 424.148 2054.44 225.375 1996.44C225.375 1996.44 222.935 1951.93 238.907 1934.73C238.839 1934.51 389.643 2004.3 531.197 1944.98V1944.98ZM576.982 1684.25C576.982 1684.25 565.446 1751.76 535.821 1751.76C506.196 1751.76 497.937 1671.14 497.937 1671.14C509.279 1679.13 522.278 1684.45 535.965 1686.72C549.651 1688.98 563.672 1688.13 576.982 1684.21V1684.25ZM414.045 1646.35C417.632 1646.35 421.138 1647.42 424.119 1649.41C427.1 1651.41 429.422 1654.24 430.793 1657.56C432.163 1660.87 432.52 1664.52 431.818 1668.04C431.116 1671.55 429.387 1674.78 426.849 1677.32C424.312 1679.85 421.079 1681.58 417.561 1682.28C414.043 1682.98 410.396 1682.62 407.083 1681.24C403.769 1679.87 400.937 1677.55 398.944 1674.56C396.952 1671.58 395.888 1668.07 395.888 1664.49C395.884 1662.1 396.35 1659.74 397.262 1657.54C398.173 1655.33 399.51 1653.33 401.197 1651.64C402.885 1649.96 404.888 1648.62 407.093 1647.71C409.298 1646.8 411.661 1646.34 414.045 1646.35ZM130.033 2127.73C56.6532 2077.97 1.61853 1975.85 17.489 1819.18C24.315 1751.54 44.793 1683.07 89.964 1632.71C20.3047 1797.92 68.5986 1977 147.507 2045.21C137.792 2071.75 131.908 2099.53 130.033 2127.73V2127.73ZM237.047 2022.03C197.896 2121.38 190.819 2230.49 216.808 2334.07C219.061 2343.08 205.119 2346.97 202.866 2337.96C176.138 2231.84 183.195 2120.03 223.054 2018.12C226.45 2009.59 240.375 2013.43 236.996 2022.03H237.047Z" fill="#9B6868"/>
<path d="M1366.13 1290.07C1200.24 1328.03 1028 1328.76 861.795 1292.22C804.389 1442.81 685.48 1893.08 894.697 2697.36C894.697 2697.36 920.635 2749.23 1090.94 2712.22L1115.24 1611.9L1130.11 1611.08L1220.55 2717.97C1286.92 2743.98 1360.31 2745.87 1427.93 2723.3C1427.93 2723.3 1567.67 1699.6 1366.13 1290.07V1290.07ZM887.837 1493.59C870.161 1507.32 849.06 1515.93 826.829 1518.51C824.973 1518.42 823.223 1517.62 821.941 1516.27C820.66 1514.92 819.945 1513.14 819.945 1511.28C819.945 1509.42 820.66 1507.63 821.941 1506.29C823.223 1504.94 824.973 1504.14 826.829 1504.05C837.021 1503.63 846.95 1500.7 855.737 1495.52C880.54 1484.53 901.93 1467.07 917.666 1444.97C936.149 1417.56 943.411 1384.1 937.956 1351.49C936.25 1342.36 950.311 1338.52 951.95 1347.65C956.997 1375.6 953.592 1404.41 942.17 1430.41C930.749 1456.41 911.831 1478.41 887.837 1493.59V1493.59ZM1387.98 1509.85C1354.09 1491.17 1327.25 1461.9 1311.55 1426.53C1295.85 1391.15 1292.17 1351.61 1301.05 1313.95C1303.2 1304.84 1317.14 1308.73 1314.99 1317.84C1306.62 1352.42 1309.95 1388.8 1324.46 1421.28C1338.98 1453.76 1363.85 1480.51 1395.2 1497.35C1403.46 1501.75 1396.15 1514.29 1387.98 1509.82V1509.85ZM530.274 1944.98C388.737 2004.38 237.916 1934.52 237.916 1934.52C221.824 1951.85 224.383 1996.24 224.383 1996.24C423.157 2054.26 533.038 2001.57 533.038 2001.57C538.127 1992.84 540.705 1982.89 540.488 1972.79C540.271 1962.7 537.268 1952.86 531.809 1944.36C531.195 1944.53 530.786 1944.74 530.274 1944.98V1944.98Z" fill="#FFAC6A"/>
<path d="M2828.73 1575.1C2619.59 1687.05 2369.68 1610.67 2317 1592.42C2313.93 1722.41 2306.95 2194.25 2357.49 2558.98C2367.75 2563.67 2378.44 2567.33 2389.42 2569.91C2441.26 2582.93 2496.12 2575.49 2542.61 2549.14L2577.14 1823.28L2604.3 1835.58L2594.47 2709.58C2594.47 2709.58 2698.21 2749.04 2792 2704.65C2820.42 2398.08 2845.35 1892.08 2828.73 1575.1V1575.1Z" fill="#B2EACD"/>
<path d="M2991.31 1352.83C2988.55 1346.26 2975.72 1315.82 2974.79 1313.58C2971.14 1305.05 2952.51 1312.81 3105.2 1229.84C3113.09 1247.98 3120.56 1266.43 3127.39 1284.98C3084.21 1311.73 3038.66 1334.44 2991.31 1352.83V1352.83Z" fill="#76D3DE"/>
<path d="M2889.45 882.088C2883.67 899.529 2868.38 926.952 2850.3 923.198C2832.62 919.41 2830.68 891.321 2835.13 872.344C2826.82 893.351 2808.49 896.952 2799.06 889.051C2786.45 878.249 2791.96 847.003 2798.14 831.235C2793.39 840.392 2786.79 848.459 2778.75 854.921C2774.65 858.048 2769.7 859.843 2764.55 860.062C2759.4 860.282 2754.31 858.916 2749.96 856.15C2734.3 843.914 2741.02 807.19 2748.51 788.709C2739.48 792.393 2729.53 793.18 2720.03 790.961C2716.85 790.325 2713.92 788.83 2711.53 786.639C2709.15 784.448 2707.41 781.645 2706.51 778.535C2705.61 775.426 2705.58 772.129 2706.42 769.003C2707.27 765.877 2708.95 763.042 2711.29 760.807C2682.43 749.73 2652.28 742.361 2621.56 738.879C2622.36 739.705 2622.92 740.728 2623.19 741.844C2623.46 742.96 2623.43 744.128 2623.1 745.227C2602.06 821.491 2498.78 858.743 2471.85 754.51C2471.71 753.804 2471.67 753.079 2471.73 752.36C2445.21 763.692 2420.41 778.722 2398.1 797.002C2341.66 832.344 2265.52 885.245 2179.34 952.703C2179.48 972.533 2177.53 1065.74 2175.45 1157.16L2266.83 1101.1C2265.48 1100.71 2264.27 1099.93 2263.35 1098.86C2262.44 1097.79 2261.85 1096.48 2261.67 1095.08C2261.49 1093.68 2261.72 1092.26 2262.33 1091C2262.95 1089.73 2263.92 1088.67 2265.13 1087.94C2285.78 1077.94 2305.78 1066.64 2325.01 1054.12C2326.78 1053.55 2328.68 1053.53 2330.46 1054.06C2332.24 1054.59 2333.82 1055.65 2334.99 1057.09C2339 1062.72 2333.92 1112.02 2333.29 1118.28C2333.25 1120.12 2332.54 1121.87 2331.27 1123.2C2330.01 1124.53 2328.29 1125.33 2326.46 1125.45C2321.6 1270.81 2306.99 1443.7 2306.99 1588.94C2462.43 1649.69 2684.31 1657.9 2840.32 1569.24L2832.13 1072.18C2832.13 1072.18 2912.08 1205.13 2959.84 1299.45C2968.89 1286.43 3100.48 1215.71 3105.92 1212.98C3068.1 1128.4 2995.25 988.489 2889.45 882.088V882.088Z" fill="#76D3DE"/>
<path d="M1301.26 709.359C1264.1 688.966 1223.68 675.178 1181.8 668.607C1182.06 677.487 1180.3 686.31 1176.65 694.409C1173 702.509 1167.56 709.675 1160.74 715.366C1153.92 721.056 1145.9 725.124 1137.27 727.261C1128.65 729.398 1119.66 729.55 1110.97 727.704C1069.72 727.277 1042.81 710.843 1037.26 670.297C1008.69 674.934 980.691 682.635 953.764 693.266C952.313 704.717 940.214 714.768 918.303 709.359C916.34 710.383 914.497 711.253 912.552 712.277C918.678 729.888 924.173 763.147 909.378 774.718C905.033 777.502 899.936 778.879 894.78 778.659C889.625 778.439 884.663 776.633 880.572 773.489C872.505 767.06 865.902 758.985 861.203 749.803C867.176 765.161 872.995 797.141 860.282 807.619C851.305 815.247 832.807 812.738 824.189 790.912C834.821 834.053 805.93 863.063 781.066 823.302C746.996 865.714 715.62 910.221 687.123 956.562C841.561 1018.08 831.595 1012.88 833.66 1017.09L845.401 1022.06L876.459 968.149C889.208 1075.69 870.6 1184.62 822.875 1281.82C959.498 1325.85 1188.19 1336.43 1400.71 1281.82C1400.71 1281.82 1334.16 1163.01 1350.59 958.098L1385.13 990.795C1388.39 988.132 1387.95 988.986 1387.61 987.211C1386.05 981.835 1381.92 988.184 1474.31 898.848C1475.29 897.911 1476.5 897.257 1477.82 896.956C1479.14 896.655 1480.52 896.72 1481.81 897.142C1484.53 893.354 1486.86 889.3 1488.77 885.043C1441.09 812.429 1376.82 752.208 1301.26 709.359Z" fill="#CACAFF"/>
<path d="M3219.55 1576.14C3207.77 1575.55 3202.48 1561.49 3198.54 1552.25C3197.82 1551.04 3196.75 1550.06 3195.48 1549.44C3194.2 1548.82 3192.78 1548.59 3191.37 1548.77C3189.97 1548.95 3188.64 1549.54 3187.57 1550.46C3186.49 1551.38 3185.71 1552.6 3185.32 1553.96C3181.34 1577.05 3200.3 1597.6 3187.77 1610.75C3175.83 1623.26 3160.61 1572.42 3158.87 1565.45C3156.53 1556.33 3143.3 1560.22 3144.92 1569.35C3147.47 1583.18 3147.4 1597.36 3144.72 1611.16C3141.72 1626.52 3139.46 1636.3 3129.65 1619.69C3119.16 1594.24 3113.6 1567.02 3113.25 1539.49C3113.16 1537.63 3112.36 1535.88 3111.02 1534.6C3109.67 1533.32 3107.88 1532.61 3106.02 1532.61C3104.17 1532.61 3102.38 1533.32 3101.03 1534.6C3099.69 1535.88 3098.89 1537.63 3098.8 1539.49C3097.09 1569.85 3074.45 1592.97 3067.84 1590.45C3061.24 1587.92 3061.29 1574.66 3061.29 1569.23C3061.54 1539.01 3077.89 1505.33 3072.55 1468.98C3066.07 1423.17 3047.72 1392.9 3030.95 1351.91C3060.24 1339.45 3088.73 1325.2 3116.27 1309.25C3163.88 1395.94 3173.01 1464.54 3220.23 1549.73C3223.92 1556.37 3235.97 1576.98 3219.55 1576.14V1576.14ZM2691.68 444.753C2685.17 406.241 2676.22 368.183 2664.87 330.81C2583.38 415.998 2526.64 378.984 2480.98 394.991C2435.31 410.998 2467.44 492.466 2467.44 492.466C2416.56 476.562 2369.9 479.241 2369.9 532.091C2369.9 555.658 2412.24 560.078 2435.79 560.59C2432.85 550.692 2420.63 553.457 2422.9 543.525C2426.16 529.258 2457.39 547.228 2449.99 571.426L2471.2 659.157C2470.29 688.317 2473.43 717.463 2480.52 745.762C2480.65 746.291 2484.53 746.513 2485.64 750.882C2495.21 787.247 2517.43 812.64 2551.86 802.077C2565.63 797.314 2578.04 789.285 2588.03 778.678C2598.01 768.071 2605.28 755.201 2609.2 741.172C2613.98 711.838 2613.24 681.87 2607.02 652.809C2616.3 661.171 2667.28 632.621 2671.39 629.549C2718.79 594.413 2699.77 493.968 2691.68 444.753V444.753ZM2440.02 531.579C2433.94 525.17 2426.3 520.463 2417.84 517.927C2416.03 517.347 2414.51 516.105 2413.58 514.449C2412.65 512.794 2412.37 510.849 2412.82 509.002C2413.37 507.183 2414.6 505.646 2416.26 504.712C2417.91 503.777 2419.87 503.517 2421.71 503.985C2432.49 507.321 2442.28 513.271 2450.21 521.306C2456.9 528.439 2446.54 538.388 2440.02 531.579V531.579ZM2542.73 472.586C2539.08 482.279 2525.67 476.937 2528.81 468.695C2531.55 460.333 2536.54 452.886 2543.22 447.168C2549.91 441.449 2558.04 437.68 2566.73 436.271C2568.55 435.845 2570.46 436.137 2572.06 437.087C2573.67 438.037 2574.85 439.571 2575.35 441.368C2575.85 443.166 2575.64 445.088 2574.76 446.733C2573.88 448.378 2572.39 449.619 2570.62 450.196C2555.12 455.231 2548.57 458.029 2542.73 472.586V472.586ZM2565.86 479.906C2573.74 482.381 2581.54 484.941 2589.42 487.5C2591.27 488.038 2592.83 489.268 2593.78 490.932C2594.74 492.596 2595.01 494.565 2594.54 496.425C2594.02 498.27 2592.79 499.832 2591.11 500.772C2589.44 501.711 2587.47 501.952 2585.62 501.443C2577.74 498.968 2569.94 496.425 2562.05 493.866C2560.32 493.259 2558.88 492.018 2558.03 490.394C2557.18 488.771 2556.97 486.884 2557.45 485.114C2557.94 483.344 2559.07 481.823 2560.63 480.857C2562.19 479.891 2564.06 479.551 2565.86 479.906V479.906ZM2646.37 589.395C2640.07 592.6 2633.16 594.437 2626.1 594.787C2619.03 595.138 2611.98 593.993 2605.39 591.429C2598.8 588.864 2592.82 584.938 2587.85 579.906C2582.89 574.874 2579.04 568.85 2576.56 562.228C2575.58 560.569 2575.3 558.59 2575.78 556.726C2576.26 554.862 2577.47 553.265 2579.13 552.288C2580.78 551.31 2582.76 551.031 2584.63 551.513C2586.49 551.995 2588.09 553.197 2589.07 554.856C2590.59 559.802 2593.16 564.361 2596.6 568.221C2600.05 572.082 2604.28 575.154 2609.02 577.226C2613.77 579.298 2618.9 580.323 2624.07 580.229C2629.24 580.135 2634.34 578.925 2639 576.682C2640.68 575.803 2642.63 575.607 2644.45 576.133C2646.27 576.66 2647.82 577.869 2648.77 579.509C2649.72 581.149 2650 583.092 2649.56 584.934C2649.11 586.776 2647.97 588.374 2646.37 589.395ZM2650.38 403.387C2665.28 390.861 2688.15 400.571 2682.36 411.476C2679.51 416.834 2670.55 415.008 2655.5 415.776C2654.09 415.748 2652.71 415.308 2651.54 414.511C2650.37 413.714 2649.46 412.593 2648.92 411.287C2648.38 409.98 2648.22 408.544 2648.48 407.154C2648.74 405.763 2649.4 404.478 2650.38 403.455V403.387ZM2690.96 451.92C2689.12 457.142 2687.28 462.261 2685.43 467.398C2684.89 469.255 2683.64 470.824 2681.95 471.763C2680.26 472.703 2678.27 472.937 2676.4 472.415C2674.57 471.845 2673.02 470.589 2672.09 468.907C2671.15 467.226 2670.9 465.249 2671.39 463.388C2673.23 458.166 2675.01 453.012 2676.92 447.91C2677.46 446.047 2678.72 444.476 2680.42 443.541C2682.12 442.607 2684.12 442.386 2685.98 442.927C2687.84 443.467 2689.41 444.726 2690.35 446.425C2691.28 448.125 2691.5 450.126 2690.96 451.988V451.92Z" fill="#FFCEB6"/>
<path d="M911.297 2786.75C955.08 2825.55 994.225 2869.29 1027.95 2917.09C1027.95 2917.09 1070.62 2857.8 1059.22 2803.47C1059.22 2803.47 985.922 2751.59 911.297 2786.75V2786.75Z" fill="#97A0B2"/>
<path d="M1479.24 914.27C1477.53 915.977 1427.87 963.759 1404.92 986.029L1485.91 1069.78C1486.85 1021.13 1489.03 970.449 1491.54 927.189L1479.24 914.27ZM1114.2 713.313C1067.03 713.62 1042.27 695.975 1053.72 620.445C1070.88 628.603 1089.55 633.091 1108.54 633.619C1127.53 634.148 1146.43 630.708 1164.01 623.517C1173.42 677.169 1169.12 712.75 1114.2 713.313Z" fill="#FFCEB6"/>
<path d="M1233.5 494.452C1227.97 493.735 1225.72 499.264 1226.95 503.667C1220.86 528.54 1211.73 552.571 1199.78 575.22C1185.7 594.765 1165.49 609.037 1142.36 615.763C1119.23 622.489 1094.52 621.283 1072.15 612.337C992.596 585.135 1005.41 512.677 1000.7 488.905C1000.38 487.703 999.746 486.606 998.866 485.725C997.985 484.844 996.888 484.211 995.685 483.888C974.047 478.24 949.763 459.178 948.739 435.082C948.501 428.849 950.054 422.679 953.214 417.301C956.375 411.924 961.011 407.565 966.572 404.741C979.081 399.417 988.91 417.147 993.637 425.97C994.378 427.166 995.447 428.124 996.717 428.728C997.987 429.333 999.405 429.559 1000.8 429.379C1002.2 429.199 1003.51 428.621 1004.58 427.713C1005.66 426.806 1006.45 425.608 1006.86 424.263C1009.88 405.716 1013.87 387.341 1018.81 369.212C1063.93 370.235 1115.17 360.901 1147.67 327.692C1149.52 343.527 1154.51 358.835 1162.32 372.732C1170.14 386.628 1180.63 398.836 1193.2 408.649C1188.54 405.441 1183.14 403.494 1177.51 403C1175.59 403.027 1173.75 403.804 1172.4 405.165C1171.04 406.526 1170.27 408.364 1170.24 410.287C1170.86 421.396 1186.37 414.639 1192.27 428.837C1197.39 438.649 1218.11 427.966 1194.63 409.775C1205.86 419.083 1218.31 426.806 1231.64 432.728C1231.23 437.847 1230.93 442.967 1230.52 447.898C1230 454.878 1238.5 456.618 1242.92 453.018C1251.55 445.475 1261.49 439.57 1272.24 435.594C1284.7 431.635 1290.72 434.297 1294.27 446.857C1303.32 482.762 1262.29 498.103 1233.5 494.452V494.452ZM545.459 1421.85C519.933 1446.43 488.951 1464.62 455.048 1474.94C421.144 1485.25 385.281 1487.4 350.389 1481.2C321.089 1476.64 336.191 1470.6 350.185 1469.92C355.213 1469.89 360.202 1469.03 364.946 1467.36C366.281 1466.94 367.467 1466.14 368.365 1465.07C369.263 1463.99 369.835 1462.68 370.014 1461.29C370.193 1459.9 369.972 1458.49 369.377 1457.22C368.781 1455.96 367.836 1454.88 366.652 1454.14C352.266 1444.49 327.761 1447.79 325.85 1432.91C324.928 1425.23 341.328 1427.99 345.748 1427.99C357.42 1427.99 369.007 1427.89 380.697 1427.89C382.424 1427.84 384.079 1427.18 385.366 1426.03C386.653 1424.88 387.487 1423.3 387.721 1421.59C387.955 1419.88 387.572 1418.14 386.642 1416.68C385.712 1415.23 384.294 1414.15 382.642 1413.64C369.332 1408.36 357.31 1400.28 347.386 1389.95C344.724 1387.19 336.823 1380.94 342.659 1378.28C380.65 1375.01 418.803 1382.35 452.865 1399.49C459.691 1402.77 468.547 1393.66 461.687 1388.11C432.813 1364.9 423.939 1334.56 454.708 1347.41C480.674 1360.61 504.776 1377.19 526.381 1396.73C533.343 1402.98 543.599 1392.74 536.62 1386.49C516.731 1368.83 495.128 1353.21 472.131 1339.85C708.788 967.971 702.509 979.78 702.884 979.115C738.345 993.057 814.011 1022.89 816.469 1023.81C661.945 1265.21 618.549 1357.62 545.459 1421.85V1421.85Z" fill="#FFCEB6"/>
<path d="M2724.41 270.152C2725.94 258.206 2716.49 244.23 2704.82 246.483C2699.7 247.524 2699.7 248.292 2654.9 277.746C2662.95 265.062 2667.38 250.424 2667.72 235.408C2666.69 220.442 2654.07 205.373 2639.22 207.421C2611.23 211.312 2591.9 275.408 2501.13 304.913C2454.27 320.187 2371.32 324.282 2375.05 416.228C2377.11 441.281 2383.07 465.856 2392.73 489.062C2407.6 481.894 2430.98 481.075 2467.46 492.475C2467.46 492.475 2435.38 410.989 2480.99 394.999C2526.61 379.01 2583.5 416.007 2664.89 330.818C2667.16 338.105 2669.2 345.374 2671.25 352.764C2685.56 337.256 2697.87 320.017 2707.89 301.449C2715.85 292.508 2721.52 281.768 2724.41 270.152V270.152Z" fill="#C17E48"/>
<path d="M2261.76 865.432L2273.3 881.883C2354.8 822.992 2379.92 810.039 2409.63 788.025L2379.55 746.045C2336.16 781.545 2296.67 821.567 2261.76 865.432ZM1324.59 684.1L1301.33 709.356C1353.8 738.649 1400.82 776.794 1440.3 822.104L1444.67 816.985C1397.46 779.757 1356.86 734.832 1324.59 684.1V684.1ZM943.184 675.482C933.628 669.355 906.7 672.717 895.402 673.434L891.989 673.639C872.475 667.718 851.606 667.979 832.245 674.385C812.884 680.791 795.979 693.028 783.847 709.42C771.714 725.812 764.95 745.555 764.479 765.943C764.009 786.331 769.857 806.365 781.221 823.299C805.368 861.934 834.975 836.473 824.378 790.875C832.723 811.933 851.068 815.432 860.47 807.582C873.064 796.78 867.552 765.517 861.392 749.766C866.124 758.926 872.722 766.995 880.761 773.452C884.862 776.574 889.821 778.365 894.971 778.584C900.12 778.804 905.214 777.442 909.566 774.681C925.437 762.291 918.184 726.267 911.051 707.223C920.081 710.856 930.002 711.659 939.498 709.526C943.212 708.737 946.581 706.796 949.126 703.979C951.671 701.162 953.261 697.613 953.67 693.839C954.078 690.065 953.285 686.258 951.402 682.961C949.519 679.665 946.643 677.047 943.184 675.482V675.482ZM1969.46 243.242C1962.47 242.994 1955.52 244.321 1949.11 247.124C1942.71 249.927 1937.02 254.135 1932.46 259.437C1930.3 242.109 1927.83 224.819 1925.07 207.576C1917.89 163.395 1876.52 142.729 1831.9 139.504C1795.17 134.997 1757.95 136.943 1721.89 145.255C1698.76 148.919 1677.45 160.041 1661.21 176.928C1639.49 203.157 1642.05 241.092 1645.53 275.017C1647.06 289.164 1653.02 344.472 1654.45 358.107C1742.71 445.65 1849.63 402.476 1937.17 314.847L1937.58 314.437C1937.89 314.437 1938.09 314.335 1938.3 314.335C2005.98 306.212 2005.98 243.242 1969.46 243.242V243.242ZM2877.5 793.367C2865.29 776.527 2848.2 763.835 2828.55 756.997C2808.91 750.16 2787.64 749.506 2767.6 755.124C2733.75 753.144 2722.35 750.534 2711.29 760.807C2708.95 763.044 2707.27 765.879 2706.43 769.003C2705.6 772.127 2705.63 775.422 2706.53 778.529C2707.43 781.636 2709.16 784.438 2711.54 786.629C2713.92 788.821 2716.86 790.319 2720.03 790.961C2729.52 793.179 2739.48 792.392 2748.51 788.708C2741.07 807.155 2734.28 843.93 2749.96 856.149C2754.3 858.939 2759.39 860.319 2764.55 860.099C2769.7 859.879 2774.66 858.07 2778.75 854.92C2786.82 848.491 2793.43 840.416 2798.13 831.234C2792.13 846.592 2786.36 878.606 2799.05 889.05C2808 896.661 2826.51 894.17 2835.13 872.344C2825.04 913.658 2850.83 941.883 2875.22 909.665C2887.42 892.829 2894.18 872.663 2894.59 851.874C2895 831.085 2889.03 810.669 2877.5 793.367V793.367Z" fill="#9B6868"/>
<path d="M1661.2 176.929C1677.44 160.049 1698.75 148.929 1721.88 145.256C1770.23 134.096 1848.32 132.065 1891.34 157.355C1900.3 162.74 1907.96 170.03 1913.79 178.71C1919.62 187.389 1923.46 197.245 1925.06 207.578C1927.82 224.796 1930.3 242.134 1932.45 259.438C1946.54 243.124 1976.92 235.957 1988.98 252.527C1998.02 243.094 2003.62 230.885 2004.86 217.877C2006.1 204.869 2002.91 191.824 1995.81 180.854C1992.31 177.332 1990.07 172.755 1989.44 167.833C1989.7 161.553 2008.21 127.099 1987.39 91.6721C1981.42 81.2654 1972.53 72.8366 1961.82 67.4264C1951.1 62.0161 1939.04 59.8613 1927.12 61.2281C1925.47 51.0158 1920.15 41.757 1912.16 35.187C1895.08 16.3821 1871.93 4.19008 1846.76 0.749784C1834.22 -0.598569 1821.6 2.2925 1810.89 8.96143C1800.19 15.6304 1792.03 25.6927 1787.72 37.5419C1741.98 -8.03867 1664.7 7.86588 1648.09 39.8969C1645.91 43.8569 1644.86 48.3424 1645.07 52.859C1645.27 57.3756 1646.72 61.748 1649.25 65.4944C1637.31 51.2622 1613.3 54.9141 1597.15 65.0337C1562.34 86.911 1560.86 120.222 1577.48 136.178C1582.19 140.683 1588.74 144.369 1590.19 150.734C1590.44 154.162 1589.62 157.583 1587.83 160.522C1586.05 163.46 1583.4 165.771 1580.24 167.134C1574.18 170.325 1567.22 171.536 1561.08 174.523C1556.36 177.313 1552.28 181.054 1549.09 185.508C1545.9 189.961 1543.68 195.03 1542.55 200.391C1541.43 205.752 1541.44 211.288 1542.57 216.647C1543.7 222.007 1545.94 227.071 1549.13 231.52C1556.3 240.018 1566.18 245.773 1577.11 247.807C1588.04 249.842 1599.34 248.03 1609.08 242.68C1601.71 249.273 1596.79 258.165 1595.12 267.91C1593.44 277.655 1595.12 287.68 1599.86 296.354C1604.61 305.028 1612.15 311.841 1621.26 315.685C1630.37 319.529 1640.51 320.179 1650.04 317.527C1644.01 261.913 1634.23 209.472 1661.2 176.929V176.929ZM1937.57 314.439C1849.99 401.999 1743.02 446.01 1654.44 358.108C1660.91 418.364 1661.15 420.566 1661.76 433.859C1663.02 462.495 1664.42 501.164 1686.66 515.157C1717.03 534.304 1795.16 533.741 1831.81 526.335C1870.48 518.536 1921.2 498.451 1938.54 460.003C1942.6 450.597 1944.85 440.514 1945.19 430.276C1945.59 421.504 1939.94 314.439 1937.57 314.439ZM1882.77 426.795C1882.1 435.994 1878.2 444.663 1871.77 451.279C1865.35 457.894 1856.79 462.034 1847.62 462.972C1835.45 465.816 1822.71 464.855 1811.11 460.219C1799.51 455.582 1789.62 447.495 1782.77 437.051C1801.65 438.404 1820.58 435.122 1837.91 427.491C1855.24 419.859 1870.44 408.108 1882.19 393.262C1884.31 404.323 1884.5 415.666 1882.77 426.795Z" fill="#502401"/>
<path d="M2389.43 2569.9C2373.25 2592.82 2338.97 2707.74 2372.67 2785.42C2391.45 2828.68 2437.86 2852.26 2470.56 2807.77C2487.88 2784.19 2485.92 2755.59 2487.62 2727.8C2495.88 2597.94 2498.8 2587.72 2491.53 2569.95C2458 2578.25 2422.95 2578.24 2389.43 2569.9ZM2043.42 2703.83C2013.69 2726.64 2009.29 2768.59 2014.41 2777.63C1967.3 2795.48 1955.88 2841.46 1981.61 2853.8C1993.06 2859.27 2053.13 2857.21 2064.65 2856.87C2175.1 2853.81 2186.6 2855.16 2186.12 2801.32C2184.93 2703.54 2098.44 2661.71 2043.42 2703.83V2703.83ZM2087.69 2841.59C2063.29 2842.73 2038.89 2843.17 2014.5 2842.92C1998.59 2842.65 1988.63 2843.68 1984.77 2837.91C1983.34 2834.6 1982.78 2830.99 1983.13 2827.4C1983.49 2823.82 1984.76 2820.39 1986.82 2817.43C1992.74 2808.94 2000.37 2801.77 2009.21 2796.38C2018.05 2791 2027.92 2787.51 2038.18 2786.15C2064.64 2782.64 2091.52 2783.93 2117.52 2789.96C2119.07 2790.23 2120.67 2790.01 2122.09 2789.33C2123.51 2788.66 2124.68 2787.55 2125.45 2786.18C2126.21 2784.8 2126.53 2783.22 2126.36 2781.66C2126.19 2780.09 2125.53 2778.62 2124.48 2777.45C2129.58 2777.3 2134.66 2778.1 2139.46 2779.8C2141.31 2780.28 2143.27 2780.02 2144.93 2779.09C2146.59 2778.15 2147.82 2776.61 2148.37 2774.78C2153.1 2758.01 2106.78 2761.73 2085.33 2771.37C2066.32 2769.18 2047.09 2770.01 2028.34 2773.83C2027.22 2764.14 2028.29 2754.33 2031.49 2745.11C2034.69 2735.9 2039.92 2727.53 2046.8 2720.62C2087.14 2681.18 2159.26 2706.85 2170.52 2783.37C2179.21 2846.87 2161.48 2837.91 2087.69 2841.59V2841.59ZM1971.34 2199.08C2022.83 2212.06 2076.69 2212.41 2128.34 2200.1C2137.47 2197.95 2133.61 2183.91 2124.5 2186.14C2075.37 2197.92 2024.11 2197.58 1975.15 2185.14C1973.33 2184.74 1971.44 2185.06 1969.85 2186.02C1968.26 2186.98 1967.11 2188.51 1966.62 2190.3C1966.13 2192.09 1966.35 2194 1967.23 2195.63C1968.11 2197.27 1969.58 2198.5 1971.34 2199.08V2199.08ZM1831.12 261.041C1832.65 261.758 1834.31 262.163 1836 262.233C1837.69 262.304 1839.38 262.038 1840.96 261.451C1848.27 260.274 1855.76 261.178 1862.57 264.06C1869.39 266.943 1875.25 271.686 1879.5 277.748C1880.51 279.327 1882.1 280.45 1883.93 280.882C1885.76 281.314 1887.68 281.022 1889.3 280.066C1890.92 279.111 1892.1 277.566 1892.61 275.757C1893.11 273.947 1892.9 272.013 1892 270.359C1885.28 260.895 1875.95 253.595 1865.14 249.352C1859.33 246.777 1853 245.591 1846.65 245.887C1840.3 246.183 1834.1 247.954 1828.56 251.058C1827.58 252.723 1827.3 254.707 1827.78 256.578C1828.26 258.449 1829.46 260.054 1831.12 261.041V261.041ZM1674.58 305.223C1677.7 303.926 1692.04 277.441 1719.78 277.441C1721.7 277.397 1723.53 276.616 1724.89 275.259C1726.25 273.901 1727.03 272.073 1727.07 270.154C1727.07 256.69 1690.13 263.123 1670.88 287.219C1664.53 294.915 1661.97 298.209 1664.43 302.39C1665.48 304.023 1667.09 305.214 1668.96 305.736C1670.84 306.258 1672.83 306.075 1674.58 305.223ZM1716.82 335.462C1716.7 332.709 1715.53 330.106 1713.55 328.197C1711.56 326.289 1708.91 325.223 1706.16 325.223C1703.4 325.223 1700.76 326.289 1698.77 328.197C1696.78 330.106 1695.61 332.709 1695.5 335.462C1695.61 338.215 1696.78 340.818 1698.77 342.726C1700.76 344.635 1703.4 345.701 1706.16 345.701C1708.91 345.701 1711.56 344.635 1713.55 342.726C1715.53 340.818 1716.7 338.215 1716.82 335.462ZM1843.52 298.397C1840.69 298.397 1837.98 299.52 1835.98 301.521C1833.98 303.521 1832.86 306.234 1832.86 309.062C1832.86 311.891 1833.98 314.604 1835.98 316.604C1837.98 318.604 1840.69 319.728 1843.52 319.728C1846.35 319.728 1849.06 318.604 1851.06 316.604C1853.06 314.604 1854.19 311.891 1854.19 309.062C1854.19 306.234 1853.06 303.521 1851.06 301.521C1849.06 299.52 1846.35 298.397 1843.52 298.397V298.397ZM1798.73 360.872C1804 359.113 1808.85 356.285 1812.97 352.564C1817.1 348.844 1820.41 344.311 1822.7 339.25C1823.21 337.395 1822.96 335.413 1822.01 333.741C1821.06 332.068 1819.48 330.843 1817.63 330.334C1815.77 329.825 1813.79 330.074 1812.12 331.026C1810.44 331.978 1809.22 333.555 1808.71 335.411C1807.45 338.152 1805.38 340.439 1802.77 341.964C1791.63 349.626 1787.67 352.1 1781.44 335.138C1774.48 316.365 1770.27 296.684 1768.95 276.707C1768.33 267.475 1753.78 267.373 1754.49 276.707C1756.59 309.813 1767.7 373.295 1798.73 360.872V360.872ZM2396.04 712.172C2342.62 645.243 2245.3 477.136 2063.8 432.425C2024.66 423.942 1984.95 418.358 1944.99 415.719C1945.28 420.532 1945.28 425.359 1944.99 430.173C2070.71 440.139 2155.1 462.818 2258.07 563.945C2301.36 606.471 2309.74 620.993 2358.51 687.274C2288.8 722.336 2230.6 776.657 2190.83 843.794C2167.77 813.47 2173.24 810.449 2109.84 703.981C2108.85 702.366 2107.27 701.202 2105.44 700.737C2103.61 700.273 2101.66 700.545 2100.03 701.495C2098.39 702.446 2097.19 703.999 2096.69 705.823C2096.19 707.646 2096.42 709.594 2097.33 711.25C2118.55 746.825 2138.81 782.946 2158.12 819.613C2157.14 825.432 2165.93 850.518 2164.38 1032.21C2164.38 1041.51 2157.21 1370.85 2154.43 1379.62C2148.39 1398.18 2070.06 1426.58 2054.79 1431.68C1902.36 1482.5 1709.34 1471.43 1554.54 1436C1533.08 1430.88 1529.07 1431.84 1523.08 1403.7C1494.71 1271.82 1497.48 1077.11 1505.33 941.594C1513.06 817.941 1514.51 812.446 1528.3 686.762C1529.32 677.53 1514.77 677.53 1513.84 686.762C1510.98 712.991 1508.01 739.339 1505.12 765.585C1457.96 729.868 1376.03 657.615 1352.39 602.802C1442.63 528.426 1548.59 475.529 1662.28 448.108C1662.14 446.401 1661.54 435.497 1661.46 433.756C1555.68 458.416 1456.3 505.123 1369.82 570.822C1348.19 584.186 1329.59 601.92 1315.21 622.888C1311.28 628.553 1308.81 635.094 1308.01 641.938C1307.21 648.782 1308.1 655.718 1310.6 662.137C1351.39 730.397 1421.18 816.268 1496.15 845.518C1495.79 848.419 1495.36 849.955 1496.86 852.344C1495.16 870.689 1493.79 888.931 1492.56 907.293C1489.78 904.409 1487.12 901.542 1484.36 898.675C1482.96 897.394 1481.13 896.684 1479.24 896.684C1477.34 896.684 1475.51 897.394 1474.12 898.675C1382.05 987.686 1385.84 981.611 1387.39 987.038C1388.6 991.85 1439.1 1041.53 1485.4 1090.26C1484.24 1186.27 1488.49 1320.64 1510.41 1414.4C1511.02 1421.52 1513.71 1428.3 1518.13 1433.91C1522.56 1439.52 1528.53 1443.71 1535.31 1445.97C1565.43 1457.26 1673.44 1472.61 1730.81 1477.13C1829.49 1486.64 1929.08 1479.33 2025.32 1455.51C2070.34 1443.84 2113.56 1426.08 2153.76 1402.71C2172.38 1389.62 2169.75 1374.11 2170.68 1351.97C2171.19 1338.32 2179.58 991.236 2179.21 952.498C2179.02 917.121 2177.55 881.761 2174.81 846.49C2189.25 865.831 2203.71 885.069 2218.17 904.204C2218.83 905.266 2219.75 906.141 2220.85 906.748C2221.94 907.355 2223.17 907.674 2224.42 907.674C2225.67 907.674 2226.9 907.355 2228 906.748C2229.09 906.141 2230.01 905.266 2230.68 904.204C2273.83 845.761 2323.72 792.606 2379.31 745.841C2407.09 724.578 2411.17 730.431 2396.04 712.172V712.172ZM1485.93 1069.73C1458.9 1041.85 1431.9 1013.93 1404.94 985.98C1427.99 963.795 1477.51 916.013 1479.25 914.221L1491.56 927.14C1488.79 974.632 1486.91 1022.17 1485.93 1069.73V1069.73ZM1329.7 665.106C1322.87 654.151 1318.6 650.635 1326.01 634.56C1329.81 626.568 1335.1 619.37 1341.59 613.348C1376.27 688.963 1501.76 780.466 1503.47 782.172C1501.76 798.367 1499.87 814.596 1498.14 830.756C1430.7 802.94 1368.3 726.677 1329.7 665.106V665.106ZM2224.7 888.88C2216.61 878.026 2208.51 867.259 2200.32 856.456C2239.24 788.672 2297.38 733.948 2367.4 699.202C2373.54 707.411 2379.91 715.517 2386.48 723.401C2330.39 760.671 2265.76 835.262 2224.64 888.897L2224.7 888.88Z" fill="#1D1D1B"/>
<path d="M1573 707.467C1569.59 706.511 1561.06 710.009 1561.19 715.999C1563.86 807.826 1556.33 885.489 1612.25 927.059C1659.73 962.486 1732.42 936.633 1753.89 841.461C1762.42 803.918 1769.69 750.01 1757.8 713.474C1757.3 712.036 1756.37 710.788 1755.14 709.896C1753.9 709.004 1752.43 708.513 1750.91 708.489C1749.38 708.465 1747.89 708.909 1746.63 709.761C1745.37 710.612 1744.4 711.831 1743.86 713.252C1606.14 712.228 1599.32 714.771 1573 707.467V707.467ZM1703.91 907.981C1693.85 918.256 1680.65 924.876 1666.41 926.786C1652.16 928.697 1637.68 925.79 1625.27 918.527C1571.04 884.789 1579.83 798.201 1577.39 778.304C1634.18 787.43 1692.02 788.051 1748.99 780.147C1744.64 825.522 1735.56 879.09 1703.91 907.981ZM1746.33 727.245C1749.12 739.896 1750.26 752.852 1749.74 765.795C1692.35 773.793 1634.08 773.068 1576.91 763.645C1576.5 750.112 1576.19 736.477 1575.8 722.945C1601.83 727.046 1628.2 728.487 1654.52 727.245C1719.32 727.689 1744.25 728.15 1746.33 727.245V727.245ZM822.211 2757.45C753.115 2793.63 858.406 2910.49 906.171 2923.72C946.501 2933.85 988.954 2931.54 1027.95 2917.09C990.267 2863.08 880.522 2726.92 822.211 2757.45V2757.45ZM1306.16 2762.4C1230.41 2775.52 1186.02 2871.07 1186.02 2871.07C1268.31 2885.51 1352.53 2884.93 1434.61 2869.36C1434.61 2869.36 1381.81 2749.26 1306.16 2762.4ZM1832.03 2837.3C1737.01 2796.07 1639.66 2825.46 1613.79 2859.96C1597.93 2881.04 1601.52 2907.13 1636.25 2920.75C1684.03 2938.46 1779.47 2928.29 1829.58 2918.17C1906.08 2902.76 1897.95 2865.87 1832.03 2837.3V2837.3ZM1771.14 2912.38C1488.05 2941.8 1655.89 2779.87 1821.57 2848.44C1868.59 2867.98 1870.57 2883.78 1868.72 2880.11C1877.1 2900.83 1793.86 2909.93 1771.14 2912.32V2912.38ZM624.479 1549.68C607.624 1523.79 587.227 1500.4 563.881 1480.17C544.519 1502.45 524.043 1523.73 502.532 1543.94C522.515 1558.6 560.912 1572.97 624.479 1549.68ZM287.991 1849.56C303.35 1825.53 330.5 1764.66 328.282 1727.07C327.753 1717.85 313.213 1717.75 313.828 1727.07C315.534 1756.71 298.674 1798.24 285.329 1824.76C248.127 1899.18 169.901 1913.04 180.925 1831.49C186.697 1800.33 200.231 1771.13 220.277 1746.59C239.526 1720.74 267.206 1686.72 297.53 1676.33C306.336 1673.36 302.548 1659.27 293.623 1662.39C260.158 1674.11 235.772 1702.95 214.441 1730.39C190.97 1757.69 174.722 1790.43 167.188 1825.63C152.205 1920.11 240.499 1924.03 287.991 1849.56V1849.56ZM236.984 2022.04C240.397 2013.33 226.438 2009.58 223.042 2018.2C183.183 2120.11 176.125 2231.91 202.854 2338.03C203.37 2339.88 204.599 2341.44 206.271 2342.39C207.943 2343.33 209.921 2343.57 211.77 2343.05C213.619 2342.54 215.187 2341.31 216.13 2339.64C217.072 2337.96 217.312 2335.99 216.796 2334.14C190.772 2230.55 197.831 2121.41 236.984 2022.04V2022.04ZM582.755 2432.07C571.744 2403.66 568.97 2372.71 574.751 2342.79C576.594 2333.68 562.567 2329.79 560.809 2338.9C556.28 2362.5 556.385 2386.77 561.116 2410.33C567.142 2432.92 575.887 2454.7 587.158 2475.18C595.311 2497.13 594.798 2521.37 585.724 2542.96C581.356 2542.96 566.953 2523.37 561.424 2511.78C557.703 2503.88 544.359 2509.55 548.915 2519.16C556.013 2534.05 566.54 2547.05 579.632 2557.09C576.147 2564.08 572.243 2570.86 567.942 2577.38C557.146 2569.39 548.656 2558.68 543.335 2546.34C543.266 2546.25 543.23 2546.13 543.232 2546.02C542.413 2543.97 541.696 2541.8 540.98 2539.75C540.723 2538.84 540.289 2537.98 539.701 2537.23C539.114 2536.49 538.385 2535.86 537.556 2535.4C536.728 2534.93 535.815 2534.63 534.871 2534.52C533.927 2534.41 532.97 2534.48 532.055 2534.74C531.139 2534.99 530.283 2535.43 529.536 2536.01C528.788 2536.6 528.164 2537.33 527.698 2538.16C527.232 2538.99 526.934 2539.9 526.821 2540.84C526.707 2541.79 526.781 2542.75 527.038 2543.66C532.853 2561.86 544.259 2577.75 559.632 2589.09C557.607 2591.65 555.418 2594.08 553.079 2596.36C549.086 2600.15 545.587 2602.3 541.287 2597.88C530.514 2584.41 520.911 2570.04 512.584 2554.94C480.068 2495.93 467.047 2428.15 475.382 2361.29C476.215 2337.98 485.929 2315.87 502.532 2299.49C509.686 2293.3 518.934 2290.08 528.386 2290.48C537.838 2290.88 546.78 2294.87 553.386 2301.65C559.222 2308.91 569.478 2298.57 563.625 2291.41C541.577 2264.1 487.106 2270.64 468.061 2327.07C452.327 2373.15 457.395 2442.04 470.518 2490.16C469.915 2490.26 469.336 2490.48 468.812 2490.79C459.183 2496.81 448.765 2501.46 437.856 2504.62C437.651 2499.29 435.399 2443.01 433.965 2420.25C433.852 2419.05 433.462 2417.9 432.825 2416.88C432.188 2415.86 431.323 2415 430.298 2414.38C429.273 2413.75 428.116 2413.37 426.919 2413.27C425.722 2413.17 424.517 2413.35 423.402 2413.8C416.303 2416.58 420.774 2414.31 423.709 2518.46C428.042 2636.89 425.718 2755.47 416.747 2873.65C390.688 2843.48 361.644 2818.77 321.916 2823.63C339.22 2754.62 329.186 2709.19 313.384 2648.75C293.163 2571.68 268.735 2495.78 240.209 2421.39C236.421 2412.86 223.895 2420.26 227.7 2428.66C246.694 2471.2 315.312 2678.06 316.268 2748.7C317.121 2800.22 304.732 2820.37 308.06 2827.03C294.273 2833.3 282.054 2842.56 272.285 2854.13C262.516 2865.71 255.442 2879.31 251.574 2893.95C253.331 2899.43 254.873 2904.97 256.199 2910.56C307.752 2935.76 364.852 2920.8 416.934 2905.44C417.89 2905.17 428.88 2897.03 429.323 2893.25C429.323 2877.61 436.525 2853.13 439.17 2713.13C442.02 2556.94 435.911 2519.19 438.863 2519.19C451.262 2515.69 463.153 2510.6 474.239 2504.04C483.334 2532.52 518.198 2609.34 540.963 2614.74C557.157 2618.42 572.84 2595.49 581.765 2581.61C631.527 2504.41 593.83 2460.45 582.755 2432.07V2432.07ZM357.497 2905.92L362.104 2873.02C362.62 2871.17 362.381 2869.19 361.438 2867.52C360.496 2865.84 358.928 2864.61 357.079 2864.1C355.23 2863.58 353.252 2863.82 351.58 2864.77C349.908 2865.71 348.678 2867.28 348.162 2869.12L342.633 2908.19C331.789 2909.59 320.842 2910.03 309.92 2909.52C305.909 2876.09 326.746 2867.3 315.159 2860.32C313.492 2859.37 311.523 2859.11 309.667 2859.59C307.81 2860.06 306.212 2861.25 305.21 2862.88C297.576 2876.51 294.216 2892.11 295.568 2907.67C285.291 2905.98 275.302 2902.86 265.892 2898.39C266.097 2897.59 266.131 2898.12 266.353 2897.47C275.892 2866.92 299.271 2835.76 334.613 2836.99C367.787 2838.19 393.214 2865.64 413.743 2891.31C395.254 2897.19 376.461 2902.06 357.446 2905.92H357.497ZM414.033 1646.35C417.62 1646.35 421.126 1647.42 424.107 1649.41C427.087 1651.41 429.41 1654.24 430.78 1657.56C432.151 1660.87 432.507 1664.52 431.806 1668.04C431.104 1671.56 429.375 1674.79 426.837 1677.32C424.299 1679.86 421.067 1681.58 417.549 1682.28C414.03 1682.98 410.384 1682.62 407.07 1681.25C403.757 1679.87 400.924 1677.55 398.932 1674.57C396.939 1671.58 395.876 1668.08 395.876 1664.49C395.876 1662.11 396.346 1659.75 397.258 1657.54C398.171 1655.34 399.509 1653.34 401.195 1651.66C402.881 1649.97 404.883 1648.64 407.086 1647.72C409.289 1646.81 411.65 1646.35 414.033 1646.35ZM535.809 1751.73C565.434 1751.73 576.97 1684.22 576.97 1684.22C563.655 1688.1 549.637 1688.94 535.954 1686.67C522.272 1684.4 509.275 1679.08 497.925 1671.11C497.925 1671.11 506.184 1751.73 535.809 1751.73ZM833.389 1023.6C833.912 1022.63 834.214 1021.56 834.273 1020.47C834.332 1019.37 834.147 1018.28 833.73 1017.26C833.313 1016.25 832.676 1015.34 831.864 1014.6C831.053 1013.86 830.087 1013.32 829.037 1013C799.037 1001.21 702.756 963.254 701.459 962.708C699.906 962.283 698.256 962.387 696.769 963.005C695.282 963.623 694.044 964.72 693.251 966.121C685.367 978.408 466.815 1319.57 458.709 1333.29C433.009 1323.65 417.446 1337.85 420.996 1355.48C426.32 1381.7 444.375 1375.95 402.753 1367.42C383.677 1363.26 364.124 1361.71 344.63 1362.81C322.258 1366.23 314.032 1385.8 352.616 1413.45C346.678 1413.45 340.671 1413.45 334.783 1413.55C301.814 1413.86 305.244 1449.69 333.077 1458.24C315.671 1464.04 311.387 1489.18 338.503 1494.08C497.413 1521.86 582.891 1423.05 666.954 1290.1C676.715 1274.49 827.774 1034.82 833.389 1023.6V1023.6ZM545.434 1421.86C519.907 1446.44 488.926 1464.63 455.022 1474.95C421.119 1485.26 385.255 1487.41 350.364 1481.21C321.063 1476.65 336.166 1470.61 350.159 1469.93C355.187 1469.9 360.176 1469.04 364.92 1467.37C366.255 1466.95 367.441 1466.15 368.339 1465.08C369.237 1464 369.809 1462.69 369.988 1461.3C370.168 1459.91 369.947 1458.5 369.351 1457.23C368.755 1455.97 367.81 1454.89 366.627 1454.15C352.241 1444.5 327.735 1447.8 325.824 1432.92C324.903 1425.24 341.302 1428 345.722 1428C357.394 1428 368.982 1427.9 380.671 1427.9C382.399 1427.85 384.054 1427.19 385.34 1426.04C386.627 1424.89 387.462 1423.31 387.695 1421.6C387.929 1419.89 387.547 1418.15 386.616 1416.69C385.686 1415.24 384.268 1414.16 382.617 1413.65C369.306 1408.37 357.284 1400.29 347.36 1389.96C344.698 1387.2 336.797 1380.95 342.633 1378.29C380.624 1375.02 418.777 1382.36 452.839 1399.5C459.665 1402.78 468.522 1393.67 461.662 1388.12C432.788 1364.91 423.914 1334.57 454.682 1347.42C480.649 1360.62 504.75 1377.2 526.355 1396.74C533.318 1402.99 543.574 1392.75 536.594 1386.5C516.706 1368.84 495.102 1353.22 472.105 1339.86C708.763 967.981 702.483 979.79 702.858 979.125C738.319 993.067 813.986 1022.9 816.443 1023.82C661.919 1265.22 618.523 1357.63 545.434 1421.86V1421.86ZM2570.61 450.092C2572.38 449.515 2573.86 448.275 2574.75 446.629C2575.63 444.984 2575.84 443.062 2575.34 441.264C2574.83 439.467 2573.66 437.933 2572.05 436.983C2570.44 436.033 2568.53 435.741 2566.71 436.167C2558.03 437.576 2549.9 441.346 2543.21 447.064C2536.52 452.782 2531.54 460.229 2528.8 468.591C2525.71 476.885 2539.04 482.243 2542.72 472.482C2548.54 458.011 2555.2 455.553 2570.61 450.092V450.092ZM2594.45 496.407C2594.91 494.546 2594.64 492.577 2593.68 490.914C2592.73 489.25 2591.17 488.02 2589.33 487.482C2581.44 484.922 2573.64 482.362 2565.76 479.888C2563.94 479.466 2562.03 479.762 2560.42 480.716C2558.81 481.669 2557.64 483.206 2557.13 485.006C2556.63 486.806 2556.84 488.729 2557.73 490.377C2558.61 492.024 2560.09 493.267 2561.87 493.847C2569.75 496.407 2577.55 498.967 2585.43 501.424C2586.36 501.689 2587.32 501.77 2588.27 501.661C2589.23 501.552 2590.15 501.256 2590.98 500.79C2591.82 500.324 2592.56 499.696 2593.15 498.944C2593.75 498.192 2594.19 497.33 2594.45 496.407V496.407ZM2685.93 442.942C2677.16 440.997 2676.12 450.024 2671.37 463.42C2670.88 465.272 2671.13 467.245 2672.07 468.913C2673.02 470.581 2674.58 471.811 2676.42 472.338C2678.27 472.864 2680.24 472.645 2681.93 471.727C2683.61 470.808 2684.86 469.265 2685.42 467.43C2687.26 462.311 2689.11 457.192 2690.95 451.953C2691.44 450.093 2691.2 448.115 2690.26 446.434C2689.32 444.753 2687.77 443.501 2685.93 442.942ZM2682.35 411.526C2688.34 400.877 2665.44 390.826 2650.37 403.437C2649.38 404.459 2648.7 405.75 2648.44 407.149C2648.17 408.548 2648.31 409.996 2648.86 411.312C2649.4 412.629 2650.32 413.758 2651.5 414.56C2652.68 415.362 2654.06 415.802 2655.49 415.826C2670.56 415.075 2679.63 416.952 2682.35 411.526V411.526ZM2638.98 576.664C2634.32 578.907 2629.23 580.116 2624.06 580.21C2618.88 580.304 2613.75 579.28 2609.01 577.208C2604.27 575.135 2600.03 572.064 2596.59 568.203C2593.14 564.342 2590.57 559.783 2589.05 554.837C2585.79 547.226 2571.99 552.124 2576.54 562.21C2579.03 568.83 2582.88 574.852 2587.85 579.882C2592.81 584.913 2598.79 588.838 2605.38 591.402C2611.97 593.966 2619.02 595.111 2626.08 594.762C2633.14 594.413 2640.05 592.578 2646.36 589.377C2647.95 588.356 2649.1 586.758 2649.54 584.916C2649.99 583.074 2649.71 581.13 2648.76 579.491C2647.81 577.851 2646.26 576.642 2644.44 576.115C2642.62 575.588 2640.66 575.785 2638.98 576.664V576.664ZM2421.75 503.984C2419.9 503.498 2417.94 503.75 2416.28 504.687C2414.62 505.624 2413.39 507.172 2412.86 509.001C2412.4 510.848 2412.67 512.799 2413.6 514.457C2414.53 516.116 2416.06 517.356 2417.87 517.926C2426.34 520.454 2433.99 525.162 2440.06 531.578C2441.42 532.933 2443.26 533.693 2445.18 533.693C2447.1 533.693 2448.94 532.933 2450.3 531.578C2459.79 521.356 2433.49 507.636 2421.75 503.984V503.984ZM2443.2 583.438C2446.45 580.114 2448.79 576.01 2450 571.52C2451.21 567.029 2451.25 562.304 2450.1 557.796C2448.96 553.288 2446.68 549.15 2443.48 545.778C2440.27 542.406 2436.26 539.914 2431.82 538.54C2429.97 538.049 2428 538.298 2426.33 539.235C2424.67 540.172 2423.43 541.723 2422.89 543.558C2420.48 554.035 2434.38 550.281 2436.22 562.517C2436.22 578.507 2417.34 579.036 2417.34 559.24C2412.6 558.767 2407.88 558.049 2403.21 557.09C2402.08 562.162 2402.51 567.461 2404.45 572.281C2406.4 577.102 2409.76 581.216 2414.1 584.077C2418.45 586.937 2423.55 588.408 2428.75 588.294C2433.95 588.18 2438.99 586.486 2443.2 583.438V583.438ZM3216.41 1510.84C3182.93 1441.16 3173.55 1382.37 3128.77 1301.4C3137.3 1295.85 3146.02 1292.34 3142.51 1284.49C3139.89 1274.04 3122.03 1231.58 3115.05 1215.92C3114.15 1214.39 3112.72 1213.24 3111.03 1212.7C3109.35 1212.16 3107.52 1212.26 3105.9 1212.98C3104.19 1213.58 2968.8 1285.95 2959.62 1299.25C2954.02 1307.49 2956.7 1307.78 2979.93 1363.02C2980.67 1364.87 2982 1366.42 2983.72 1367.42C2987.38 1371.09 2989.64 1369.21 3017.66 1357.58C3034.35 1397.56 3057.01 1436.72 3059.16 1480.44C3060.39 1506.16 3050.46 1531.18 3047.47 1556.5C3041.14 1609.16 3074.55 1624.3 3102.32 1576.69C3105.73 1596.91 3111.94 1627.15 3126.92 1638.4C3129.41 1640.5 3132.43 1641.87 3135.65 1642.36C3138.87 1642.85 3142.17 1642.44 3145.17 1641.18C3148.48 1639.02 3151.27 1636.15 3153.33 1632.78C3155.4 1629.41 3156.69 1625.62 3157.11 1621.69C3161.36 1604.81 3158.07 1606.18 3162.23 1612.68C3181.17 1644.11 3214.83 1621.04 3204.38 1585.72C3209.12 1589.2 3214.9 1590.95 3220.77 1590.69C3226.64 1590.43 3232.24 1588.17 3236.65 1584.28C3253.09 1567.85 3232.59 1544.74 3216.41 1510.84V1510.84ZM2991.31 1352.83C2988.54 1346.26 2975.71 1315.82 2974.79 1313.58C2971.14 1305.05 2952.5 1312.81 3105.2 1229.84C3113.08 1247.98 3120.56 1266.43 3127.39 1284.98C3084.21 1311.73 3038.66 1334.44 2991.31 1352.83V1352.83ZM3219.54 1576.19C3207.76 1575.6 3202.47 1561.54 3198.53 1552.3C3197.8 1551.09 3196.74 1550.11 3195.46 1549.49C3194.19 1548.87 3192.76 1548.64 3191.36 1548.82C3189.95 1549 3188.63 1549.59 3187.56 1550.51C3186.48 1551.43 3185.7 1552.65 3185.3 1554.01C3181.33 1577.1 3200.29 1597.65 3187.76 1610.8C3175.82 1623.31 3160.59 1572.47 3158.85 1565.5C3156.52 1556.38 3143.29 1560.27 3144.91 1569.4C3147.45 1583.23 3147.38 1597.41 3144.71 1611.21C3141.7 1626.57 3139.45 1636.35 3129.64 1619.74C3119.15 1594.29 3113.59 1567.07 3113.24 1539.54C3113.15 1537.68 3112.35 1535.93 3111 1534.65C3109.66 1533.37 3107.87 1532.65 3106.01 1532.65C3104.15 1532.65 3102.37 1533.37 3101.02 1534.65C3099.68 1535.93 3098.87 1537.68 3098.78 1539.54C3097.08 1569.9 3074.43 1593.02 3067.83 1590.5C3061.22 1587.97 3061.28 1574.71 3061.28 1569.28C3061.53 1539.06 3077.88 1505.38 3072.54 1469.03C3066.05 1423.22 3047.71 1392.95 3030.93 1351.96C3060.22 1339.5 3088.72 1325.25 3116.26 1309.3C3163.87 1395.99 3173 1464.59 3220.22 1549.78C3223.91 1556.35 3235.95 1576.96 3219.54 1576.13V1576.19ZM2492.91 826.273C2482.91 830.761 2446.27 846.888 2445.45 847.195C2452.02 828.912 2457.1 810.124 2460.62 791.017C2461.14 789.168 2460.9 787.189 2459.96 785.515C2459.02 783.842 2457.45 782.61 2455.6 782.092C2453.76 781.574 2451.78 781.811 2450.1 782.752C2448.43 783.693 2447.2 785.26 2446.68 787.109C2435.38 849.396 2421.65 852.349 2432.02 859.687C2443.27 867.605 2454.43 858.987 2500.49 838.782C2507.87 835.625 2503.25 821.632 2492.91 826.273V826.273ZM2641.34 790.607C2645.78 809.2 2646.65 828.466 2643.9 847.383C2628.21 841.555 2613.16 834.121 2599 825.198C2591.12 820.181 2583.83 832.775 2591.72 837.707C2609.34 848.719 2628.2 857.631 2647.89 864.26C2649.75 864.748 2651.73 864.484 2653.4 863.527C2655.07 862.569 2656.3 860.994 2656.82 859.141C2661.49 835.133 2660.97 810.403 2655.28 786.614C2653.13 777.638 2639.14 781.563 2641.34 790.607V790.607ZM2623.05 745.317C2623.43 743.525 2623.12 741.653 2622.18 740.081C2621.24 738.509 2619.73 737.355 2617.97 736.853C2616.2 736.352 2614.31 736.54 2612.68 737.38C2611.05 738.219 2609.8 739.648 2609.19 741.375C2605.27 755.405 2598 768.274 2588.01 778.881C2578.03 789.489 2565.62 797.517 2551.85 802.28C2516.77 812.98 2494.94 786.41 2485.62 751.085C2485.03 749.326 2483.79 747.859 2482.15 746.983C2480.52 746.107 2478.61 745.889 2476.82 746.372C2475.03 746.855 2473.49 748.004 2472.51 749.584C2471.54 751.164 2471.2 753.056 2471.58 754.873C2498.64 858.748 2602.45 821.802 2623.05 745.317V745.317Z" fill="#1D1D1B"/>
<path d="M2991.84 1314.36C2990.68 1315.06 2989.7 1316.01 2988.94 1317.13C2988.19 1318.25 2987.69 1319.53 2987.47 1320.86C2987.26 1322.2 2987.34 1323.56 2987.7 1324.86C2988.07 1326.17 2988.71 1327.37 2989.58 1328.4C2991.04 1329.64 2992.82 1330.44 2994.71 1330.73C2996.6 1331.01 2998.53 1330.75 3000.28 1329.99C3011.07 1319.77 2998.37 1310.38 2991.84 1314.36ZM2554.51 880.652C2560.72 880.208 2563.42 869.918 2557.46 864.986C2556.41 864.322 2555.23 863.882 2554 863.694C2552.77 863.506 2551.51 863.575 2550.3 863.895C2549.1 864.216 2547.97 864.781 2547 865.556C2546.02 866.331 2545.22 867.299 2544.63 868.399C2541.32 876.147 2547.35 881.147 2554.51 880.652ZM2558.39 958.195C2564.6 957.769 2567.29 947.479 2561.34 942.53C2560.28 941.865 2559.1 941.425 2557.87 941.238C2556.64 941.05 2555.38 941.118 2554.18 941.439C2552.97 941.759 2551.85 942.324 2550.87 943.099C2549.9 943.874 2549.09 944.842 2548.51 945.943C2545.04 953.69 2551.15 958.622 2558.39 958.195ZM2325.01 1054.19C2305.81 1066.77 2285.81 1078.07 2265.12 1088.01C2256.93 1092.51 2264.2 1105.07 2272.41 1100.52C2282.91 1094.75 2320.62 1074.37 2321.98 1073.4C2321.98 1084 2319.97 1107.07 2318.76 1118.3C2318.76 1120.22 2319.52 1122.07 2320.88 1123.43C2322.24 1124.79 2324.09 1125.55 2326.01 1125.55C2327.94 1125.55 2329.78 1124.79 2331.14 1123.43C2332.5 1122.07 2333.26 1120.22 2333.26 1118.3C2333.93 1111.9 2339.02 1062.75 2334.97 1057.1C2333.79 1055.68 2332.21 1054.63 2330.44 1054.11C2328.66 1053.59 2326.77 1053.62 2325.01 1054.19V1054.19ZM2688.4 2761.44C2661.18 2765.1 2635.22 2775.22 2612.7 2790.96C2590.18 2806.69 2571.74 2827.58 2558.93 2851.88C2649.39 2846.64 2740.12 2848.6 2830.27 2857.72C2795.13 2811.04 2739.28 2757.43 2688.4 2761.44V2761.44ZM2384.77 2182.47C2413.94 2190.06 2444.33 2191.76 2474.17 2187.47C2475.96 2186.91 2477.46 2185.66 2478.35 2184.01C2479.24 2182.36 2479.46 2180.43 2478.95 2178.62C2478.44 2176.81 2477.25 2175.27 2475.63 2174.33C2474.01 2173.38 2472.09 2173.1 2470.26 2173.55C2443 2177.31 2415.27 2175.6 2388.68 2168.51C2386.85 2168.07 2384.92 2168.36 2383.3 2169.31C2381.68 2170.26 2380.49 2171.8 2379.99 2173.61C2379.48 2175.42 2379.7 2177.35 2380.59 2179C2381.48 2180.66 2382.98 2181.9 2384.77 2182.47V2182.47Z" fill="#1D1D1B"/>
<path d="M1395.24 1497.34C1363.91 1480.49 1339.05 1453.74 1324.54 1421.26C1310.03 1388.79 1306.69 1352.42 1315.04 1317.84C1317.19 1308.73 1303.24 1304.94 1301.09 1313.95C1292.25 1351.61 1295.95 1391.14 1311.65 1426.5C1327.34 1461.87 1354.16 1491.14 1388.02 1509.85C1396.25 1514.34 1403.45 1501.83 1395.24 1497.34ZM937.951 1351.52C942.086 1376 939.039 1401.15 929.178 1423.93C919.316 1446.7 903.064 1466.14 882.387 1479.87C866.211 1492.5 847.093 1500.82 826.824 1504.05C824.968 1504.14 823.218 1504.94 821.936 1506.29C820.654 1507.63 819.939 1509.42 819.939 1511.28C819.939 1513.14 820.654 1514.92 821.936 1516.27C823.218 1517.61 824.968 1518.42 826.824 1518.51C849.06 1515.95 870.165 1507.33 887.831 1493.59C911.833 1478.42 930.758 1456.43 942.18 1430.43C953.603 1404.44 957.003 1375.62 951.944 1347.68C950.204 1338.45 936.262 1342.39 937.951 1351.52Z" fill="#AC47F5"/>
<path d="M1342.17 412.659C1334.89 381.865 1321 353.024 1301.46 328.141C1281.92 303.258 1257.19 282.93 1228.99 268.57C1200.8 254.211 1169.82 246.164 1138.2 244.99C1106.58 243.816 1075.08 249.542 1045.9 261.771C895.728 325.082 804.652 586.415 1036.99 638.276C1034.58 650.831 1035 663.767 1038.22 676.139C1041.45 688.51 1047.4 700.004 1055.64 709.778C1081.24 734.283 1148.03 735.956 1171.48 703.174C1180.49 737.645 1201.69 737.133 1182.45 749.608C1174.58 754.85 1168.34 762.203 1164.46 770.825C1160.57 779.447 1159.19 788.99 1160.47 798.361C1161.76 807.731 1165.65 816.551 1171.72 823.81C1177.78 831.068 1185.77 836.473 1194.76 839.404C1186.31 846.894 1179.68 856.206 1175.37 866.635C1171.05 877.064 1169.16 888.337 1169.84 899.604C1170.52 910.87 1173.76 921.835 1179.3 931.668C1184.84 941.502 1192.54 949.948 1201.82 956.367C1194.32 966.972 1189.65 979.322 1188.26 992.242C1186.88 1005.16 1188.83 1018.22 1193.92 1030.17C1200.08 1044.22 1210.75 1059.8 1203.46 1073.23C1226.58 1081.76 1258.67 1040.45 1249.18 993.467C1247.46 988.487 1247.11 983.135 1248.18 977.976C1249.25 972.816 1251.68 968.04 1255.24 964.149C1271.19 938.825 1283.51 908.773 1268.05 882.971C1265.21 879.994 1263.51 876.115 1263.24 872.011C1262.97 867.907 1264.15 863.838 1266.57 860.513C1280.03 831.673 1286.4 797.373 1264.62 774.113C1254.38 763.362 1251.7 761.331 1259.2 744.795C1264.38 735.687 1266.88 725.298 1266.41 714.829C1265.94 704.359 1262.51 694.237 1256.53 685.631C1252.15 680.785 1250.66 679.419 1253.12 673.037C1260.03 660.306 1263.53 646.002 1263.27 631.518C1320.82 594.896 1363.33 503.223 1342.17 412.659V412.659ZM1114.23 713.31C1067.06 713.618 1042.3 695.972 1053.75 620.443C1070.91 628.601 1089.58 633.088 1108.57 633.617C1127.56 634.146 1146.46 630.705 1164.04 623.514C1173.44 677.167 1169.14 712.747 1114.23 713.31ZM1233.5 494.469C1227.97 493.752 1225.71 499.281 1226.94 503.684C1220.85 528.557 1211.73 552.588 1199.78 575.238C1185.7 594.782 1165.48 609.054 1142.35 615.78C1119.22 622.507 1094.51 621.3 1072.15 612.354C992.589 585.152 1005.4 512.694 1000.69 488.923C1000.37 487.72 999.739 486.623 998.858 485.742C997.977 484.862 996.881 484.228 995.678 483.906C974.039 478.257 949.756 459.196 948.732 435.1C948.493 428.867 950.046 422.696 953.207 417.318C956.367 411.941 961.003 407.582 966.565 404.758C979.073 399.434 988.903 417.164 993.63 425.987C994.37 427.183 995.439 428.141 996.709 428.746C997.98 429.35 999.397 429.576 1000.79 429.396C1002.19 429.216 1003.5 428.638 1004.58 427.731C1005.65 426.823 1006.44 425.626 1006.86 424.281C1009.87 405.734 1013.86 387.358 1018.8 369.229C1063.92 370.253 1115.17 360.918 1147.66 327.71C1149.52 343.544 1154.5 358.853 1162.31 372.749C1170.13 386.645 1180.62 398.853 1193.19 408.666C1188.54 405.458 1183.13 403.512 1177.51 403.018C1175.58 403.044 1173.75 403.821 1172.39 405.182C1171.03 406.544 1170.26 408.382 1170.24 410.304C1170.85 421.414 1186.36 414.656 1192.27 428.854C1197.39 438.666 1218.1 427.984 1194.62 409.792C1205.85 419.101 1218.31 426.824 1231.64 432.745C1231.23 437.864 1230.92 442.984 1230.51 447.916C1230 454.895 1238.5 456.636 1242.92 453.035C1251.55 445.492 1261.48 439.587 1272.23 435.612C1284.69 431.653 1290.71 434.315 1294.26 446.875C1303.31 482.779 1262.28 498.121 1233.5 494.469V494.469Z" fill="#1D1D1B"/>
<path d="M1064.99 449.153C1064.99 446.324 1063.87 443.611 1061.87 441.611C1059.87 439.611 1057.16 438.487 1054.33 438.487C1051.5 438.487 1048.78 439.611 1046.78 441.611C1044.78 443.611 1043.66 446.324 1043.66 449.153C1043.66 451.981 1044.78 454.694 1046.78 456.694C1048.78 458.694 1051.5 459.818 1054.33 459.818C1057.16 459.818 1059.87 458.694 1061.87 456.694C1063.87 454.694 1064.99 451.981 1064.99 449.153ZM1174.05 456.439C1171.3 456.549 1168.7 457.72 1166.79 459.707C1164.88 461.693 1163.82 464.341 1163.82 467.096C1163.82 469.851 1164.88 472.499 1166.79 474.486C1168.7 476.472 1171.3 477.643 1174.05 477.753C1176.81 477.643 1179.41 476.472 1181.32 474.486C1183.23 472.499 1184.29 469.851 1184.29 467.096C1184.29 464.341 1183.23 461.693 1181.32 459.707C1179.41 457.72 1176.81 456.549 1174.05 456.439V456.439ZM1064.99 403.435C1066.86 403.345 1068.62 402.539 1069.92 401.183C1071.21 399.828 1071.93 398.029 1071.93 396.157C1071.93 394.286 1071.21 392.486 1069.92 391.131C1068.62 389.776 1066.86 388.969 1064.99 388.879C1059.24 389.172 1053.65 390.865 1048.7 393.813C1043.75 396.76 1039.59 400.872 1036.6 405.79C1035.65 407.457 1035.39 409.426 1035.86 411.282C1036.34 413.139 1037.52 414.737 1039.16 415.739C1049.24 421.217 1051 403.435 1064.99 403.435ZM1154.69 511.798C1136.19 538.181 1082.28 534.273 1075.23 504.716C1073.08 495.603 1059.14 499.494 1061.29 508.607C1070.74 549.017 1140.3 557.891 1167.19 519.273C1172.62 511.389 1160.01 504.204 1154.69 511.798ZM1207.98 1092.3C1214.53 1085.63 1204.29 1075.39 1197.74 1082.06C1187.7 1092.4 1180.2 1104.94 1175.83 1118.67C1171.45 1132.4 1170.32 1146.96 1172.52 1161.21C1172.78 1162.12 1173.21 1162.98 1173.8 1163.73C1174.38 1164.47 1175.11 1165.1 1175.94 1165.56C1176.77 1166.03 1177.68 1166.33 1178.63 1166.44C1179.57 1166.55 1180.53 1166.48 1181.44 1166.22C1182.36 1165.97 1183.21 1165.53 1183.96 1164.95C1184.71 1164.36 1185.33 1163.63 1185.8 1162.8C1186.27 1161.97 1186.56 1161.06 1186.68 1160.12C1186.79 1159.17 1186.72 1158.21 1186.46 1157.3C1184.88 1145.54 1186 1133.58 1189.73 1122.32C1193.45 1111.06 1199.7 1100.79 1207.98 1092.3V1092.3ZM1217.72 1089.84C1216.78 1090.04 1215.89 1090.45 1215.13 1091.04C1214.37 1091.64 1213.75 1092.39 1213.32 1093.25C1199.93 1117.72 1195.7 1146.15 1201.38 1173.46C1201.89 1175.31 1203.13 1176.88 1204.8 1177.82C1206.47 1178.76 1208.45 1178.99 1210.3 1178.48C1212.15 1177.96 1213.72 1176.73 1214.66 1175.05C1215.6 1173.38 1215.84 1171.4 1215.32 1169.55C1211.4 1150.17 1213.29 1130.07 1220.74 1111.75C1226.7 1126.42 1229.6 1142.15 1229.28 1157.98C1229.37 1159.84 1230.17 1161.59 1231.51 1162.87C1232.86 1164.15 1234.65 1164.87 1236.5 1164.87C1238.36 1164.87 1240.15 1164.15 1241.49 1162.87C1242.84 1161.59 1243.64 1159.84 1243.73 1157.98C1244.1 1135.01 1238.52 1112.34 1227.54 1092.16C1227.1 1091.3 1226.49 1090.55 1225.73 1089.96C1224.98 1089.36 1224.11 1088.94 1223.17 1088.72C1222.24 1088.5 1221.26 1088.48 1220.32 1088.68C1219.38 1088.87 1218.49 1089.27 1217.72 1089.84V1089.84ZM1230.95 1083.49C1244.71 1100.93 1252.74 1122.2 1253.92 1144.38C1254.01 1146.25 1254.82 1148.01 1256.17 1149.3C1257.53 1150.59 1259.33 1151.31 1261.2 1151.31C1263.07 1151.31 1264.87 1150.59 1266.22 1149.3C1267.58 1148.01 1268.38 1146.25 1268.47 1144.38C1267.08 1118.41 1257.58 1093.53 1241.31 1073.24C1236.14 1066.77 1223.92 1074.79 1230.95 1083.49Z" fill="#1D1D1B"/>
</svg>
