<svg width="402" height="102" viewBox="0 0 402 102" fill="none" xmlns="http://www.w3.org/2000/svg">
<path d="M97.5954 0H9.2948C4.16142 0 0 4.15154 0 9.27273V92.7273C0 97.8485 4.16142 102 9.2948 102H97.5954C102.729 102 106.89 97.8485 106.89 92.7273V9.27273C106.89 4.15154 102.729 0 97.5954 0Z" fill="#7F9AFC"/>
<path d="M85.7255 48.3331C84.5929 41.682 81.4058 35.5463 76.6055 30.7764C71.8054 26.0067 65.6304 22.8395 58.937 21.7142C57.5867 21.4672 56.221 21.3134 54.8494 21.2538V19.8999C54.8494 19.5408 54.7058 19.1964 54.4502 18.9425C54.1948 18.6886 53.8481 18.5459 53.4867 18.5459C53.1254 18.5459 52.7787 18.6886 52.5233 18.9425C52.2677 19.1964 52.1241 19.5408 52.1241 19.8999V21.2538C50.7524 21.3129 49.3866 21.4668 48.0363 21.7142C41.3201 22.8493 35.1284 26.0403 30.3257 30.8418C25.5231 35.6432 22.3494 41.8151 21.248 48.4957C21.1117 49.4162 21.0027 50.337 20.921 51.2035C20.8913 51.4951 20.9576 51.7882 21.1099 52.0392C21.2622 52.29 21.4924 52.485 21.7657 52.5949C22.0391 52.7048 22.3409 52.7235 22.6259 52.6484C22.9109 52.5733 23.1637 52.4085 23.3463 52.1783L24.0822 51.3931C25.1114 50.3796 26.3336 49.5801 27.6772 49.0413C29.021 48.5026 30.4593 48.2356 31.9082 48.2557C33.3572 48.2759 34.7875 48.583 36.1155 49.1589C37.4435 49.7347 38.6427 50.5679 39.6428 51.6097C40.0295 52.0311 40.5038 52.3638 41.0326 52.5847C41.483 52.7725 41.9621 52.8823 42.4499 52.9095C43.0241 52.9227 43.5948 52.8163 44.125 52.597C44.6555 52.3779 45.1337 52.0508 45.5292 51.6368C47.2748 49.8321 49.5955 48.6839 52.0969 48.3874V78.7162C52.0969 79.9729 52.5993 81.1783 53.4937 82.0671C54.3881 82.9557 55.6011 83.455 56.8659 83.455C58.1307 83.455 59.3439 82.9557 60.2383 82.0671C61.1324 81.1783 61.635 79.9729 61.635 78.7162C61.635 78.3571 61.4914 78.0126 61.2358 77.7588C60.9804 77.5049 60.6337 77.3621 60.2724 77.3621C59.9111 77.3621 59.5644 77.5049 59.309 77.7588C59.0534 78.0126 58.9098 78.3571 58.9098 78.7162C58.9098 79.2547 58.6944 79.7714 58.3112 80.1523C57.9278 80.5332 57.408 80.7471 56.8659 80.7471C56.3237 80.7471 55.8039 80.5332 55.4208 80.1523C55.0373 79.7714 54.8219 79.2547 54.8219 78.7162V48.4685C57.3234 48.765 59.6441 49.9135 61.3896 51.7182C61.7633 52.1157 62.2146 52.4338 62.7158 52.6526C63.2172 52.8712 63.7582 52.9864 64.3057 52.9908H64.3875C64.875 52.963 65.3541 52.8531 65.8044 52.6658H65.968C66.4542 52.4498 66.8901 52.1364 67.2489 51.745C68.2471 50.7016 69.445 49.8662 70.7721 49.288C72.0991 48.7096 73.5289 48.4001 74.9777 48.3774C76.4265 48.3549 77.8654 48.6194 79.2101 49.1559C80.5551 49.6921 81.7785 50.4895 82.8095 51.5014L83.5454 52.2868C83.7281 52.5168 83.9809 52.6816 84.2658 52.7567C84.5509 52.8318 84.8527 52.813 85.126 52.7032C85.3993 52.5933 85.6296 52.3983 85.7818 52.1475C85.9342 51.8967 86.0004 51.6034 85.9707 51.3118C85.9981 50.337 85.8889 49.4162 85.7255 48.3331ZM39.8608 46.9791C39.8608 47.4395 39.8608 47.927 39.8608 48.3874C37.607 46.6886 34.8772 45.7291 32.0497 45.6417C29.2224 45.5543 26.4377 46.3437 24.0822 47.8999C25.211 42.3237 27.923 37.1852 31.8975 33.092C35.8719 28.9988 40.9427 26.1217 46.5103 24.8013C42.586 29.2422 39.8608 37.5014 39.8608 46.9791ZM64.2511 50.2558C63.9143 50.2313 63.6009 50.0755 63.3792 49.8226C62.1058 48.4868 60.5719 47.423 58.8712 46.696C57.1703 45.9688 55.3383 45.594 53.4867 45.594C51.6352 45.594 49.8032 45.9688 48.1023 46.696C46.4016 47.423 44.8677 48.4868 43.5943 49.8226C43.4865 49.9501 43.3536 50.0544 43.2034 50.129C43.0536 50.2035 42.8897 50.2466 42.7222 50.2558C42.586 49.1185 42.586 48.0353 42.586 46.9791C42.586 34.4957 47.5732 23.9619 53.4867 23.9619C59.4003 23.9619 64.3875 34.4957 64.3875 46.9791C64.3875 48.0353 64.3875 49.1185 64.2511 50.2558ZM75.2882 45.6253C72.3398 45.6253 69.4712 46.5755 67.1125 48.3331C67.1125 47.8456 67.1125 47.3855 67.1125 46.898C67.1125 37.5014 64.3875 29.2422 60.4632 24.8013C66.0259 26.1264 71.0906 29.0053 75.06 33.0983C79.0293 37.1913 81.7371 42.3272 82.8641 47.8999C80.6208 46.4135 77.9843 45.622 75.2882 45.6253Z" fill="white"/>
<path d="M131.321 81.4078C130.332 81.4078 129.419 81.1542 128.584 80.6473C127.758 80.14 127.096 79.4654 126.597 78.6232C126.106 77.772 125.861 76.8394 125.861 75.8252V74.5483C125.861 74.4487 125.907 74.3991 125.997 74.3991H129.129C129.202 74.3991 129.238 74.4487 129.238 74.5483V75.8252C129.238 76.4319 129.442 76.9572 129.851 77.4009C130.259 77.8355 130.749 78.0527 131.321 78.0527C131.902 78.0527 132.397 77.8309 132.805 77.3872C133.214 76.9345 133.418 76.4138 133.418 75.8252C133.418 75.146 132.973 74.553 132.083 74.0458C131.938 73.9551 131.748 73.8466 131.512 73.7198C131.285 73.584 131.013 73.4301 130.695 73.258C130.377 73.0858 130.068 72.9184 129.769 72.7555C129.469 72.5832 129.179 72.4203 128.897 72.2663C127.881 71.6687 127.123 70.9218 126.624 70.0251C126.133 69.1196 125.889 68.1054 125.889 66.9825C125.889 65.9502 126.143 65.0176 126.651 64.1845C127.159 63.3603 127.822 62.7085 128.639 62.2286C129.465 61.7395 130.359 61.4949 131.321 61.4949C132.311 61.4949 133.218 61.7395 134.044 62.2286C134.87 62.7265 135.528 63.3877 136.018 64.2116C136.518 65.0357 136.767 65.9593 136.767 66.9825V69.2645C136.767 69.3371 136.731 69.3732 136.658 69.3732H133.527C133.454 69.3732 133.418 69.3371 133.418 69.2645L133.391 66.9825C133.391 66.3306 133.186 65.8009 132.778 65.3934C132.369 64.9858 131.884 64.7821 131.321 64.7821C130.749 64.7821 130.259 64.9995 129.851 65.4342C129.442 65.8688 129.238 66.3849 129.238 66.9825C129.238 67.5892 129.365 68.0964 129.619 68.5039C129.882 68.9115 130.359 69.3007 131.049 69.6721C131.121 69.7082 131.289 69.7989 131.553 69.9437C131.816 70.0886 132.106 70.2516 132.424 70.4326C132.751 70.6047 133.046 70.7632 133.309 70.9081C133.572 71.044 133.731 71.1253 133.785 71.1527C134.711 71.6687 135.442 72.3027 135.978 73.0543C136.522 73.8058 136.794 74.7294 136.794 75.8252C136.794 76.8846 136.549 77.8355 136.059 78.6777C135.56 79.5197 134.897 80.1852 134.071 80.6744C133.245 81.1633 132.329 81.4078 131.321 81.4078ZM148.129 81.1362H139.115C139.043 81.1362 139.007 81.0909 139.007 81.0003L139.034 61.889C139.034 61.8164 139.07 61.7803 139.143 61.7803H148.102C148.174 61.7803 148.211 61.8255 148.211 61.9161V65.0266C148.211 65.099 148.174 65.1354 148.102 65.1354H142.383V69.482H148.102C148.174 69.482 148.211 69.5181 148.211 69.5905L148.238 72.7418C148.238 72.8143 148.202 72.8505 148.129 72.8505H142.383V77.7131H148.129C148.202 77.7131 148.238 77.7586 148.238 77.849V81.0274C148.238 81.1 148.202 81.1362 148.129 81.1362ZM156.101 81.4078C155.093 81.4078 154.185 81.1589 153.377 80.6607C152.561 80.1627 151.903 79.4926 151.403 78.6504C150.913 77.8084 150.668 76.8665 150.668 75.8252V67.0096C150.668 65.9956 150.918 65.0718 151.417 64.2387C151.907 63.3967 152.565 62.7265 153.391 62.2286C154.217 61.7214 155.12 61.4678 156.101 61.4678C157.126 61.4678 158.052 61.7123 158.878 62.2012C159.704 62.6994 160.358 63.365 160.839 64.1981C161.329 65.031 161.574 65.9683 161.574 67.0096V68.2865C161.574 68.359 161.528 68.3952 161.438 68.3952H158.306C158.234 68.3952 158.197 68.359 158.197 68.2865V67.2271C158.197 66.5207 157.998 65.9368 157.598 65.4748C157.199 65.013 156.7 64.7821 156.101 64.7821C155.565 64.7821 155.089 65.0039 154.671 65.4476C154.253 65.8913 154.045 66.412 154.045 67.0096V75.8252C154.045 76.4319 154.249 76.9572 154.657 77.4009C155.066 77.8355 155.547 78.0527 156.101 78.0527C156.7 78.0527 157.199 77.8399 157.598 77.4143C157.998 76.9797 158.197 76.45 158.197 75.8252V74.4533H156.25C156.151 74.4533 156.101 74.4081 156.101 74.3175V71.2069C156.101 71.1163 156.151 71.0711 156.25 71.0711H161.465C161.538 71.0711 161.574 71.1163 161.574 71.2069V75.8252C161.574 76.8665 161.329 77.8084 160.839 78.6504C160.339 79.4926 159.681 80.1627 158.865 80.6607C158.048 81.1589 157.126 81.4078 156.101 81.4078ZM168.96 81.4078C167.98 81.4078 167.072 81.1542 166.237 80.6473C165.402 80.14 164.735 79.4608 164.236 78.6098C163.745 77.7495 163.5 76.8123 163.5 75.7981L163.555 61.889C163.555 61.8164 163.591 61.7803 163.664 61.7803H166.795C166.868 61.7803 166.904 61.8164 166.904 61.889V75.7981C166.904 76.4228 167.104 76.9572 167.503 77.4009C167.903 77.8355 168.388 78.0527 168.96 78.0527C169.559 78.0527 170.058 77.8355 170.458 77.4009C170.857 76.9572 171.057 76.4228 171.057 75.7981V61.889C171.057 61.8164 171.093 61.7803 171.166 61.7803H174.297C174.37 61.7803 174.406 61.8164 174.406 61.889L174.461 75.7981C174.461 76.8213 174.216 77.763 173.725 78.6232C173.226 79.4745 172.564 80.1537 171.738 80.6607C170.912 81.1589 169.986 81.4078 168.96 81.4078ZM180.199 81.1362H177.041C176.968 81.1362 176.932 81.0909 176.932 81.0003L176.986 61.889C176.986 61.8164 177.022 61.7803 177.095 61.7803H182.732C183.739 61.7803 184.665 62.0248 185.509 62.5137C186.354 63.0026 187.025 63.6592 187.524 64.4833C188.033 65.3074 188.287 66.24 188.287 67.2813C188.287 67.9605 188.182 68.5762 187.974 69.1287C187.765 69.6811 187.52 70.1475 187.239 70.5277C186.966 70.9081 186.716 71.1888 186.49 71.3699C187.497 72.4838 188.001 73.7922 188.001 75.2955L188.028 81.0003C188.028 81.0909 187.983 81.1362 187.892 81.1362H184.733C184.661 81.1362 184.624 81.109 184.624 81.0546V75.2955C184.624 74.6253 184.388 74.0458 183.916 73.5569C183.444 73.0677 182.863 72.8234 182.174 72.8234H180.336L180.308 81.0003C180.308 81.0909 180.272 81.1362 180.199 81.1362ZM182.732 65.108H180.336V69.482H182.732C183.304 69.482 183.812 69.2692 184.257 68.8435C184.711 68.4179 184.937 67.8972 184.937 67.2813C184.937 66.6927 184.72 66.1857 184.284 65.7601C183.848 65.3255 183.331 65.108 182.732 65.108ZM195.251 81.4078C194.262 81.4078 193.349 81.1542 192.514 80.6473C191.688 80.14 191.021 79.4654 190.513 78.6232C190.014 77.772 189.764 76.8394 189.764 75.8252L189.791 67.0096C189.791 65.9773 190.041 65.0491 190.54 64.2252C191.03 63.3921 191.693 62.7265 192.528 62.2286C193.363 61.7214 194.271 61.4678 195.251 61.4678C196.268 61.4678 197.18 61.7167 197.988 62.2149C198.805 62.7129 199.458 63.3831 199.948 64.2252C200.447 65.0584 200.697 65.9864 200.697 67.0096L200.724 75.8252C200.724 76.8394 200.479 77.7676 199.989 78.6098C199.49 79.4608 198.827 80.14 198.001 80.6473C197.175 81.1542 196.259 81.4078 195.251 81.4078ZM195.251 78.0527C195.814 78.0527 196.304 77.8265 196.721 77.3737C197.139 76.9117 197.348 76.3957 197.348 75.8252L197.32 67.0096C197.32 66.3939 197.125 65.8732 196.735 65.4476C196.345 65.022 195.85 64.8092 195.251 64.8092C194.679 64.8092 194.189 65.0176 193.781 65.4342C193.372 65.8505 193.168 66.3758 193.168 67.0096V75.8252C193.168 76.4319 193.372 76.9572 193.781 77.4009C194.189 77.8355 194.679 78.0527 195.251 78.0527ZM207.852 81.4078C206.862 81.4078 205.95 81.1542 205.115 80.6473C204.289 80.14 203.626 79.4654 203.127 78.6232C202.637 77.772 202.392 76.8394 202.392 75.8252V74.5483C202.392 74.4487 202.437 74.3991 202.528 74.3991H205.66C205.732 74.3991 205.768 74.4487 205.768 74.5483V75.8252C205.768 76.4319 205.973 76.9572 206.381 77.4009C206.79 77.8355 207.28 78.0527 207.852 78.0527C208.433 78.0527 208.927 77.8309 209.336 77.3872C209.744 76.9345 209.949 76.4138 209.949 75.8252C209.949 75.146 209.504 74.553 208.614 74.0458C208.469 73.9551 208.278 73.8466 208.042 73.7198C207.815 73.584 207.543 73.4301 207.225 73.258C206.908 73.0858 206.599 72.9184 206.299 72.7555C206 72.5832 205.709 72.4203 205.428 72.2663C204.411 71.6687 203.654 70.9218 203.154 70.0251C202.664 69.1196 202.419 68.1054 202.419 66.9825C202.419 65.9502 202.673 65.0176 203.182 64.1845C203.69 63.3603 204.353 62.7085 205.169 62.2286C205.995 61.7395 206.89 61.4949 207.852 61.4949C208.841 61.4949 209.749 61.7395 210.575 62.2286C211.401 62.7265 212.059 63.3877 212.549 64.2116C213.048 65.0357 213.298 65.9593 213.298 66.9825V69.2645C213.298 69.3371 213.261 69.3732 213.189 69.3732H210.057C209.985 69.3732 209.949 69.3371 209.949 69.2645L209.921 66.9825C209.921 66.3306 209.717 65.8009 209.309 65.3934C208.9 64.9858 208.414 64.7821 207.852 64.7821C207.28 64.7821 206.79 64.9995 206.381 65.4342C205.973 65.8688 205.768 66.3849 205.768 66.9825C205.768 67.5892 205.896 68.0964 206.15 68.5039C206.413 68.9115 206.89 69.3007 207.579 69.6721C207.652 69.7082 207.82 69.7989 208.083 69.9437C208.346 70.0886 208.637 70.2516 208.955 70.4326C209.281 70.6047 209.576 70.7632 209.84 70.9081C210.103 71.044 210.262 71.1253 210.316 71.1527C211.242 71.6687 211.973 72.3027 212.508 73.0543C213.053 73.8058 213.325 74.7294 213.325 75.8252C213.325 76.8846 213.08 77.8355 212.59 78.6777C212.091 79.5197 211.428 80.1852 210.602 80.6744C209.776 81.1633 208.859 81.4078 207.852 81.4078Z" fill="#7F9AFC"/>
<path d="M263.159 28.3977C265.726 28.3977 267.807 26.322 267.807 23.7614C267.807 21.2008 265.726 19.125 263.159 19.125C260.592 19.125 258.512 21.2008 258.512 23.7614C258.512 26.322 260.592 28.3977 263.159 28.3977Z" stroke="#7F9AFC" stroke-width="2"/>
<path d="M263.159 51.5794C265.726 51.5794 267.807 49.5036 267.807 46.943C267.807 44.3824 265.726 42.3066 263.159 42.3066C260.592 42.3066 258.512 44.3824 258.512 46.943C258.512 49.5036 260.592 51.5794 263.159 51.5794Z" stroke="#7F9AFC" stroke-width="2"/>
<path d="M263.158 27.8184V41.7274" stroke="#7F9AFC" stroke-width="2"/>
<path d="M135.873 51.453C134.194 51.453 132.658 51.0304 131.267 50.1852C129.89 49.3402 128.793 48.2082 127.976 46.7895C127.175 45.3557 126.773 43.7636 126.773 42.0127L126.819 27.5467C126.819 25.8262 127.212 24.2719 127.999 22.8832C128.786 21.4796 129.867 20.3553 131.244 19.5101C132.636 18.6498 134.179 18.2197 135.873 18.2197C137.598 18.2197 139.133 18.6348 140.48 19.4648C141.841 20.2949 142.923 21.4193 143.725 22.838C144.542 24.2415 144.95 25.8111 144.95 27.5467V29.6748C144.95 29.7956 144.89 29.8559 144.769 29.8559H139.549C139.428 29.8559 139.368 29.7956 139.368 29.6748V27.5467C139.368 26.5205 139.035 25.6375 138.369 24.898C137.704 24.1585 136.872 23.7887 135.873 23.7887C134.769 23.7887 133.922 24.1661 133.332 24.9207C132.742 25.6753 132.447 26.5506 132.447 27.5467V42.0127C132.447 43.1446 132.78 44.0728 133.445 44.7973C134.111 45.5066 134.92 45.8613 135.873 45.8613C136.872 45.8613 137.704 45.4688 138.369 44.6841C139.035 43.8841 139.368 42.9937 139.368 42.0127V39.8621C139.368 39.7413 139.428 39.681 139.549 39.681H144.814C144.935 39.681 144.995 39.7413 144.995 39.8621V42.0127C144.995 43.7483 144.587 45.333 143.77 46.7668C142.938 48.1855 141.841 49.3249 140.48 50.1852C139.118 51.0304 137.583 51.453 135.873 51.453ZM147.276 50.7738L153.04 18.9215C153.07 18.8008 153.145 18.7404 153.266 18.7404H160.006C160.127 18.7404 160.203 18.8008 160.233 18.9215L165.77 50.7738C165.785 50.9247 165.724 51.0003 165.588 51.0003H160.437C160.286 51.0003 160.203 50.9247 160.188 50.7738L159.688 47.3781H153.357L152.858 50.7738C152.843 50.9247 152.767 51.0003 152.631 51.0003H147.457C147.336 51.0003 147.276 50.9247 147.276 50.7738ZM156.852 29.4031L156.58 27.6826L156.375 29.4031L154.288 42.4202H158.758L156.852 29.4031ZM174.585 51.0003H169.321C169.2 51.0003 169.139 50.9247 169.139 50.7738L169.23 18.9215C169.23 18.8008 169.291 18.7404 169.412 18.7404H178.806C180.486 18.7404 182.028 19.1479 183.435 19.9629C184.842 20.7779 185.962 21.8721 186.794 23.2454C187.641 24.6189 188.065 26.1735 188.065 27.9091C188.065 29.0408 187.891 30.0673 187.543 30.9879C187.195 31.9084 186.786 32.6857 186.317 33.3195C185.863 33.9535 185.448 34.4213 185.069 34.7231C186.749 36.5795 187.588 38.7605 187.588 41.2657L187.634 50.7738C187.634 50.9247 187.558 51.0003 187.407 51.0003H182.142C182.021 51.0003 181.96 50.9551 181.96 50.8644V41.2657C181.96 40.1488 181.567 39.1829 180.78 38.368C179.994 37.5529 179.026 37.1454 177.876 37.1454H174.812L174.767 50.7738C174.767 50.9247 174.706 51.0003 174.585 51.0003ZM178.806 24.2869H174.812V31.5764H178.806C179.759 31.5764 180.607 31.2218 181.348 30.5124C182.104 29.803 182.483 28.9353 182.483 27.9091C182.483 26.928 182.119 26.0828 181.393 25.3735C180.667 24.649 179.805 24.2869 178.806 24.2869ZM207.228 51.0003H192.206C192.085 51.0003 192.024 50.9247 192.024 50.7738L192.069 18.9668C192.069 18.8159 192.145 18.7404 192.296 18.7404H197.47C197.622 18.7404 197.697 18.8159 197.697 18.9668L197.652 45.2954H207.228C207.379 45.2954 207.455 45.3708 207.455 45.5217V50.7738C207.455 50.9247 207.379 51.0003 207.228 51.0003ZM219.561 51.453C217.912 51.453 216.392 51.0304 215 50.1852C213.623 49.3402 212.511 48.2157 211.664 46.8122C210.832 45.3935 210.416 43.8389 210.416 42.1485L210.461 27.4563C210.461 25.7358 210.877 24.1886 211.709 22.8153C212.526 21.4268 213.631 20.3175 215.022 19.4875C216.414 18.6423 217.927 18.2197 219.561 18.2197C221.255 18.2197 222.776 18.6348 224.122 19.4648C225.484 20.2949 226.573 21.4117 227.39 22.8153C228.222 24.2039 228.638 25.7509 228.638 27.4563L228.683 42.1485C228.683 43.8389 228.275 45.3859 227.458 46.7895C226.626 48.2082 225.521 49.3402 224.145 50.1852C222.768 51.0304 221.24 51.453 219.561 51.453ZM219.561 45.8613C220.499 45.8613 221.316 45.4839 222.012 44.7293C222.708 43.9597 223.055 43.0994 223.055 42.1485L223.01 27.4563C223.01 26.4298 222.685 25.5622 222.034 24.8528C221.384 24.1434 220.559 23.7887 219.561 23.7887C218.608 23.7887 217.791 24.136 217.11 24.8301C216.429 25.5244 216.089 26.3997 216.089 27.4563V42.1485C216.089 43.1597 216.429 44.0351 217.11 44.7748C217.791 45.4992 218.608 45.8613 219.561 45.8613ZM240.561 51.453C238.914 51.453 237.392 51.0304 236 50.1852C234.624 49.3402 233.52 48.2157 232.689 46.8122C231.871 45.3935 231.463 43.8389 231.463 42.1485V40.0207C231.463 39.8547 231.538 39.7714 231.689 39.7714H236.908C237.029 39.7714 237.09 39.8547 237.09 40.0207V42.1485C237.09 43.1597 237.431 44.0351 238.112 44.7748C238.793 45.4992 239.609 45.8613 240.561 45.8613C241.53 45.8613 242.355 45.4916 243.036 44.7521C243.717 43.9975 244.056 43.1296 244.056 42.1485C244.056 41.0168 243.315 40.0281 241.832 39.1829C241.591 39.0319 241.272 38.8509 240.88 38.6397C240.501 38.4132 240.048 38.1566 239.518 37.8698C238.988 37.5831 238.475 37.304 237.975 37.0323C237.475 36.7455 236.992 36.4738 236.523 36.2172C234.829 35.2213 233.565 33.976 232.733 32.4819C231.916 30.9728 231.508 29.2824 231.508 27.4109C231.508 25.6903 231.932 24.136 232.779 22.7474C233.625 21.374 234.731 20.2874 236.093 19.4875C237.468 18.6725 238.958 18.265 240.561 18.265C242.211 18.265 243.724 18.6725 245.102 19.4875C246.477 20.3175 247.574 21.4193 248.392 22.7927C249.224 24.1661 249.64 25.7054 249.64 27.4109V31.2141C249.64 31.3349 249.58 31.3954 249.459 31.3954H244.237C244.117 31.3954 244.056 31.3349 244.056 31.2141L244.012 27.4109C244.012 26.3244 243.67 25.4414 242.99 24.7621C242.309 24.0832 241.5 23.7435 240.561 23.7435C239.609 23.7435 238.793 24.1056 238.112 24.8301C237.431 25.5545 237.09 26.4148 237.09 27.4109C237.09 28.4221 237.301 29.2673 237.726 29.9465C238.163 30.6255 238.958 31.2746 240.108 31.8933C240.229 31.9538 240.51 32.1048 240.947 32.3461C241.386 32.5876 241.872 32.8593 242.399 33.1612C242.945 33.4479 243.436 33.712 243.875 33.9535C244.314 34.1798 244.579 34.3156 244.67 34.361C246.213 35.2213 247.43 36.2777 248.322 37.5305C249.231 38.783 249.684 40.3225 249.684 42.1485C249.684 43.9145 249.275 45.4992 248.46 46.9026C247.628 48.3063 246.522 49.4155 245.146 50.2306C243.77 51.0455 242.241 51.453 240.561 51.453Z" fill="#7F9AFC"/>
<path d="M283.804 51.0001H278.585C278.434 51.0001 278.357 50.9245 278.357 50.7736L278.448 18.9214C278.448 18.8006 278.508 18.7402 278.629 18.7402H293.515C293.668 18.7402 293.743 18.8006 293.743 18.9214V24.1509C293.743 24.2717 293.682 24.332 293.561 24.332H284.03V31.5311H293.561C293.682 31.5311 293.743 31.6064 293.743 31.7573L293.789 37.0094C293.789 37.1302 293.712 37.1907 293.561 37.1907H284.03V50.7736C284.03 50.9245 283.955 51.0001 283.804 51.0001ZM293.55 50.7736L299.313 18.9214C299.343 18.8006 299.419 18.7402 299.54 18.7402H306.279C306.402 18.7402 306.477 18.8006 306.507 18.9214L312.044 50.7736C312.058 50.9245 311.998 51.0001 311.863 51.0001H306.711C306.56 51.0001 306.477 50.9245 306.463 50.7736L305.963 47.3779H299.631L299.131 50.7736C299.117 50.9245 299.041 51.0001 298.906 51.0001H293.731C293.61 51.0001 293.55 50.9245 293.55 50.7736ZM303.126 29.403L302.854 27.6824L302.649 29.403L300.56 42.42H305.031L303.126 29.403ZM320.86 51.0001H315.595C315.474 51.0001 315.413 50.9245 315.413 50.7736L315.504 18.9214C315.504 18.8006 315.564 18.7402 315.685 18.7402H325.08C326.76 18.7402 328.303 19.1477 329.709 19.9627C331.117 20.7777 332.235 21.8719 333.069 23.2452C333.915 24.6187 334.338 26.1733 334.338 27.9089C334.338 29.0407 334.166 30.0671 333.817 30.9877C333.469 31.9082 333.06 32.6855 332.59 33.3193C332.137 33.9533 331.721 34.4212 331.342 34.723C333.022 36.5794 333.861 38.7603 333.861 41.2656L333.908 50.7736C333.908 50.9245 333.831 51.0001 333.68 51.0001H328.417C328.296 51.0001 328.233 50.9549 328.233 50.8643V41.2656C328.233 40.1487 327.841 39.1827 327.055 38.3679C326.267 37.5528 325.298 37.1453 324.151 37.1453H321.086L321.041 50.7736C321.041 50.9245 320.981 51.0001 320.86 51.0001ZM325.08 24.2868H321.086V31.5763H325.08C326.033 31.5763 326.881 31.2216 327.622 30.5122C328.377 29.8029 328.756 28.9352 328.756 27.9089C328.756 26.9279 328.394 26.0827 327.666 25.3733C326.941 24.6489 326.079 24.2868 325.08 24.2868ZM343.744 51.0001H338.525C338.374 51.0001 338.297 50.9245 338.297 50.7736L338.388 18.9214C338.388 18.8006 338.448 18.7402 338.571 18.7402H353.457C353.608 18.7402 353.682 18.8006 353.682 18.9214V24.1509C353.682 24.2717 353.622 24.332 353.501 24.332H343.972V31.5311H353.501C353.622 31.5311 353.682 31.6064 353.682 31.7573L353.729 37.0094C353.729 37.1302 353.652 37.1907 353.501 37.1907H343.972V50.7736C343.972 50.9245 343.895 51.0001 343.744 51.0001ZM353.49 50.7736L359.255 18.9214C359.285 18.8006 359.359 18.7402 359.48 18.7402H366.221C366.342 18.7402 366.416 18.8006 366.447 18.9214L371.984 50.7736C372 50.9245 371.94 51.0001 371.803 51.0001H366.651C366.5 51.0001 366.416 50.9245 366.402 50.7736L365.903 47.3779H359.571L359.073 50.7736C359.057 50.9245 358.98 51.0001 358.846 51.0001H353.671C353.55 51.0001 353.49 50.9245 353.49 50.7736ZM363.066 29.403L362.794 27.6824L362.589 29.403L360.503 42.42H364.973L363.066 29.403ZM380.414 51.0001H375.762C375.521 51.0001 375.4 50.8944 375.4 50.6832L375.353 19.1025C375.353 18.861 375.474 18.7402 375.716 18.7402H379.915L387.766 37.0094L387.539 19.1025C387.539 18.861 387.676 18.7402 387.948 18.7402H392.556C392.737 18.7402 392.827 18.861 392.827 19.1025L392.872 50.7284C392.872 50.9095 392.797 51.0001 392.646 51.0001H388.561L380.505 33.9306L380.844 50.638C380.844 50.8793 380.702 51.0001 380.414 51.0001Z" fill="#7F9AFC"/>
</svg>
