<svg width="173" height="44" viewBox="0 0 173 44" fill="none" xmlns="http://www.w3.org/2000/svg">
<rect width="46" height="44" rx="4" fill="#7F9AFC"/>
<path d="M36.8915 20.8494C36.4041 17.9803 35.0325 15.3335 32.9667 13.2759C30.901 11.2184 28.2436 9.85213 25.3631 9.36671C24.782 9.26017 24.1943 9.19382 23.604 9.16813V8.58406C23.604 8.42916 23.5422 8.2806 23.4322 8.17107C23.3223 8.06154 23.1731 8 23.0176 8C22.8621 8 22.7129 8.06154 22.603 8.17107C22.493 8.2806 22.4312 8.42916 22.4312 8.58406V9.16813C21.8409 9.19363 21.2531 9.25999 20.672 9.36671C17.7817 9.85636 15.1171 11.2329 13.0503 13.3041C10.9835 15.3753 9.61771 18.0377 9.14371 20.9195C9.08507 21.3166 9.03816 21.7138 9.00298 22.0876C8.99021 22.2134 9.01874 22.3398 9.08429 22.4481C9.14984 22.5563 9.24887 22.6404 9.3665 22.6878C9.48414 22.7352 9.61404 22.7433 9.73669 22.7109C9.85935 22.6785 9.96814 22.6074 10.0467 22.5081L10.3634 22.1694C10.8063 21.7322 11.3323 21.3873 11.9105 21.1549C12.4888 20.9225 13.1078 20.8073 13.7313 20.816C14.3549 20.8247 14.9704 20.9572 15.5419 21.2056C16.1134 21.454 16.6295 21.8134 17.0599 22.2628C17.2263 22.4446 17.4304 22.5881 17.658 22.6834C17.8518 22.7644 18.058 22.8118 18.2679 22.8235C18.515 22.8292 18.7606 22.7833 18.9888 22.6887C19.2171 22.5942 19.4229 22.4531 19.5931 22.2745C20.3443 21.496 21.343 21.0007 22.4195 20.8728V33.9558C22.4195 34.4979 22.6357 35.0179 23.0206 35.4013C23.4055 35.7846 23.9275 36 24.4718 36C25.0161 36 25.5382 35.7846 25.9231 35.4013C26.3079 35.0179 26.5242 34.4979 26.5242 33.9558C26.5242 33.8009 26.4624 33.6523 26.3524 33.5428C26.2425 33.4333 26.0933 33.3717 25.9378 33.3717C25.7823 33.3717 25.6331 33.4333 25.5232 33.5428C25.4132 33.6523 25.3514 33.8009 25.3514 33.9558C25.3514 34.1881 25.2587 34.411 25.0938 34.5753C24.9288 34.7396 24.7051 34.8319 24.4718 34.8319C24.2385 34.8319 24.0148 34.7396 23.8499 34.5753C23.6849 34.411 23.5922 34.1881 23.5922 33.9558V20.9078C24.6687 21.0357 25.6674 21.5311 26.4186 22.3096C26.5794 22.4811 26.7736 22.6183 26.9893 22.7127C27.2051 22.807 27.4379 22.8567 27.6735 22.8586H27.7087C27.9185 22.8466 28.1247 22.7992 28.3185 22.7184H28.3889C28.5981 22.6252 28.7857 22.49 28.9401 22.3212C29.3697 21.8711 29.8852 21.5107 30.4563 21.2613C31.0274 21.0118 31.6427 20.8783 32.2662 20.8685C32.8897 20.8588 33.5089 20.9729 34.0876 21.2043C34.6664 21.4356 35.1929 21.7796 35.6366 22.2161L35.9533 22.5549C36.0319 22.6541 36.1407 22.7252 36.2633 22.7576C36.386 22.79 36.5159 22.7819 36.6335 22.7345C36.7511 22.6871 36.8502 22.603 36.9157 22.4948C36.9813 22.3866 37.0098 22.2601 36.997 22.1343C37.0088 21.7138 36.9618 21.3166 36.8915 20.8494ZM17.1537 20.2653C17.1537 20.4639 17.1537 20.6742 17.1537 20.8728C16.1838 20.14 15.009 19.7261 13.7922 19.6884C12.5755 19.6507 11.3771 19.9912 10.3634 20.6625C10.8492 18.2571 12.0163 16.0405 13.7267 14.2748C15.4371 12.5091 17.6193 11.268 20.0153 10.6984C18.3265 12.6141 17.1537 16.1769 17.1537 20.2653ZM27.65 21.6788C27.5051 21.6682 27.3702 21.601 27.2748 21.4919C26.7268 20.9157 26.0667 20.4568 25.3348 20.1432C24.6028 19.8295 23.8144 19.6678 23.0176 19.6678C22.2208 19.6678 21.4324 19.8295 20.7004 20.1432C19.9685 20.4568 19.3084 20.9157 18.7604 21.4919C18.714 21.5469 18.6568 21.5919 18.5922 21.6241C18.5277 21.6562 18.4572 21.6748 18.3851 21.6788C18.3265 21.1882 18.3265 20.7209 18.3265 20.2653C18.3265 14.8803 20.4727 10.3363 23.0176 10.3363C25.5625 10.3363 27.7087 14.8803 27.7087 20.2653C27.7087 20.7209 27.7087 21.1882 27.65 21.6788ZM32.3998 19.6813C31.131 19.6813 29.8965 20.0912 28.8814 20.8494C28.8814 20.6391 28.8814 20.4406 28.8814 20.2303C28.8814 16.1769 27.7087 12.6141 26.0199 10.6984C28.4138 11.27 30.5934 12.5119 32.3016 14.2775C34.0098 16.0431 35.1751 18.2586 35.6601 20.6625C34.6947 20.0213 33.5601 19.6799 32.3998 19.6813Z" fill="white"/>
<path d="M56.5137 35.1172C56.0879 35.1172 55.6953 35.0078 55.3359 34.7891C54.9805 34.5703 54.6953 34.2793 54.4805 33.916C54.2695 33.5488 54.1641 33.1465 54.1641 32.709V32.1582C54.1641 32.1152 54.1836 32.0938 54.2227 32.0938H55.5703C55.6016 32.0938 55.6172 32.1152 55.6172 32.1582V32.709C55.6172 32.9707 55.7051 33.1973 55.8809 33.3887C56.0566 33.5762 56.2676 33.6699 56.5137 33.6699C56.7637 33.6699 56.9766 33.5742 57.1523 33.3828C57.3281 33.1875 57.416 32.9629 57.416 32.709C57.416 32.416 57.2246 32.1602 56.8418 31.9414C56.7793 31.9023 56.6973 31.8555 56.5957 31.8008C56.498 31.7422 56.3809 31.6758 56.2441 31.6016C56.1074 31.5273 55.9746 31.4551 55.8457 31.3848C55.7168 31.3105 55.5918 31.2402 55.4707 31.1738C55.0332 30.916 54.707 30.5938 54.4922 30.207C54.2812 29.8164 54.1758 29.3789 54.1758 28.8945C54.1758 28.4492 54.2852 28.0469 54.5039 27.6875C54.7227 27.332 55.0078 27.0508 55.3594 26.8438C55.7148 26.6328 56.0996 26.5273 56.5137 26.5273C56.9395 26.5273 57.3301 26.6328 57.6855 26.8438C58.041 27.0586 58.3242 27.3438 58.5352 27.6992C58.75 28.0547 58.8574 28.4531 58.8574 28.8945V29.8789C58.8574 29.9102 58.8418 29.9258 58.8105 29.9258H57.4629C57.4316 29.9258 57.416 29.9102 57.416 29.8789L57.4043 28.8945C57.4043 28.6133 57.3164 28.3848 57.1406 28.209C56.9648 28.0332 56.7559 27.9453 56.5137 27.9453C56.2676 27.9453 56.0566 28.0391 55.8809 28.2266C55.7051 28.4141 55.6172 28.6367 55.6172 28.8945C55.6172 29.1562 55.6719 29.375 55.7812 29.5508C55.8945 29.7266 56.0996 29.8945 56.3965 30.0547C56.4277 30.0703 56.5 30.1094 56.6133 30.1719C56.7266 30.2344 56.8516 30.3047 56.9883 30.3828C57.1289 30.457 57.2559 30.5254 57.3691 30.5879C57.4824 30.6465 57.5508 30.6816 57.5742 30.6934C57.9727 30.916 58.2871 31.1895 58.5176 31.5137C58.752 31.8379 58.8691 32.2363 58.8691 32.709C58.8691 33.166 58.7637 33.5762 58.5527 33.9395C58.3379 34.3027 58.0527 34.5898 57.6973 34.8008C57.3418 35.0117 56.9473 35.1172 56.5137 35.1172ZM63.747 35H59.868C59.8368 35 59.8212 34.9805 59.8212 34.9414L59.8329 26.6973C59.8329 26.666 59.8485 26.6504 59.8798 26.6504H63.7352C63.7665 26.6504 63.7821 26.6699 63.7821 26.709V28.0508C63.7821 28.082 63.7665 28.0977 63.7352 28.0977H61.2743V29.9727H63.7352C63.7665 29.9727 63.7821 29.9883 63.7821 30.0195L63.7938 31.3789C63.7938 31.4102 63.7782 31.4258 63.747 31.4258H61.2743V33.5234H63.747C63.7782 33.5234 63.7938 33.543 63.7938 33.582V34.9531C63.7938 34.9844 63.7782 35 63.747 35ZM67.1775 35.1172C66.7439 35.1172 66.3533 35.0098 66.0056 34.7949C65.6541 34.5801 65.3709 34.291 65.156 33.9277C64.9451 33.5645 64.8396 33.1582 64.8396 32.709V28.9062C64.8396 28.4688 64.947 28.0703 65.1619 27.7109C65.3728 27.3477 65.656 27.0586 66.0115 26.8438C66.367 26.625 66.7556 26.5156 67.1775 26.5156C67.6189 26.5156 68.0173 26.6211 68.3728 26.832C68.7283 27.0469 69.0095 27.334 69.2166 27.6934C69.4275 28.0527 69.533 28.457 69.533 28.9062V29.457C69.533 29.4883 69.5134 29.5039 69.4744 29.5039H68.1267C68.0955 29.5039 68.0798 29.4883 68.0798 29.457V29C68.0798 28.6953 67.9939 28.4434 67.822 28.2441C67.6502 28.0449 67.4353 27.9453 67.1775 27.9453C66.947 27.9453 66.742 28.041 66.5623 28.2324C66.3826 28.4238 66.2927 28.6484 66.2927 28.9062V32.709C66.2927 32.9707 66.3806 33.1973 66.5564 33.3887C66.7322 33.5762 66.9392 33.6699 67.1775 33.6699C67.4353 33.6699 67.6502 33.5781 67.822 33.3945C67.9939 33.207 68.0798 32.9785 68.0798 32.709V32.1172H67.242C67.199 32.1172 67.1775 32.0977 67.1775 32.0586V30.7168C67.1775 30.6777 67.199 30.6582 67.242 30.6582H69.4861C69.5173 30.6582 69.533 30.6777 69.533 30.7168V32.709C69.533 33.1582 69.4275 33.5645 69.2166 33.9277C69.0017 34.291 68.7185 34.5801 68.367 34.7949C68.0154 35.0098 67.6189 35.1172 67.1775 35.1172ZM72.7116 35.1172C72.2897 35.1172 71.8991 35.0078 71.5397 34.7891C71.1803 34.5703 70.8932 34.2773 70.6784 33.9102C70.4674 33.5391 70.362 33.1348 70.362 32.6973L70.3854 26.6973C70.3854 26.666 70.401 26.6504 70.4323 26.6504H71.7799C71.8112 26.6504 71.8268 26.666 71.8268 26.6973V32.6973C71.8268 32.9668 71.9127 33.1973 72.0846 33.3887C72.2565 33.5762 72.4655 33.6699 72.7116 33.6699C72.9694 33.6699 73.1842 33.5762 73.3561 33.3887C73.528 33.1973 73.6139 32.9668 73.6139 32.6973V26.6973C73.6139 26.666 73.6295 26.6504 73.6608 26.6504H75.0084C75.0397 26.6504 75.0553 26.666 75.0553 26.6973L75.0788 32.6973C75.0788 33.1387 74.9733 33.5449 74.7623 33.916C74.5475 34.2832 74.2623 34.5762 73.9069 34.7949C73.5514 35.0098 73.153 35.1172 72.7116 35.1172ZM77.5484 35H76.189C76.1577 35 76.1421 34.9805 76.1421 34.9414L76.1655 26.6973C76.1655 26.666 76.1812 26.6504 76.2124 26.6504H78.6382C79.0718 26.6504 79.4702 26.7559 79.8335 26.9668C80.1968 27.1777 80.4859 27.4609 80.7007 27.8164C80.9195 28.1719 81.0288 28.5742 81.0288 29.0234C81.0288 29.3164 80.9839 29.582 80.8941 29.8203C80.8042 30.0586 80.6987 30.2598 80.5777 30.4238C80.4605 30.5879 80.353 30.709 80.2554 30.7871C80.689 31.2676 80.9058 31.832 80.9058 32.4805L80.9175 34.9414C80.9175 34.9805 80.898 35 80.8589 35H79.4995C79.4683 35 79.4527 34.9883 79.4527 34.9648V32.4805C79.4527 32.1914 79.3511 31.9414 79.148 31.7305C78.9448 31.5195 78.6948 31.4141 78.398 31.4141H77.607L77.5952 34.9414C77.5952 34.9805 77.5796 35 77.5484 35ZM78.6382 28.0859H77.607V29.9727H78.6382C78.8843 29.9727 79.103 29.8809 79.2945 29.6973C79.4898 29.5137 79.5874 29.2891 79.5874 29.0234C79.5874 28.7695 79.4937 28.5508 79.3062 28.3672C79.1187 28.1797 78.896 28.0859 78.6382 28.0859ZM84.0258 35.1172C83.6 35.1172 83.2074 35.0078 82.848 34.7891C82.4926 34.5703 82.2055 34.2793 81.9867 33.916C81.7719 33.5488 81.6645 33.1465 81.6645 32.709L81.6762 28.9062C81.6762 28.4609 81.7836 28.0605 81.9984 27.7051C82.2094 27.3457 82.4945 27.0586 82.8539 26.8438C83.2133 26.625 83.6039 26.5156 84.0258 26.5156C84.4633 26.5156 84.8559 26.623 85.2035 26.8379C85.5551 27.0527 85.8363 27.3418 86.0473 27.7051C86.2621 28.0645 86.3695 28.4648 86.3695 28.9062L86.3813 32.709C86.3813 33.1465 86.2758 33.5469 86.0648 33.9102C85.85 34.2773 85.5648 34.5703 85.2094 34.7891C84.8539 35.0078 84.4594 35.1172 84.0258 35.1172ZM84.0258 33.6699C84.268 33.6699 84.4789 33.5723 84.6586 33.377C84.8383 33.1777 84.9281 32.9551 84.9281 32.709L84.9164 28.9062C84.9164 28.6406 84.8324 28.416 84.6645 28.2324C84.4965 28.0488 84.2836 27.957 84.0258 27.957C83.7797 27.957 83.5688 28.0469 83.393 28.2266C83.2172 28.4062 83.1293 28.6328 83.1293 28.9062V32.709C83.1293 32.9707 83.2172 33.1973 83.393 33.3887C83.5688 33.5762 83.7797 33.6699 84.0258 33.6699ZM89.4485 35.1172C89.0227 35.1172 88.6302 35.0078 88.2708 34.7891C87.9153 34.5703 87.6302 34.2793 87.4153 33.916C87.2044 33.5488 87.0989 33.1465 87.0989 32.709V32.1582C87.0989 32.1152 87.1184 32.0938 87.1575 32.0938H88.5052C88.5364 32.0938 88.552 32.1152 88.552 32.1582V32.709C88.552 32.9707 88.6399 33.1973 88.8157 33.3887C88.9915 33.5762 89.2024 33.6699 89.4485 33.6699C89.6985 33.6699 89.9114 33.5742 90.0872 33.3828C90.263 33.1875 90.3509 32.9629 90.3509 32.709C90.3509 32.416 90.1595 32.1602 89.7766 31.9414C89.7141 31.9023 89.6321 31.8555 89.5305 31.8008C89.4329 31.7422 89.3157 31.6758 89.179 31.6016C89.0423 31.5273 88.9095 31.4551 88.7805 31.3848C88.6516 31.3105 88.5266 31.2402 88.4055 31.1738C87.968 30.916 87.6419 30.5938 87.427 30.207C87.2161 29.8164 87.1106 29.3789 87.1106 28.8945C87.1106 28.4492 87.22 28.0469 87.4388 27.6875C87.6575 27.332 87.9427 27.0508 88.2942 26.8438C88.6497 26.6328 89.0345 26.5273 89.4485 26.5273C89.8743 26.5273 90.2649 26.6328 90.6204 26.8438C90.9759 27.0586 91.2591 27.3438 91.47 27.6992C91.6848 28.0547 91.7923 28.4531 91.7923 28.8945V29.8789C91.7923 29.9102 91.7766 29.9258 91.7454 29.9258H90.3977C90.3665 29.9258 90.3509 29.9102 90.3509 29.8789L90.3391 28.8945C90.3391 28.6133 90.2513 28.3848 90.0755 28.209C89.8997 28.0332 89.6907 27.9453 89.4485 27.9453C89.2024 27.9453 88.9915 28.0391 88.8157 28.2266C88.6399 28.4141 88.552 28.6367 88.552 28.8945C88.552 29.1562 88.6067 29.375 88.7161 29.5508C88.8294 29.7266 89.0345 29.8945 89.3313 30.0547C89.3626 30.0703 89.4348 30.1094 89.5481 30.1719C89.6614 30.2344 89.7864 30.3047 89.9231 30.3828C90.0638 30.457 90.1907 30.5254 90.304 30.5879C90.4173 30.6465 90.4856 30.6816 90.5091 30.6934C90.9075 30.916 91.222 31.1895 91.4524 31.5137C91.6868 31.8379 91.804 32.2363 91.804 32.709C91.804 33.166 91.6985 33.5762 91.4876 33.9395C91.2727 34.3027 90.9876 34.5898 90.6321 34.8008C90.2766 35.0117 89.8821 35.1172 89.4485 35.1172Z" fill="#7F9AFC"/>
<circle cx="113.25" cy="10.25" r="2" stroke="#7F9AFC" stroke-width="0.5"/>
<circle cx="113.25" cy="20.25" r="2" stroke="#7F9AFC" stroke-width="0.5"/>
<line x1="113.25" y1="12" x2="113.25" y2="18" stroke="#7F9AFC" stroke-width="0.5"/>
<path d="M58.4727 22.1953C57.75 22.1953 57.0892 22.013 56.4902 21.6484C55.8978 21.2839 55.4258 20.7956 55.0742 20.1836C54.7292 19.5651 54.5566 18.8783 54.5566 18.123L54.5762 11.8828C54.5762 11.1406 54.7454 10.4701 55.084 9.87109C55.4225 9.26562 55.888 8.7806 56.4805 8.41602C57.0794 8.04492 57.7435 7.85938 58.4727 7.85938C59.2148 7.85938 59.8757 8.03841 60.4551 8.39648C61.041 8.75456 61.5065 9.23958 61.8516 9.85156C62.2031 10.457 62.3789 11.1341 62.3789 11.8828V12.8008C62.3789 12.8529 62.3529 12.8789 62.3008 12.8789H60.0547C60.0026 12.8789 59.9766 12.8529 59.9766 12.8008V11.8828C59.9766 11.4401 59.8333 11.0592 59.5469 10.7402C59.2604 10.4212 58.9023 10.2617 58.4727 10.2617C57.9974 10.2617 57.6328 10.4245 57.3789 10.75C57.125 11.0755 56.998 11.4531 56.998 11.8828V18.123C56.998 18.6113 57.1413 19.0117 57.4277 19.3242C57.7142 19.6302 58.0625 19.7832 58.4727 19.7832C58.9023 19.7832 59.2604 19.6139 59.5469 19.2754C59.8333 18.9303 59.9766 18.5462 59.9766 18.123V17.1953C59.9766 17.1432 60.0026 17.1172 60.0547 17.1172H62.3203C62.3724 17.1172 62.3984 17.1432 62.3984 17.1953V18.123C62.3984 18.8717 62.2227 19.5553 61.8711 20.1738C61.513 20.7858 61.041 21.2773 60.4551 21.6484C59.8691 22.013 59.2083 22.1953 58.4727 22.1953ZM63.3797 21.9023L65.8602 8.16211C65.8732 8.11003 65.9057 8.08398 65.9578 8.08398H68.8582C68.9103 8.08398 68.9428 8.11003 68.9559 8.16211L71.3387 21.9023C71.3452 21.9674 71.3191 22 71.2605 22H69.0437C68.9786 22 68.9428 21.9674 68.9363 21.9023L68.7215 20.4375H65.9969L65.782 21.9023C65.7755 21.9674 65.743 22 65.6844 22H63.4578C63.4057 22 63.3797 21.9674 63.3797 21.9023ZM67.5008 12.6836L67.3836 11.9414L67.2957 12.6836L66.3973 18.2988H68.3211L67.5008 12.6836ZM75.1324 22H72.8668C72.8147 22 72.7887 21.9674 72.7887 21.9023L72.8277 8.16211C72.8277 8.11003 72.8538 8.08398 72.9059 8.08398H76.9488C77.6715 8.08398 78.3355 8.25977 78.941 8.61133C79.5465 8.96289 80.0283 9.4349 80.3863 10.0273C80.7509 10.6198 80.9332 11.2904 80.9332 12.0391C80.9332 12.5273 80.8583 12.9701 80.7086 13.3672C80.5589 13.7643 80.3831 14.0996 80.1812 14.373C79.9859 14.6465 79.8069 14.8483 79.6441 14.9785C80.3668 15.7793 80.7281 16.7201 80.7281 17.8008L80.7477 21.9023C80.7477 21.9674 80.7151 22 80.65 22H78.3844C78.3323 22 78.3062 21.9805 78.3062 21.9414V17.8008C78.3062 17.319 78.137 16.9023 77.7984 16.5508C77.4599 16.1992 77.0432 16.0234 76.5484 16.0234H75.2301L75.2105 21.9023C75.2105 21.9674 75.1845 22 75.1324 22ZM76.9488 10.4766H75.2301V13.6211H76.9488C77.359 13.6211 77.7236 13.4681 78.0426 13.1621C78.3681 12.8561 78.5309 12.4818 78.5309 12.0391C78.5309 11.6159 78.3746 11.2513 78.0621 10.9453C77.7496 10.6328 77.3785 10.4766 76.9488 10.4766ZM89.1801 22H82.7152C82.6632 22 82.6371 21.9674 82.6371 21.9023L82.6566 8.18164C82.6566 8.11654 82.6892 8.08398 82.7543 8.08398H84.9809C85.046 8.08398 85.0785 8.11654 85.0785 8.18164L85.059 19.5391H89.1801C89.2452 19.5391 89.2777 19.5716 89.2777 19.6367V21.9023C89.2777 21.9674 89.2452 22 89.1801 22ZM94.4875 22.1953C93.7779 22.1953 93.1236 22.013 92.5246 21.6484C91.9322 21.2839 91.4536 20.7988 91.0891 20.1934C90.731 19.5814 90.552 18.9108 90.552 18.1816L90.5715 11.8438C90.5715 11.1016 90.7505 10.4342 91.1086 9.8418C91.4602 9.24284 91.9354 8.76432 92.5344 8.40625C93.1333 8.04167 93.7844 7.85938 94.4875 7.85938C95.2167 7.85938 95.871 8.03841 96.4504 8.39648C97.0363 8.75456 97.5051 9.23633 97.8566 9.8418C98.2147 10.4408 98.3937 11.1081 98.3937 11.8438L98.4133 18.1816C98.4133 18.9108 98.2375 19.5781 97.8859 20.1836C97.5279 20.7956 97.0526 21.2839 96.4602 21.6484C95.8677 22.013 95.2102 22.1953 94.4875 22.1953ZM94.4875 19.7832C94.8911 19.7832 95.2427 19.6204 95.5422 19.2949C95.8417 18.9629 95.9914 18.5918 95.9914 18.1816L95.9719 11.8438C95.9719 11.401 95.8319 11.0267 95.552 10.7207C95.272 10.4147 94.9172 10.2617 94.4875 10.2617C94.0773 10.2617 93.7258 10.4115 93.4328 10.7109C93.1398 11.0104 92.9934 11.388 92.9934 11.8438V18.1816C92.9934 18.6178 93.1398 18.9954 93.4328 19.3145C93.7258 19.627 94.0773 19.7832 94.4875 19.7832ZM103.525 22.1953C102.816 22.1953 102.161 22.013 101.562 21.6484C100.97 21.2839 100.495 20.7988 100.137 20.1934C99.7852 19.5814 99.6094 18.9108 99.6094 18.1816V17.2637C99.6094 17.1921 99.6419 17.1562 99.707 17.1562H101.953C102.005 17.1562 102.031 17.1921 102.031 17.2637V18.1816C102.031 18.6178 102.178 18.9954 102.471 19.3145C102.764 19.627 103.115 19.7832 103.525 19.7832C103.942 19.7832 104.297 19.6237 104.59 19.3047C104.883 18.9792 105.029 18.6048 105.029 18.1816C105.029 17.6934 104.71 17.2669 104.072 16.9023C103.968 16.8372 103.831 16.7591 103.662 16.668C103.499 16.5703 103.304 16.4596 103.076 16.3359C102.848 16.2122 102.627 16.0918 102.412 15.9746C102.197 15.8509 101.989 15.7337 101.787 15.623C101.058 15.1934 100.514 14.6562 100.156 14.0117C99.8047 13.3607 99.6289 12.6315 99.6289 11.8242C99.6289 11.082 99.8112 10.4115 100.176 9.8125C100.54 9.22005 101.016 8.7513 101.602 8.40625C102.194 8.05469 102.835 7.87891 103.525 7.87891C104.235 7.87891 104.886 8.05469 105.479 8.40625C106.071 8.76432 106.543 9.23958 106.895 9.83203C107.253 10.4245 107.432 11.0885 107.432 11.8242V13.4648C107.432 13.5169 107.406 13.543 107.354 13.543H105.107C105.055 13.543 105.029 13.5169 105.029 13.4648L105.01 11.8242C105.01 11.3555 104.863 10.9746 104.57 10.6816C104.277 10.3887 103.929 10.2422 103.525 10.2422C103.115 10.2422 102.764 10.3984 102.471 10.7109C102.178 11.0234 102.031 11.3945 102.031 11.8242C102.031 12.2604 102.122 12.625 102.305 12.918C102.493 13.2109 102.835 13.4909 103.33 13.7578C103.382 13.7839 103.503 13.849 103.691 13.9531C103.88 14.0573 104.089 14.1745 104.316 14.3047C104.551 14.4284 104.762 14.5423 104.951 14.6465C105.14 14.7441 105.254 14.8027 105.293 14.8223C105.957 15.1934 106.481 15.6491 106.865 16.1895C107.256 16.7298 107.451 17.3939 107.451 18.1816C107.451 18.9434 107.275 19.627 106.924 20.2324C106.566 20.8379 106.09 21.3164 105.498 21.668C104.906 22.0195 104.248 22.1953 103.525 22.1953Z" fill="#7F9AFC"/>
<path d="M122.135 22H119.889C119.824 22 119.791 21.9674 119.791 21.9023L119.83 8.16211C119.83 8.11003 119.856 8.08398 119.908 8.08398H126.314C126.38 8.08398 126.412 8.11003 126.412 8.16211V10.418C126.412 10.4701 126.386 10.4961 126.334 10.4961H122.232V13.6016H126.334C126.386 13.6016 126.412 13.6341 126.412 13.6992L126.432 15.9648C126.432 16.0169 126.399 16.043 126.334 16.043H122.232V21.9023C122.232 21.9674 122.2 22 122.135 22ZM126.329 21.9023L128.809 8.16211C128.822 8.11003 128.855 8.08398 128.907 8.08398H131.807C131.86 8.08398 131.892 8.11003 131.905 8.16211L134.288 21.9023C134.294 21.9674 134.268 22 134.21 22H131.993C131.928 22 131.892 21.9674 131.886 21.9023L131.671 20.4375H128.946L128.731 21.9023C128.725 21.9674 128.692 22 128.634 22H126.407C126.355 22 126.329 21.9674 126.329 21.9023ZM130.45 12.6836L130.333 11.9414L130.245 12.6836L129.346 18.2988H131.27L130.45 12.6836ZM138.082 22H135.816C135.764 22 135.738 21.9674 135.738 21.9023L135.777 8.16211C135.777 8.11003 135.803 8.08398 135.855 8.08398H139.898C140.621 8.08398 141.285 8.25977 141.89 8.61133C142.496 8.96289 142.977 9.4349 143.336 10.0273C143.7 10.6198 143.882 11.2904 143.882 12.0391C143.882 12.5273 143.808 12.9701 143.658 13.3672C143.508 13.7643 143.332 14.0996 143.13 14.373C142.935 14.6465 142.756 14.8483 142.593 14.9785C143.316 15.7793 143.677 16.7201 143.677 17.8008L143.697 21.9023C143.697 21.9674 143.664 22 143.599 22H141.334C141.282 22 141.255 21.9805 141.255 21.9414V17.8008C141.255 17.319 141.086 16.9023 140.748 16.5508C140.409 16.1992 139.992 16.0234 139.498 16.0234H138.179L138.16 21.9023C138.16 21.9674 138.134 22 138.082 22ZM139.898 10.4766H138.179V13.6211H139.898C140.308 13.6211 140.673 13.4681 140.992 13.1621C141.317 12.8561 141.48 12.4818 141.48 12.0391C141.48 11.6159 141.324 11.2513 141.011 10.9453C140.699 10.6328 140.328 10.4766 139.898 10.4766ZM147.93 22H145.684C145.619 22 145.586 21.9674 145.586 21.9023L145.625 8.16211C145.625 8.11003 145.651 8.08398 145.704 8.08398H152.11C152.175 8.08398 152.207 8.11003 152.207 8.16211V10.418C152.207 10.4701 152.181 10.4961 152.129 10.4961H148.028V13.6016H152.129C152.181 13.6016 152.207 13.6341 152.207 13.6992L152.227 15.9648C152.227 16.0169 152.194 16.043 152.129 16.043H148.028V21.9023C148.028 21.9674 147.995 22 147.93 22ZM152.124 21.9023L154.605 8.16211C154.618 8.11003 154.65 8.08398 154.702 8.08398H157.603C157.655 8.08398 157.687 8.11003 157.7 8.16211L160.083 21.9023C160.09 21.9674 160.064 22 160.005 22H157.788C157.723 22 157.687 21.9674 157.681 21.9023L157.466 20.4375H154.741L154.527 21.9023C154.52 21.9674 154.487 22 154.429 22H152.202C152.15 22 152.124 21.9674 152.124 21.9023ZM156.245 12.6836L156.128 11.9414L156.04 12.6836L155.142 18.2988H157.066L156.245 12.6836ZM163.711 22H161.709C161.605 22 161.553 21.9544 161.553 21.8633L161.533 8.24023C161.533 8.13607 161.585 8.08398 161.689 8.08398H163.496L166.875 15.9648L166.777 8.24023C166.777 8.13607 166.836 8.08398 166.953 8.08398H168.936C169.014 8.08398 169.053 8.13607 169.053 8.24023L169.072 21.8828C169.072 21.9609 169.04 22 168.975 22H167.217L163.75 14.6367L163.896 21.8438C163.896 21.9479 163.835 22 163.711 22Z" fill="#7F9AFC"/>
</svg>
