<?xml version="1.0" encoding="utf-8"?>
<!-- Generator: Adobe Illustrator 26.5.0, SVG Export Plug-In . SVG Version: 6.00 Build 0)  -->
<svg version="1.1" id="Capa_1" xmlns="http://www.w3.org/2000/svg" xmlns:xlink="http://www.w3.org/1999/xlink" x="0px" y="0px"
	 viewBox="0 0 150 52" style="enable-background:new 0 0 150 52;" xml:space="preserve">
<style type="text/css">
	.st0{fill:#2D6DF6;}
</style>
<g>
	<g>
		<path id="XMLID_00000019640548561307765040000018313710812095133594_" class="st0" d="M128.1,41.8c0.1-0.1,0-0.2-0.1-0.2
			c-2.8,1.1-8.9,2.2-12.7,2.8c-3.3,0.5-6.1,0.6-7.7,0.7l-0.7,0.1c-0.1,0-0.1,0.1-0.1,0.1c0,0.1,0,0.1,0.1,0.1
			c0.3,0.3,1.2,1.2,3.1,1.5c2.1,0.3,5.3-0.3,9.2-1.4C122.5,44.5,126.3,42.9,128.1,41.8z"/>
		<path id="XMLID_00000062871813904582374960000009428834182382369189_" class="st0" d="M128.4,43.4c-1.8,1.2-4.2,2.4-7,3.4
			c-2.9,1-6.1,1.9-9.5,2.4c-0.1,0-0.1,0.1-0.1,0.1c0,0,0,0.1,0,0.1c0.6,0.4,1.3,0.7,2.2,0.8c1.1,0.1,2.4,0,3.9-0.4
			c1.4-0.4,2.6-1,4.1-1.7c1.4-0.7,2.7-1.5,3.9-2.3c1.2-0.8,2-1.6,2.6-2.3C128.5,43.5,128.5,43.4,128.4,43.4z"/>
		<path id="XMLID_00000070083858305829805950000011403787415268136881_" class="st0" d="M114.1,12.2c0.7,0.8,1.6,1.3,2.7,1.7l0.1,0
			c0.3,0.1,18.9,5,23.8,6.3c2.2,0.6,3.9,1,4.7,1.3c0.1,0,0.1,0,0.1-0.1c0,0,0-0.1-0.1-0.1c-3.1-1.3-22.3-8.6-29.5-11.4l-3-1.2
			c-0.1,0-0.2,0-0.2,0c0,0,0,0.1,0,0.1c0,0.3,0.2,1.6,0.8,2.6C113.7,11.7,113.9,11.9,114.1,12.2z"/>
		<path id="XMLID_00000023245123993421411720000015968799030990779832_" class="st0" d="M114.9,4.8c0.4,0.5,0.7,0.8,1.4,1.2
			c0.2,0.1,0.5,0.3,0.7,0.4l1.7,0.9c1,0.5,15.3,7.2,17.4,8.2c2.5,1.2,5,2.4,6.1,2.9c0.1,0,0.2,0,0.1-0.1c-2.7-1.7-13-8.1-20.3-12.7
			l-5.3-3.2l-1-0.6L114,0.8c-0.1,0-0.1,0-0.2,0c-0.1,0-0.1,0.1-0.1,0.1c0,0.2,0,1.6,0.4,2.6C114.3,4,114.6,4.4,114.9,4.8z"/>
		<path id="XMLID_00000067939480063335595090000006280950395401912228_" class="st0" d="M127.8,46.6
			C127.8,46.6,127.8,46.6,127.8,46.6c-2.5,2.4-6,3.7-7.1,4c-0.1,0-0.1,0.1-0.1,0.1c0,0.1,0,0.1,0.1,0.1c0.2,0.1,1.6,0.8,4.3-0.5
			c1.5-0.8,2.3-2,3-3.7C127.9,46.7,127.9,46.6,127.8,46.6z"/>
		<path id="XMLID_00000075155790459372991970000010841875561803525537_" class="st0" d="M144.9,26.9c-1.2,0.3-5.8,1.5-9.8,2.5
			c-3.5,0.9-7.4,2-7.4,2c-0.4,0.1-0.3,0.3-0.2,0.3c0.1,0.2,0.3,0.5,0.6,1c0.6,1,1.5,0.9,2.2,0.6c0.1,0,14-5.8,14.7-6.3
			c0.1-0.1,0-0.1,0-0.1C145.1,26.9,145,26.9,144.9,26.9z"/>
		<path id="XMLID_00000036970990476922286740000002353023218267482755_" class="st0" d="M138.8,36.6L138.8,36.6
			c-1.9,1.6-4.7,4-7.6,6.5c-0.3,0.2-0.4,0.6-0.5,1.1c-0.2,0.8-0.6,1.9-0.6,1.9c-0.1,0.2,0,0.3,0.3,0.1c2.2-2.4,7.2-7.9,8.5-9.4
			C138.9,36.6,138.9,36.6,138.8,36.6z"/>
		<path id="XMLID_00000005224524997921963010000014462157630369158299_" class="st0" d="M147.6,23.2c-2.5-0.5-32.5-5.8-32.5-5.8
			c-0.1,0-0.1,0-0.2,0.1c0,0.1,0,0.1,0,0.2c0.5,1.6,1.7,3.1,3.7,3.7c0.2,0.1,0.4,0.1,0.7,0.1c0,0,25.5,1.7,28.3,1.9
			c0.1,0,0.1,0,0.1-0.1C147.7,23.3,147.7,23.2,147.6,23.2z"/>
		<path id="XMLID_00000125568534364147880590000010008256965175792547_" class="st0" d="M146.4,24.9c-0.9,0-2.7,0-5,0
			c-2.6,0-5.9,0-9,0c-4.1,0-10.6,0.1-10.6,0.1c0,0-0.1,0-0.1,0.1c0,0,0,0.1,0,0.1c0.1,0.3,0.5,1,0.9,1.4c0.8,0.8,1.7,1.3,2.6,1.4
			c0.1,0,0.2,0,0.3,0c0.1,0,0.2,0,0.3,0c0.1,0,19.5-2.7,20.5-2.9c0,0,0.1,0,0.1-0.1C146.5,25,146.4,24.9,146.4,24.9z"/>
		<path id="XMLID_00000045599417691961927370000007575026700975685522_" class="st0" d="M143.4,29.6c-1.3,0.8-4.8,2.9-7.8,4.7
			c-1.7,1-3.8,2.2-4.8,2.9c-0.1,0.1-0.2,0.1-0.2,0.4c0,0,0,0.3,0.1,0.7c0.1,1.6,0.8,1.4,1.7,0.7l0.1-0.1c3.3-2.8,9.6-8,10.9-9.1
			C143.5,29.7,143.5,29.7,143.4,29.6z"/>
	</g>
	<path class="st0" d="M87.4,12.2c-6.7,0-12.9,4.9-13.2,14.5c-0.2,8.7,4.3,14.8,11.9,14.8c6.3,0,8.5-4.4,8.5-4.4
		c0.4,2.9,1.9,3.8,5.1,3.8V12.2H87.4z M94.3,29.1c0,4-2.3,7.7-7.2,7.7c-4.4,0-7.6-3-7.4-10.1c0.2-6.9,3.5-9.9,7.9-9.9
		c0.3,0,0.7,0,1,0v0h5.8V29.1z"/>
	<path id="XMLID_00000046340755089950966850000015346955157654263970_" class="st0" d="M45,12.2l0,19.9c0,2.9-2.4,4.4-5.6,4.4
		c-3.3,0-5.5-1.5-5.5-4.4l0-14.9c0-4.2-2.7-5-5-5v21.1c0,5.3,4.8,7.9,10.4,7.9c5.4,0,10.7-2.6,10.7-7.9l0-15.4
		C50,13.7,48.4,12.2,45,12.2z"/>
	<path id="XMLID_00000012460135198604269400000009396053004843004041_" class="st0" d="M17,25l-6.1-1.7c-1.7-0.5-3.2-1.2-3.2-3.3
		c0-2.1,1.3-3.2,4-3.2h5.4c2.4,0,5.3-0.8,5.3-4.7l-10.2,0c-6.3,0-9.9,3.2-9.9,7.8c0,4.3,2.7,6.6,7.5,7.9l5.3,1.4c2.2,0.6,3,2,3,3.4
		c0,2.2-1.4,3.5-4.7,3.5L3.2,36.2v4.6h10.4c6.3,0,9.9-3.4,9.9-7.8C23.5,28.5,21.8,26.3,17,25z"/>
	<path id="XMLID_00000165918196547248483320000012550171930393295763_" class="st0" d="M67.2,12.2c-6.2,0-10.5,3.6-10.5,11v17.7h5
		V23c0-3.8,2-6.1,5.9-6.1h1.5c4.4,0,5.1-2.3,5.1-4.7H67.2z"/>
</g>
</svg>
